<?xml version="1.0" encoding="UTF-8" standalone="no"?>
<!DOCTYPE svg PUBLIC "-//W3C//DTD SVG 1.1//EN"
 "http://www.w3.org/Graphics/SVG/1.1/DTD/svg11.dtd">
<!-- Generated by graphviz version 9.0.0 (20230911.1827)
 -->
<!-- Title: MaterialLoader Pages: 1 -->
<svg width="356pt" height="925pt"
 viewBox="0.00 0.00 356.00 925.00" xmlns="http://www.w3.org/2000/svg" xmlns:xlink="http://www.w3.org/1999/xlink">
<g id="graph0" class="graph" transform="scale(1 1) rotate(0) translate(4 921)">
<title>MaterialLoader</title>
<!-- Node1 -->
<g id="Node000001" class="node">
<title>Node1</title>
<g id="a_Node000001"><a xlink:title=" ">
<polygon fill="#999999" stroke="none" points="208.5,-214 88.5,-214 88.5,0 208.5,0 208.5,-214"/>
<text text-anchor="start" x="116.62" y="-200.5" font-family="Helvetica,sans-Serif" font-size="10.00">MaterialLoader</text>
<text text-anchor="start" x="94" y="-186.5" font-family="Helvetica,sans-Serif" font-size="10.00">&#45;</text>
<text text-anchor="start" x="102.5" y="-186.5" font-family="Helvetica,sans-Serif" font-size="10.00">_materialsConfig</text>
<text text-anchor="start" x="94" y="-172.5" font-family="Helvetica,sans-Serif" font-size="10.00">&#45;</text>
<text text-anchor="start" x="102.5" y="-172.5" font-family="Helvetica,sans-Serif" font-size="10.00">_materials</text>
<text text-anchor="start" x="92.5" y="-158.5" font-family="Helvetica,sans-Serif" font-size="10.00">+</text>
<text text-anchor="start" x="102.5" y="-158.5" font-family="Helvetica,sans-Serif" font-size="10.00">MaterialLoader()</text>
<text text-anchor="start" x="92.5" y="-144.5" font-family="Helvetica,sans-Serif" font-size="10.00">+</text>
<text text-anchor="start" x="102.5" y="-144.5" font-family="Helvetica,sans-Serif" font-size="10.00">~MaterialLoader()</text>
<text text-anchor="start" x="92.5" y="-130.5" font-family="Helvetica,sans-Serif" font-size="10.00">+</text>
<text text-anchor="start" x="102.5" y="-130.5" font-family="Helvetica,sans-Serif" font-size="10.00">load()</text>
<text text-anchor="start" x="92.5" y="-116.5" font-family="Helvetica,sans-Serif" font-size="10.00">+</text>
<text text-anchor="start" x="102.5" y="-116.5" font-family="Helvetica,sans-Serif" font-size="10.00">convertMapToMaterial()</text>
<text text-anchor="start" x="92.5" y="-102.5" font-family="Helvetica,sans-Serif" font-size="10.00">+</text>
<text text-anchor="start" x="102.5" y="-102.5" font-family="Helvetica,sans-Serif" font-size="10.00">parse()</text>
<text text-anchor="start" x="92.5" y="-88.5" font-family="Helvetica,sans-Serif" font-size="10.00">+</text>
<text text-anchor="start" x="102.5" y="-88.5" font-family="Helvetica,sans-Serif" font-size="10.00">getMaterials()</text>
<text text-anchor="start" x="92.5" y="-74.5" font-family="Helvetica,sans-Serif" font-size="10.00">+</text>
<text text-anchor="start" x="102.5" y="-74.5" font-family="Helvetica,sans-Serif" font-size="10.00">setMaterialsType()</text>
<text text-anchor="start" x="92.5" y="-60.5" font-family="Helvetica,sans-Serif" font-size="10.00">+</text>
<text text-anchor="start" x="102.5" y="-60.5" font-family="Helvetica,sans-Serif" font-size="10.00">findFloat()</text>
<text text-anchor="start" x="92.5" y="-46.5" font-family="Helvetica,sans-Serif" font-size="10.00">+</text>
<text text-anchor="start" x="102.5" y="-46.5" font-family="Helvetica,sans-Serif" font-size="10.00">findVector3D()</text>
<text text-anchor="start" x="92.5" y="-32.5" font-family="Helvetica,sans-Serif" font-size="10.00">+</text>
<text text-anchor="start" x="102.5" y="-32.5" font-family="Helvetica,sans-Serif" font-size="10.00">findString()</text>
<text text-anchor="start" x="92.5" y="-18.5" font-family="Helvetica,sans-Serif" font-size="10.00">+</text>
<text text-anchor="start" x="102.5" y="-18.5" font-family="Helvetica,sans-Serif" font-size="10.00">selectMaterialType()</text>
<text text-anchor="start" x="92.5" y="-4.5" font-family="Helvetica,sans-Serif" font-size="10.00">+</text>
<text text-anchor="start" x="102.5" y="-4.5" font-family="Helvetica,sans-Serif" font-size="10.00">findColor()</text>
<polygon fill="#666666" stroke="#666666" points="88.5,-198 88.5,-198 208.5,-198 208.5,-198 88.5,-198"/>
<polygon fill="#666666" stroke="#666666" points="88.5,-170 88.5,-170 100.5,-170 100.5,-170 88.5,-170"/>
<polygon fill="#666666" stroke="#666666" points="100.5,-170 100.5,-170 208.5,-170 208.5,-170 100.5,-170"/>
<polygon fill="none" stroke="#666666" points="88.5,0 88.5,-214 208.5,-214 208.5,0 88.5,0"/>
</a>
</g>
</g>
<!-- Node2 -->
<g id="Node000002" class="node">
<title>Node2</title>
<g id="a_Node000002"><a xlink:href="classConfigNode.html" target="_top" xlink:title=" ">
<polygon fill="white" stroke="none" points="81,-460.5 0,-460.5 0,-316.5 81,-316.5 81,-460.5"/>
<text text-anchor="start" x="14.62" y="-447" font-family="Helvetica,sans-Serif" font-size="10.00">ConfigNode</text>
<text text-anchor="start" x="4" y="-433" font-family="Helvetica,sans-Serif" font-size="10.00">+</text>
<text text-anchor="start" x="14" y="-433" font-family="Helvetica,sans-Serif" font-size="10.00">children</text>
<text text-anchor="start" x="4" y="-419" font-family="Helvetica,sans-Serif" font-size="10.00">+</text>
<text text-anchor="start" x="14" y="-419" font-family="Helvetica,sans-Serif" font-size="10.00">value</text>
<text text-anchor="start" x="4" y="-405" font-family="Helvetica,sans-Serif" font-size="10.00">+</text>
<text text-anchor="start" x="14" y="-405" font-family="Helvetica,sans-Serif" font-size="10.00">isValue</text>
<text text-anchor="start" x="4" y="-391" font-family="Helvetica,sans-Serif" font-size="10.00">+</text>
<text text-anchor="start" x="14" y="-391" font-family="Helvetica,sans-Serif" font-size="10.00">type</text>
<text text-anchor="start" x="4" y="-377" font-family="Helvetica,sans-Serif" font-size="10.00">+</text>
<text text-anchor="start" x="14" y="-377" font-family="Helvetica,sans-Serif" font-size="10.00">_name</text>
<text text-anchor="start" x="4" y="-363" font-family="Helvetica,sans-Serif" font-size="10.00">+</text>
<text text-anchor="start" x="14" y="-363" font-family="Helvetica,sans-Serif" font-size="10.00">ConfigNode()</text>
<text text-anchor="start" x="4" y="-349" font-family="Helvetica,sans-Serif" font-size="10.00">+</text>
<text text-anchor="start" x="14" y="-349" font-family="Helvetica,sans-Serif" font-size="10.00">~ConfigNode()</text>
<text text-anchor="start" x="4" y="-335" font-family="Helvetica,sans-Serif" font-size="10.00">+</text>
<text text-anchor="start" x="14" y="-335" font-family="Helvetica,sans-Serif" font-size="10.00">hasChild()</text>
<text text-anchor="start" x="4" y="-321" font-family="Helvetica,sans-Serif" font-size="10.00">+</text>
<text text-anchor="start" x="14" y="-321" font-family="Helvetica,sans-Serif" font-size="10.00">getValue()</text>
<polygon fill="#bfbfbf" stroke="#bfbfbf" points="0,-444.5 0,-444.5 81,-444.5 81,-444.5 0,-444.5"/>
<polygon fill="#bfbfbf" stroke="#bfbfbf" points="0,-374.5 0,-374.5 12,-374.5 12,-374.5 0,-374.5"/>
<polygon fill="#bfbfbf" stroke="#bfbfbf" points="12,-374.5 12,-374.5 81,-374.5 81,-374.5 12,-374.5"/>
<polygon fill="none" stroke="#bfbfbf" points="0,-316.5 0,-460.5 81,-460.5 81,-316.5 0,-316.5"/>
</a>
</g>
</g>
<!-- Node2&#45;&gt;Node1 -->
<g id="edge1_Node000001_Node000002" class="edge">
<title>Node2&#45;&gt;Node1</title>
<g id="a_edge1_Node000001_Node000002"><a xlink:title=" ">
<path fill="none" stroke="#63b8ff" d="M66.69,-316.54C76.6,-289.97 88.07,-259.55 98.75,-232 99.54,-229.96 100.35,-227.89 101.15,-225.82"/>
<polygon fill="none" stroke="#63b8ff" points="101.16,-225.81 99.62,-218.77 105.53,-214.64 107.07,-221.69 101.16,-225.81"/>
</a>
</g>
<text text-anchor="middle" x="122.38" y="-233" font-family="Helvetica,sans-Serif" font-size="10.00" fill="grey"> &#45;rootNode</text>
</g>
<!-- Node3 -->
<g id="Node000003" class="node">
<title>Node3</title>
<g id="a_Node000003"><a xlink:href="classConfigParser.html" target="_top" xlink:title=" ">
<polygon fill="white" stroke="none" points="198,-460.5 99,-460.5 99,-316.5 198,-316.5 198,-460.5"/>
<text text-anchor="start" x="119.62" y="-447" font-family="Helvetica,sans-Serif" font-size="10.00">ConfigParser</text>
<text text-anchor="start" x="104.5" y="-433" font-family="Helvetica,sans-Serif" font-size="10.00">&#45;</text>
<text text-anchor="start" x="113" y="-433" font-family="Helvetica,sans-Serif" font-size="10.00">file</text>
<text text-anchor="start" x="103" y="-419" font-family="Helvetica,sans-Serif" font-size="10.00">+</text>
<text text-anchor="start" x="113" y="-419" font-family="Helvetica,sans-Serif" font-size="10.00">ConfigParser()</text>
<text text-anchor="start" x="103" y="-405" font-family="Helvetica,sans-Serif" font-size="10.00">+</text>
<text text-anchor="start" x="113" y="-405" font-family="Helvetica,sans-Serif" font-size="10.00">~ConfigParser()</text>
<text text-anchor="start" x="103" y="-391" font-family="Helvetica,sans-Serif" font-size="10.00">+</text>
<text text-anchor="start" x="113" y="-391" font-family="Helvetica,sans-Serif" font-size="10.00">loadConfig()</text>
<text text-anchor="start" x="103.38" y="-377" font-family="Helvetica,sans-Serif" font-size="10.00">#</text>
<text text-anchor="start" x="113" y="-377" font-family="Helvetica,sans-Serif" font-size="10.00">buildConfigTree()</text>
<text text-anchor="start" x="104.5" y="-363" font-family="Helvetica,sans-Serif" font-size="10.00">&#45;</text>
<text text-anchor="start" x="113" y="-363" font-family="Helvetica,sans-Serif" font-size="10.00">handleGroupType()</text>
<text text-anchor="start" x="104.5" y="-349" font-family="Helvetica,sans-Serif" font-size="10.00">&#45;</text>
<text text-anchor="start" x="113" y="-349" font-family="Helvetica,sans-Serif" font-size="10.00">handleArrayType()</text>
<text text-anchor="start" x="104.5" y="-335" font-family="Helvetica,sans-Serif" font-size="10.00">&#45;</text>
<text text-anchor="start" x="113" y="-335" font-family="Helvetica,sans-Serif" font-size="10.00">handleListType()</text>
<text text-anchor="start" x="104.5" y="-321" font-family="Helvetica,sans-Serif" font-size="10.00">&#45;</text>
<text text-anchor="start" x="113" y="-321" font-family="Helvetica,sans-Serif" font-size="10.00">handleValueType()</text>
<polygon fill="#bfbfbf" stroke="#bfbfbf" points="99,-444.5 99,-444.5 198,-444.5 198,-444.5 99,-444.5"/>
<polygon fill="#bfbfbf" stroke="#bfbfbf" points="99,-430.5 99,-430.5 111,-430.5 111,-430.5 99,-430.5"/>
<polygon fill="#bfbfbf" stroke="#bfbfbf" points="111,-430.5 111,-430.5 198,-430.5 198,-430.5 111,-430.5"/>
<polygon fill="none" stroke="#bfbfbf" points="99,-316.5 99,-460.5 198,-460.5 198,-316.5 99,-316.5"/>
</a>
</g>
</g>
<!-- Node3&#45;&gt;Node1 -->
<g id="edge2_Node000001_Node000003" class="edge">
<title>Node3&#45;&gt;Node1</title>
<g id="a_edge2_Node000001_Node000003"><a xlink:title=" ">
<path fill="none" stroke="#63b8ff" d="M148.5,-316.61C148.5,-289.37 148.5,-257.47 148.5,-226.93"/>
<polygon fill="none" stroke="#63b8ff" points="148.5,-226.85 144.5,-220.85 148.5,-214.85 152.5,-220.85 148.5,-226.85"/>
</a>
</g>
<text text-anchor="middle" x="179.25" y="-233" font-family="Helvetica,sans-Serif" font-size="10.00" fill="grey"> &#45;configParser</text>
</g>
<!-- Node4 -->
<g id="Node000004" class="node">
<title>Node4</title>
<g id="a_Node000004"><a xlink:href="classObjectConstructor.html" target="_top" xlink:title=" ">
<polygon fill="white" stroke="none" points="332.5,-516.5 216.5,-516.5 216.5,-260.5 332.5,-260.5 332.5,-516.5"/>
<text text-anchor="start" x="234.75" y="-503" font-family="Helvetica,sans-Serif" font-size="10.00">ObjectConstructor</text>
<text text-anchor="start" x="222" y="-489" font-family="Helvetica,sans-Serif" font-size="10.00">&#45;</text>
<text text-anchor="start" x="230.5" y="-489" font-family="Helvetica,sans-Serif" font-size="10.00">_propertyTypeMap</text>
<text text-anchor="start" x="222" y="-475" font-family="Helvetica,sans-Serif" font-size="10.00">&#45;</text>
<text text-anchor="start" x="230.5" y="-475" font-family="Helvetica,sans-Serif" font-size="10.00">_objects</text>
<text text-anchor="start" x="222" y="-461" font-family="Helvetica,sans-Serif" font-size="10.00">&#45;</text>
<text text-anchor="start" x="230.5" y="-461" font-family="Helvetica,sans-Serif" font-size="10.00">_shapeDefinitions</text>
<text text-anchor="start" x="220.5" y="-447" font-family="Helvetica,sans-Serif" font-size="10.00">+</text>
<text text-anchor="start" x="230.5" y="-447" font-family="Helvetica,sans-Serif" font-size="10.00">ObjectConstructor()</text>
<text text-anchor="start" x="220.5" y="-433" font-family="Helvetica,sans-Serif" font-size="10.00">+</text>
<text text-anchor="start" x="230.5" y="-433" font-family="Helvetica,sans-Serif" font-size="10.00">~ObjectConstructor()</text>
<text text-anchor="start" x="220.5" y="-419" font-family="Helvetica,sans-Serif" font-size="10.00">+</text>
<text text-anchor="start" x="230.5" y="-419" font-family="Helvetica,sans-Serif" font-size="10.00">createObject()</text>
<text text-anchor="start" x="220.5" y="-405" font-family="Helvetica,sans-Serif" font-size="10.00">+</text>
<text text-anchor="start" x="230.5" y="-405" font-family="Helvetica,sans-Serif" font-size="10.00">createObjects()</text>
<text text-anchor="start" x="220.5" y="-391" font-family="Helvetica,sans-Serif" font-size="10.00">+</text>
<text text-anchor="start" x="230.5" y="-391" font-family="Helvetica,sans-Serif" font-size="10.00">verifyObjectValidity()</text>
<text text-anchor="start" x="220.5" y="-377" font-family="Helvetica,sans-Serif" font-size="10.00">+</text>
<text text-anchor="start" x="230.5" y="-377" font-family="Helvetica,sans-Serif" font-size="10.00">getObjects()</text>
<text text-anchor="start" x="220.5" y="-363" font-family="Helvetica,sans-Serif" font-size="10.00">+</text>
<text text-anchor="start" x="230.5" y="-363" font-family="Helvetica,sans-Serif" font-size="10.00">printObjectMap()</text>
<text text-anchor="start" x="220.5" y="-349" font-family="Helvetica,sans-Serif" font-size="10.00">+</text>
<text text-anchor="start" x="230.5" y="-349" font-family="Helvetica,sans-Serif" font-size="10.00">createMaterials()</text>
<text text-anchor="start" x="222" y="-335" font-family="Helvetica,sans-Serif" font-size="10.00">&#45;</text>
<text text-anchor="start" x="230.5" y="-335" font-family="Helvetica,sans-Serif" font-size="10.00">fillObject()</text>
<text text-anchor="start" x="222" y="-321" font-family="Helvetica,sans-Serif" font-size="10.00">&#45;</text>
<text text-anchor="start" x="230.5" y="-321" font-family="Helvetica,sans-Serif" font-size="10.00">handleSimpleValue()</text>
<text text-anchor="start" x="222" y="-307" font-family="Helvetica,sans-Serif" font-size="10.00">&#45;</text>
<text text-anchor="start" x="230.5" y="-307" font-family="Helvetica,sans-Serif" font-size="10.00">handleVector2DValue()</text>
<text text-anchor="start" x="222" y="-293" font-family="Helvetica,sans-Serif" font-size="10.00">&#45;</text>
<text text-anchor="start" x="230.5" y="-293" font-family="Helvetica,sans-Serif" font-size="10.00">handleVector3DValue()</text>
<text text-anchor="start" x="222" y="-279" font-family="Helvetica,sans-Serif" font-size="10.00">&#45;</text>
<text text-anchor="start" x="230.5" y="-279" font-family="Helvetica,sans-Serif" font-size="10.00">convertValue()</text>
<text text-anchor="start" x="222" y="-265" font-family="Helvetica,sans-Serif" font-size="10.00">&#45;</text>
<text text-anchor="start" x="230.5" y="-265" font-family="Helvetica,sans-Serif" font-size="10.00">initShapeDefinitions()</text>
<polygon fill="#bfbfbf" stroke="#bfbfbf" points="216.5,-500.5 216.5,-500.5 332.5,-500.5 332.5,-500.5 216.5,-500.5"/>
<polygon fill="#bfbfbf" stroke="#bfbfbf" points="216.5,-458.5 216.5,-458.5 228.5,-458.5 228.5,-458.5 216.5,-458.5"/>
<polygon fill="#bfbfbf" stroke="#bfbfbf" points="228.5,-458.5 228.5,-458.5 332.5,-458.5 332.5,-458.5 228.5,-458.5"/>
<polygon fill="none" stroke="#bfbfbf" points="216.5,-260.5 216.5,-516.5 332.5,-516.5 332.5,-260.5 216.5,-260.5"/>
</a>
</g>
</g>
<!-- Node4&#45;&gt;Node1 -->
<g id="edge3_Node000001_Node000004" class="edge">
<title>Node4&#45;&gt;Node1</title>
<g id="a_edge3_Node000001_Node000004"><a xlink:title=" ">
<path fill="none" stroke="#63b8ff" d="M226.97,-260.52C222.89,-250.81 218.71,-241.21 214.5,-232 213.52,-229.85 212.51,-227.68 211.49,-225.5"/>
<polygon fill="none" stroke="#63b8ff" points="211.45,-225.41 205.25,-221.73 206.27,-214.59 212.47,-218.28 211.45,-225.41"/>
</a>
</g>
<text text-anchor="middle" x="261.75" y="-233" font-family="Helvetica,sans-Serif" font-size="10.00" fill="grey"> &#45;_objectConstructor</text>
</g>
<!-- Node5 -->
<g id="Node000005" class="node">
<title>Node5</title>
<g id="a_Node000005"><a xlink:href="classObjectErrorHandling.html" target="_top" xlink:title=" ">
<polygon fill="white" stroke="none" points="348,-917 201,-917 201,-563 348,-563 348,-917"/>
<text text-anchor="start" x="230.62" y="-903.5" font-family="Helvetica,sans-Serif" font-size="10.00">ObjectErrorHandling</text>
<text text-anchor="start" x="206.5" y="-889.5" font-family="Helvetica,sans-Serif" font-size="10.00">&#45;</text>
<text text-anchor="start" x="215" y="-889.5" font-family="Helvetica,sans-Serif" font-size="10.00">_shapeDefinitions</text>
<text text-anchor="start" x="206.5" y="-875.5" font-family="Helvetica,sans-Serif" font-size="10.00">&#45;</text>
<text text-anchor="start" x="215" y="-875.5" font-family="Helvetica,sans-Serif" font-size="10.00">_propertyTypeMap</text>
<text text-anchor="start" x="205" y="-861.5" font-family="Helvetica,sans-Serif" font-size="10.00">+</text>
<text text-anchor="start" x="215" y="-861.5" font-family="Helvetica,sans-Serif" font-size="10.00">ObjectErrorHandling()</text>
<text text-anchor="start" x="205" y="-847.5" font-family="Helvetica,sans-Serif" font-size="10.00">+</text>
<text text-anchor="start" x="215" y="-847.5" font-family="Helvetica,sans-Serif" font-size="10.00">~ObjectErrorHandling()</text>
<text text-anchor="start" x="205" y="-833.5" font-family="Helvetica,sans-Serif" font-size="10.00">+</text>
<text text-anchor="start" x="215" y="-833.5" font-family="Helvetica,sans-Serif" font-size="10.00">checkArrayValidity()</text>
<text text-anchor="start" x="205" y="-819.5" font-family="Helvetica,sans-Serif" font-size="10.00">+</text>
<text text-anchor="start" x="215" y="-819.5" font-family="Helvetica,sans-Serif" font-size="10.00">checkGroupValidity()</text>
<text text-anchor="start" x="205" y="-805.5" font-family="Helvetica,sans-Serif" font-size="10.00">+</text>
<text text-anchor="start" x="215" y="-805.5" font-family="Helvetica,sans-Serif" font-size="10.00">checkListValidity()</text>
<text text-anchor="start" x="205" y="-791.5" font-family="Helvetica,sans-Serif" font-size="10.00">+</text>
<text text-anchor="start" x="215" y="-791.5" font-family="Helvetica,sans-Serif" font-size="10.00">checkValueValidity()</text>
<text text-anchor="start" x="205" y="-777.5" font-family="Helvetica,sans-Serif" font-size="10.00">+</text>
<text text-anchor="start" x="215" y="-777.5" font-family="Helvetica,sans-Serif" font-size="10.00">verifyObjectValidity()</text>
<text text-anchor="start" x="205" y="-763.5" font-family="Helvetica,sans-Serif" font-size="10.00">+</text>
<text text-anchor="start" x="215" y="-763.5" font-family="Helvetica,sans-Serif" font-size="10.00">setShapeDefinitions()</text>
<text text-anchor="start" x="205" y="-749.5" font-family="Helvetica,sans-Serif" font-size="10.00">+</text>
<text text-anchor="start" x="215" y="-749.5" font-family="Helvetica,sans-Serif" font-size="10.00">setPropertyTypeMap()</text>
<text text-anchor="start" x="206.5" y="-735.5" font-family="Helvetica,sans-Serif" font-size="10.00">&#45;</text>
<text text-anchor="start" x="215" y="-735.5" font-family="Helvetica,sans-Serif" font-size="10.00">getDataTypeName()</text>
<text text-anchor="start" x="206.5" y="-721.5" font-family="Helvetica,sans-Serif" font-size="10.00">&#45;</text>
<text text-anchor="start" x="215" y="-721.5" font-family="Helvetica,sans-Serif" font-size="10.00">getShapeDefinition()</text>
<text text-anchor="start" x="206.5" y="-707.5" font-family="Helvetica,sans-Serif" font-size="10.00">&#45;</text>
<text text-anchor="start" x="215" y="-707.5" font-family="Helvetica,sans-Serif" font-size="10.00">isParameterValid()</text>
<text text-anchor="start" x="206.5" y="-693.5" font-family="Helvetica,sans-Serif" font-size="10.00">&#45;</text>
<text text-anchor="start" x="215" y="-693.5" font-family="Helvetica,sans-Serif" font-size="10.00">isParameterMandatory()</text>
<text text-anchor="start" x="206.5" y="-679.5" font-family="Helvetica,sans-Serif" font-size="10.00">&#45;</text>
<text text-anchor="start" x="215" y="-679.5" font-family="Helvetica,sans-Serif" font-size="10.00">isParameterOptional()</text>
<text text-anchor="start" x="206.5" y="-665.5" font-family="Helvetica,sans-Serif" font-size="10.00">&#45;</text>
<text text-anchor="start" x="215" y="-665.5" font-family="Helvetica,sans-Serif" font-size="10.00">checkParameterType()</text>
<text text-anchor="start" x="206.5" y="-651.5" font-family="Helvetica,sans-Serif" font-size="10.00">&#45;</text>
<text text-anchor="start" x="215" y="-651.5" font-family="Helvetica,sans-Serif" font-size="10.00">isValueTypeValid()</text>
<text text-anchor="start" x="206.5" y="-637.5" font-family="Helvetica,sans-Serif" font-size="10.00">&#45;</text>
<text text-anchor="start" x="215" y="-637.5" font-family="Helvetica,sans-Serif" font-size="10.00">checkSimpleValueValidity()</text>
<text text-anchor="start" x="206.5" y="-623.5" font-family="Helvetica,sans-Serif" font-size="10.00">&#45;</text>
<text text-anchor="start" x="215" y="-623.5" font-family="Helvetica,sans-Serif" font-size="10.00">checkVector2DValueValidity()</text>
<text text-anchor="start" x="206.5" y="-609.5" font-family="Helvetica,sans-Serif" font-size="10.00">&#45;</text>
<text text-anchor="start" x="215" y="-609.5" font-family="Helvetica,sans-Serif" font-size="10.00">checkVector3DValueValidity()</text>
<text text-anchor="start" x="206.5" y="-595.5" font-family="Helvetica,sans-Serif" font-size="10.00">&#45;</text>
<text text-anchor="start" x="215" y="-595.5" font-family="Helvetica,sans-Serif" font-size="10.00">checkMandatoryParameters()</text>
<text text-anchor="start" x="206.5" y="-581.5" font-family="Helvetica,sans-Serif" font-size="10.00">&#45;</text>
<text text-anchor="start" x="215" y="-581.5" font-family="Helvetica,sans-Serif" font-size="10.00">checkOptionalParameters()</text>
<text text-anchor="start" x="206.5" y="-567.5" font-family="Helvetica,sans-Serif" font-size="10.00">&#45;</text>
<text text-anchor="start" x="215" y="-567.5" font-family="Helvetica,sans-Serif" font-size="10.00">checkUnknownParameters()</text>
<polygon fill="#bfbfbf" stroke="#bfbfbf" points="201,-901 201,-901 348,-901 348,-901 201,-901"/>
<polygon fill="#bfbfbf" stroke="#bfbfbf" points="201,-873 201,-873 213,-873 213,-873 201,-873"/>
<polygon fill="#bfbfbf" stroke="#bfbfbf" points="213,-873 213,-873 348,-873 348,-873 213,-873"/>
<polygon fill="none" stroke="#bfbfbf" points="201,-563 201,-917 348,-917 348,-563 201,-563"/>
</a>
</g>
</g>
<!-- Node5&#45;&gt;Node4 -->
<g id="edge4_Node000004_Node000005" class="edge">
<title>Node5&#45;&gt;Node4</title>
<g id="a_edge4_Node000004_Node000005"><a xlink:title=" ">
<path fill="none" stroke="#63b8ff" d="M274.5,-563.23C274.5,-551.86 274.5,-540.51 274.5,-529.35"/>
<polygon fill="none" stroke="#63b8ff" points="274.5,-529.25 270.5,-523.25 274.5,-517.25 278.5,-523.25 274.5,-529.25"/>
</a>
</g>
<text text-anchor="middle" x="306.75" y="-535.5" font-family="Helvetica,sans-Serif" font-size="10.00" fill="grey"> &#45;_errorHandler</text>
</g>
</g>
</svg>
