<?xml version="1.0" encoding="UTF-8" standalone="no"?>
<!DOCTYPE svg PUBLIC "-//W3C//DTD SVG 1.1//EN"
 "http://www.w3.org/Graphics/SVG/1.1/DTD/svg11.dtd">
<!-- Generated by graphviz version 9.0.0 (20230911.1827)
 -->
<!-- Title: Rectangle3D Pages: 1 -->
<svg width="94pt" height="399pt"
 viewBox="0.00 0.00 94.00 398.50" xmlns="http://www.w3.org/2000/svg" xmlns:xlink="http://www.w3.org/1999/xlink">
<g id="graph0" class="graph" transform="scale(1 1) rotate(0) translate(4 394.5)">
<title>Rectangle3D</title>
<!-- Node1 -->
<g id="Node000001" class="node">
<title>Node1</title>
<g id="a_Node000001"><a xlink:title=" ">
<polygon fill="#999999" stroke="none" points="86,-130 0,-130 0,0 86,0 86,-130"/>
<text text-anchor="start" x="14.88" y="-116.5" font-family="Helvetica,sans-Serif" font-size="10.00">Rectangle3D</text>
<text text-anchor="start" x="4" y="-102.5" font-family="Helvetica,sans-Serif" font-size="10.00">+</text>
<text text-anchor="start" x="14" y="-102.5" font-family="Helvetica,sans-Serif" font-size="10.00">_bottom_side</text>
<text text-anchor="start" x="4" y="-88.5" font-family="Helvetica,sans-Serif" font-size="10.00">+</text>
<text text-anchor="start" x="14" y="-88.5" font-family="Helvetica,sans-Serif" font-size="10.00">_left_side</text>
<text text-anchor="start" x="4" y="-74.5" font-family="Helvetica,sans-Serif" font-size="10.00">+</text>
<text text-anchor="start" x="14" y="-74.5" font-family="Helvetica,sans-Serif" font-size="10.00">Rectangle3D()</text>
<text text-anchor="start" x="4" y="-60.5" font-family="Helvetica,sans-Serif" font-size="10.00">+</text>
<text text-anchor="start" x="14" y="-60.5" font-family="Helvetica,sans-Serif" font-size="10.00">Rectangle3D()</text>
<text text-anchor="start" x="4" y="-46.5" font-family="Helvetica,sans-Serif" font-size="10.00">+</text>
<text text-anchor="start" x="14" y="-46.5" font-family="Helvetica,sans-Serif" font-size="10.00">~Rectangle3D()</text>
<text text-anchor="start" x="4" y="-32.5" font-family="Helvetica,sans-Serif" font-size="10.00">+</text>
<text text-anchor="start" x="14" y="-32.5" font-family="Helvetica,sans-Serif" font-size="10.00">getWidth()</text>
<text text-anchor="start" x="4" y="-18.5" font-family="Helvetica,sans-Serif" font-size="10.00">+</text>
<text text-anchor="start" x="14" y="-18.5" font-family="Helvetica,sans-Serif" font-size="10.00">getHeight()</text>
<text text-anchor="start" x="4" y="-4.5" font-family="Helvetica,sans-Serif" font-size="10.00">+</text>
<text text-anchor="start" x="14" y="-4.5" font-family="Helvetica,sans-Serif" font-size="10.00">pointAt()</text>
<polygon fill="#666666" stroke="#666666" points="0,-114 0,-114 86,-114 86,-114 0,-114"/>
<polygon fill="#666666" stroke="#666666" points="0,-86 0,-86 12,-86 12,-86 0,-86"/>
<polygon fill="#666666" stroke="#666666" points="12,-86 12,-86 86,-86 86,-86 12,-86"/>
<polygon fill="none" stroke="#666666" points="0,0 0,-130 86,-130 86,0 0,0"/>
</a>
</g>
</g>
<!-- Node2 -->
<g id="Node000002" class="node">
<title>Node2</title>
<g id="a_Node000002"><a xlink:href="classMath_1_1Point3D.html" target="_top" xlink:title=" ">
<polygon fill="white" stroke="none" points="80.5,-390.5 5.5,-390.5 5.5,-176.5 80.5,-176.5 80.5,-390.5"/>
<text text-anchor="start" x="11.5" y="-377" font-family="Helvetica,sans-Serif" font-size="10.00">Math::Point3D</text>
<text text-anchor="start" x="11" y="-363" font-family="Helvetica,sans-Serif" font-size="10.00">&#45;</text>
<text text-anchor="start" x="19.5" y="-363" font-family="Helvetica,sans-Serif" font-size="10.00">x</text>
<text text-anchor="start" x="11" y="-349" font-family="Helvetica,sans-Serif" font-size="10.00">&#45;</text>
<text text-anchor="start" x="19.5" y="-349" font-family="Helvetica,sans-Serif" font-size="10.00">y</text>
<text text-anchor="start" x="11" y="-335" font-family="Helvetica,sans-Serif" font-size="10.00">&#45;</text>
<text text-anchor="start" x="19.5" y="-335" font-family="Helvetica,sans-Serif" font-size="10.00">z</text>
<text text-anchor="start" x="9.5" y="-321" font-family="Helvetica,sans-Serif" font-size="10.00">+</text>
<text text-anchor="start" x="19.5" y="-321" font-family="Helvetica,sans-Serif" font-size="10.00">Point3D()</text>
<text text-anchor="start" x="9.5" y="-307" font-family="Helvetica,sans-Serif" font-size="10.00">+</text>
<text text-anchor="start" x="19.5" y="-307" font-family="Helvetica,sans-Serif" font-size="10.00">Point3D()</text>
<text text-anchor="start" x="9.5" y="-293" font-family="Helvetica,sans-Serif" font-size="10.00">+</text>
<text text-anchor="start" x="19.5" y="-293" font-family="Helvetica,sans-Serif" font-size="10.00">~Point3D()</text>
<text text-anchor="start" x="9.5" y="-279" font-family="Helvetica,sans-Serif" font-size="10.00">+</text>
<text text-anchor="start" x="19.5" y="-279" font-family="Helvetica,sans-Serif" font-size="10.00">getX()</text>
<text text-anchor="start" x="9.5" y="-265" font-family="Helvetica,sans-Serif" font-size="10.00">+</text>
<text text-anchor="start" x="19.5" y="-265" font-family="Helvetica,sans-Serif" font-size="10.00">getY()</text>
<text text-anchor="start" x="9.5" y="-251" font-family="Helvetica,sans-Serif" font-size="10.00">+</text>
<text text-anchor="start" x="19.5" y="-251" font-family="Helvetica,sans-Serif" font-size="10.00">getZ()</text>
<text text-anchor="start" x="9.5" y="-237" font-family="Helvetica,sans-Serif" font-size="10.00">+</text>
<text text-anchor="start" x="19.5" y="-237" font-family="Helvetica,sans-Serif" font-size="10.00">setX()</text>
<text text-anchor="start" x="9.5" y="-223" font-family="Helvetica,sans-Serif" font-size="10.00">+</text>
<text text-anchor="start" x="19.5" y="-223" font-family="Helvetica,sans-Serif" font-size="10.00">setY()</text>
<text text-anchor="start" x="9.5" y="-209" font-family="Helvetica,sans-Serif" font-size="10.00">+</text>
<text text-anchor="start" x="19.5" y="-209" font-family="Helvetica,sans-Serif" font-size="10.00">setZ()</text>
<text text-anchor="start" x="9.5" y="-195" font-family="Helvetica,sans-Serif" font-size="10.00">+</text>
<text text-anchor="start" x="19.5" y="-195" font-family="Helvetica,sans-Serif" font-size="10.00">normalize()</text>
<text text-anchor="start" x="19.12" y="-181" font-family="Helvetica,sans-Serif" font-size="10.00">and 9 more...</text>
<polygon fill="#bfbfbf" stroke="#bfbfbf" points="5.5,-374.5 5.5,-374.5 80.5,-374.5 80.5,-374.5 5.5,-374.5"/>
<polygon fill="#bfbfbf" stroke="#bfbfbf" points="5.5,-332.5 5.5,-332.5 17.5,-332.5 17.5,-332.5 5.5,-332.5"/>
<polygon fill="#bfbfbf" stroke="#bfbfbf" points="17.5,-332.5 17.5,-332.5 80.5,-332.5 80.5,-332.5 17.5,-332.5"/>
<polygon fill="none" stroke="#bfbfbf" points="5.5,-176.5 5.5,-390.5 80.5,-390.5 80.5,-176.5 5.5,-176.5"/>
</a>
</g>
</g>
<!-- Node2&#45;&gt;Node1 -->
<g id="edge1_Node000001_Node000002" class="edge">
<title>Node2&#45;&gt;Node1</title>
<g id="a_edge1_Node000001_Node000002"><a xlink:title=" ">
<path fill="none" stroke="#63b8ff" d="M43,-176.79C43,-165.29 43,-153.76 43,-142.71"/>
<polygon fill="none" stroke="#63b8ff" points="43,-142.88 39,-136.88 43,-130.88 47,-136.88 43,-142.88"/>
</a>
</g>
<text text-anchor="middle" x="61.75" y="-149" font-family="Helvetica,sans-Serif" font-size="10.00" fill="grey"> +_origin</text>
</g>
</g>
</svg>
