<?xml version="1.0" encoding="UTF-8" standalone="no"?>
<!DOCTYPE svg PUBLIC "-//W3C//DTD SVG 1.1//EN"
 "http://www.w3.org/Graphics/SVG/1.1/DTD/svg11.dtd">
<!-- Generated by graphviz version 9.0.0 (20230911.1827)
 -->
<!-- Title: ConfigParser Pages: 1 -->
<svg width="107pt" height="152pt"
 viewBox="0.00 0.00 107.00 152.00" xmlns="http://www.w3.org/2000/svg" xmlns:xlink="http://www.w3.org/1999/xlink">
<g id="graph0" class="graph" transform="scale(1 1) rotate(0) translate(4 148)">
<title>ConfigParser</title>
<!-- Node1 -->
<g id="Node000001" class="node">
<title>Node1</title>
<g id="a_Node000001"><a xlink:title=" ">
<polygon fill="#999999" stroke="none" points="99,-144 0,-144 0,0 99,0 99,-144"/>
<text text-anchor="start" x="20.62" y="-130.5" font-family="Helvetica,sans-Serif" font-size="10.00">ConfigParser</text>
<text text-anchor="start" x="5.5" y="-116.5" font-family="Helvetica,sans-Serif" font-size="10.00">&#45;</text>
<text text-anchor="start" x="14" y="-116.5" font-family="Helvetica,sans-Serif" font-size="10.00">file</text>
<text text-anchor="start" x="4" y="-102.5" font-family="Helvetica,sans-Serif" font-size="10.00">+</text>
<text text-anchor="start" x="14" y="-102.5" font-family="Helvetica,sans-Serif" font-size="10.00">ConfigParser()</text>
<text text-anchor="start" x="4" y="-88.5" font-family="Helvetica,sans-Serif" font-size="10.00">+</text>
<text text-anchor="start" x="14" y="-88.5" font-family="Helvetica,sans-Serif" font-size="10.00">~ConfigParser()</text>
<text text-anchor="start" x="4" y="-74.5" font-family="Helvetica,sans-Serif" font-size="10.00">+</text>
<text text-anchor="start" x="14" y="-74.5" font-family="Helvetica,sans-Serif" font-size="10.00">loadConfig()</text>
<text text-anchor="start" x="4.38" y="-60.5" font-family="Helvetica,sans-Serif" font-size="10.00">#</text>
<text text-anchor="start" x="14" y="-60.5" font-family="Helvetica,sans-Serif" font-size="10.00">buildConfigTree()</text>
<text text-anchor="start" x="5.5" y="-46.5" font-family="Helvetica,sans-Serif" font-size="10.00">&#45;</text>
<text text-anchor="start" x="14" y="-46.5" font-family="Helvetica,sans-Serif" font-size="10.00">handleGroupType()</text>
<text text-anchor="start" x="5.5" y="-32.5" font-family="Helvetica,sans-Serif" font-size="10.00">&#45;</text>
<text text-anchor="start" x="14" y="-32.5" font-family="Helvetica,sans-Serif" font-size="10.00">handleArrayType()</text>
<text text-anchor="start" x="5.5" y="-18.5" font-family="Helvetica,sans-Serif" font-size="10.00">&#45;</text>
<text text-anchor="start" x="14" y="-18.5" font-family="Helvetica,sans-Serif" font-size="10.00">handleListType()</text>
<text text-anchor="start" x="5.5" y="-4.5" font-family="Helvetica,sans-Serif" font-size="10.00">&#45;</text>
<text text-anchor="start" x="14" y="-4.5" font-family="Helvetica,sans-Serif" font-size="10.00">handleValueType()</text>
<polygon fill="#666666" stroke="#666666" points="0,-128 0,-128 99,-128 99,-128 0,-128"/>
<polygon fill="#666666" stroke="#666666" points="0,-114 0,-114 12,-114 12,-114 0,-114"/>
<polygon fill="#666666" stroke="#666666" points="12,-114 12,-114 99,-114 99,-114 12,-114"/>
<polygon fill="none" stroke="#666666" points="0,0 0,-144 99,-144 99,0 0,0"/>
</a>
</g>
</g>
</g>
</svg>
