<?xml version="1.0" encoding="UTF-8" standalone="no"?>
<!DOCTYPE svg PUBLIC "-//W3C//DTD SVG 1.1//EN"
 "http://www.w3.org/Graphics/SVG/1.1/DTD/svg11.dtd">
<!-- Generated by graphviz version 9.0.0 (20230911.1827)
 -->
<!-- Title: IFactory&lt; T &gt; Pages: 1 -->
<svg width="96pt" height="96pt"
 viewBox="0.00 0.00 96.00 96.00" xmlns="http://www.w3.org/2000/svg" xmlns:xlink="http://www.w3.org/1999/xlink">
<g id="graph0" class="graph" transform="scale(1 1) rotate(0) translate(4 92)">
<title>IFactory&lt; T &gt;</title>
<!-- Node1 -->
<g id="Node000001" class="node">
<title>Node1</title>
<g id="a_Node000001"><a xlink:title=" ">
<polygon fill="#999999" stroke="none" points="88,-88 0,-88 0,0 88,0 88,-88"/>
<text text-anchor="start" x="13.62" y="-74.5" font-family="Helvetica,sans-Serif" font-size="10.00">IFactory&lt; T &gt;</text>
<text text-anchor="start" x="42.5" y="-60.5" font-family="Helvetica,sans-Serif" font-size="10.00"> </text>
<text text-anchor="start" x="4" y="-46.5" font-family="Helvetica,sans-Serif" font-size="10.00">+</text>
<text text-anchor="start" x="14" y="-46.5" font-family="Helvetica,sans-Serif" font-size="10.00">~IFactory()</text>
<text text-anchor="start" x="4" y="-32.5" font-family="Helvetica,sans-Serif" font-size="10.00">+</text>
<text text-anchor="start" x="14" y="-32.5" font-family="Helvetica,sans-Serif" font-size="10.00">create()</text>
<text text-anchor="start" x="4" y="-18.5" font-family="Helvetica,sans-Serif" font-size="10.00">+</text>
<text text-anchor="start" x="14" y="-18.5" font-family="Helvetica,sans-Serif" font-size="10.00">registerCreator()</text>
<text text-anchor="start" x="4" y="-4.5" font-family="Helvetica,sans-Serif" font-size="10.00">+</text>
<text text-anchor="start" x="14" y="-4.5" font-family="Helvetica,sans-Serif" font-size="10.00">loadPlugin()</text>
<polygon fill="#666666" stroke="#666666" points="0,-72 0,-72 88,-72 88,-72 0,-72"/>
<polygon fill="#666666" stroke="#666666" points="0,-58 0,-58 88,-58 88,-58 0,-58"/>
<polygon fill="none" stroke="#666666" points="0,0 0,-88 88,-88 88,0 0,0"/>
</a>
</g>
</g>
</g>
</svg>
