<?xml version="1.0" encoding="UTF-8" standalone="no"?>
<!DOCTYPE svg PUBLIC "-//W3C//DTD SVG 1.1//EN"
 "http://www.w3.org/Graphics/SVG/1.1/DTD/svg11.dtd">
<!-- Generated by graphviz version 9.0.0 (20230911.1827)
 -->
<!-- Title: AException Pages: 1 -->
<svg width="129pt" height="358pt"
 viewBox="0.00 0.00 129.00 358.00" xmlns="http://www.w3.org/2000/svg" xmlns:xlink="http://www.w3.org/1999/xlink">
<g id="graph0" class="graph" transform="scale(1 1) rotate(0) translate(4 354)">
<title>AException</title>
<!-- Node1 -->
<g id="Node000001" class="node">
<title>Node1</title>
<g id="a_Node000001"><a xlink:title=" ">
<polygon fill="#999999" stroke="none" points="121,-130 0,-130 0,0 121,0 121,-130"/>
<text text-anchor="start" x="35.75" y="-116.5" font-family="Helvetica,sans-Serif" font-size="10.00">AException</text>
<text text-anchor="start" x="5.5" y="-102.5" font-family="Helvetica,sans-Serif" font-size="10.00">&#45;</text>
<text text-anchor="start" x="14" y="-102.5" font-family="Helvetica,sans-Serif" font-size="10.00">_message</text>
<text text-anchor="start" x="5.5" y="-88.5" font-family="Helvetica,sans-Serif" font-size="10.00">&#45;</text>
<text text-anchor="start" x="14" y="-88.5" font-family="Helvetica,sans-Serif" font-size="10.00">_type</text>
<text text-anchor="start" x="4" y="-74.5" font-family="Helvetica,sans-Serif" font-size="10.00">+</text>
<text text-anchor="start" x="14" y="-74.5" font-family="Helvetica,sans-Serif" font-size="10.00">AException()</text>
<text text-anchor="start" x="4" y="-60.5" font-family="Helvetica,sans-Serif" font-size="10.00">+</text>
<text text-anchor="start" x="14" y="-60.5" font-family="Helvetica,sans-Serif" font-size="10.00">~AException()</text>
<text text-anchor="start" x="4" y="-46.5" font-family="Helvetica,sans-Serif" font-size="10.00">+</text>
<text text-anchor="start" x="14" y="-46.5" font-family="Helvetica,sans-Serif" font-size="10.00">what()</text>
<text text-anchor="start" x="4" y="-32.5" font-family="Helvetica,sans-Serif" font-size="10.00">+</text>
<text text-anchor="start" x="14" y="-32.5" font-family="Helvetica,sans-Serif" font-size="10.00">getType()</text>
<text text-anchor="start" x="4" y="-18.5" font-family="Helvetica,sans-Serif" font-size="10.00">+</text>
<text text-anchor="start" x="14" y="-18.5" font-family="Helvetica,sans-Serif" font-size="10.00">getMessage()</text>
<text text-anchor="start" x="4" y="-4.5" font-family="Helvetica,sans-Serif" font-size="10.00">+</text>
<text text-anchor="start" x="14" y="-4.5" font-family="Helvetica,sans-Serif" font-size="10.00">getFormattedMessage()</text>
<polygon fill="#666666" stroke="#666666" points="0,-114 0,-114 121,-114 121,-114 0,-114"/>
<polygon fill="#666666" stroke="#666666" points="0,-86 0,-86 12,-86 12,-86 0,-86"/>
<polygon fill="#666666" stroke="#666666" points="12,-86 12,-86 121,-86 121,-86 12,-86"/>
<polygon fill="none" stroke="#666666" points="0,0 0,-130 121,-130 121,0 0,0"/>
</a>
</g>
</g>
<!-- Node2 -->
<g id="Node000002" class="node">
<title>Node2</title>
<g id="a_Node000002"><a xlink:href="classIException.html" target="_top" xlink:title=" ">
<polygon fill="white" stroke="none" points="121,-268 0,-268 0,-166 121,-166 121,-268"/>
<text text-anchor="start" x="37.62" y="-254.5" font-family="Helvetica,sans-Serif" font-size="10.00">IException</text>
<text text-anchor="start" x="59" y="-240.5" font-family="Helvetica,sans-Serif" font-size="10.00"> </text>
<text text-anchor="start" x="4" y="-226.5" font-family="Helvetica,sans-Serif" font-size="10.00">+</text>
<text text-anchor="start" x="14" y="-226.5" font-family="Helvetica,sans-Serif" font-size="10.00">~IException()</text>
<text text-anchor="start" x="4" y="-212.5" font-family="Helvetica,sans-Serif" font-size="10.00">+</text>
<text text-anchor="start" x="14" y="-212.5" font-family="Helvetica,sans-Serif" font-size="10.00">what()</text>
<text text-anchor="start" x="4" y="-198.5" font-family="Helvetica,sans-Serif" font-size="10.00">+</text>
<text text-anchor="start" x="14" y="-198.5" font-family="Helvetica,sans-Serif" font-size="10.00">getType()</text>
<text text-anchor="start" x="4" y="-184.5" font-family="Helvetica,sans-Serif" font-size="10.00">+</text>
<text text-anchor="start" x="14" y="-184.5" font-family="Helvetica,sans-Serif" font-size="10.00">getMessage()</text>
<text text-anchor="start" x="4" y="-170.5" font-family="Helvetica,sans-Serif" font-size="10.00">+</text>
<text text-anchor="start" x="14" y="-170.5" font-family="Helvetica,sans-Serif" font-size="10.00">getFormattedMessage()</text>
<polygon fill="#bfbfbf" stroke="#bfbfbf" points="0,-252 0,-252 121,-252 121,-252 0,-252"/>
<polygon fill="#bfbfbf" stroke="#bfbfbf" points="0,-238 0,-238 121,-238 121,-238 0,-238"/>
<polygon fill="none" stroke="#bfbfbf" points="0,-166 0,-268 121,-268 121,-166 0,-166"/>
</a>
</g>
</g>
<!-- Node2&#45;&gt;Node1 -->
<g id="edge1_Node000001_Node000002" class="edge">
<title>Node2&#45;&gt;Node1</title>
<g id="a_edge1_Node000001_Node000002"><a xlink:title=" ">
<path fill="none" stroke="#63b8ff" d="M60.5,-154.68C60.5,-146.5 60.5,-138.09 60.5,-129.87"/>
<polygon fill="none" stroke="#63b8ff" points="57,-154.54 60.5,-164.54 64,-154.54 57,-154.54"/>
</a>
</g>
</g>
<!-- Node3 -->
<g id="Node000003" class="node">
<title>Node3</title>
<g id="a_Node000003"><a xlink:title=" ">
<polygon fill="white" stroke="none" points="95.5,-350 25.5,-350 25.5,-304 95.5,-304 95.5,-350"/>
<text text-anchor="start" x="30.12" y="-336.5" font-family="Helvetica,sans-Serif" font-size="10.00">std::exception</text>
<text text-anchor="start" x="59" y="-322.5" font-family="Helvetica,sans-Serif" font-size="10.00"> </text>
<text text-anchor="start" x="59" y="-308.5" font-family="Helvetica,sans-Serif" font-size="10.00"> </text>
<polygon fill="#bfbfbf" stroke="#bfbfbf" points="25.5,-334 25.5,-334 95.5,-334 95.5,-334 25.5,-334"/>
<polygon fill="#bfbfbf" stroke="#bfbfbf" points="25.5,-320 25.5,-320 95.5,-320 95.5,-320 25.5,-320"/>
<polygon fill="none" stroke="#bfbfbf" points="25.5,-304 25.5,-350 95.5,-350 95.5,-304 25.5,-304"/>
</a>
</g>
</g>
<!-- Node3&#45;&gt;Node2 -->
<g id="edge2_Node000002_Node000003" class="edge">
<title>Node3&#45;&gt;Node2</title>
<g id="a_edge2_Node000002_Node000003"><a xlink:title=" ">
<path fill="none" stroke="#63b8ff" d="M60.5,-292.83C60.5,-284.95 60.5,-276.38 60.5,-267.93"/>
<polygon fill="none" stroke="#63b8ff" points="57,-292.63 60.5,-302.63 64,-292.63 57,-292.63"/>
</a>
</g>
</g>
</g>
</svg>
