<?xml version="1.0" encoding="UTF-8" standalone="no"?>
<!DOCTYPE svg PUBLIC "-//W3C//DTD SVG 1.1//EN"
 "http://www.w3.org/Graphics/SVG/1.1/DTD/svg11.dtd">
<!-- Generated by graphviz version 9.0.0 (20230911.1827)
 -->
<!-- Title: Vector2D Pages: 1 -->
<svg width="78pt" height="152pt"
 viewBox="0.00 0.00 78.00 152.00" xmlns="http://www.w3.org/2000/svg" xmlns:xlink="http://www.w3.org/1999/xlink">
<g id="graph0" class="graph" transform="scale(1 1) rotate(0) translate(4 148)">
<title>Vector2D</title>
<!-- Node1 -->
<g id="Node000001" class="node">
<title>Node1</title>
<g id="a_Node000001"><a xlink:title=" ">
<polygon fill="#999999" stroke="none" points="70,-144 0,-144 0,0 70,0 70,-144"/>
<text text-anchor="start" x="14.75" y="-130.5" font-family="Helvetica,sans-Serif" font-size="10.00">Vector2D</text>
<text text-anchor="start" x="5.5" y="-116.5" font-family="Helvetica,sans-Serif" font-size="10.00">&#45;</text>
<text text-anchor="start" x="14" y="-116.5" font-family="Helvetica,sans-Serif" font-size="10.00">_x</text>
<text text-anchor="start" x="5.5" y="-102.5" font-family="Helvetica,sans-Serif" font-size="10.00">&#45;</text>
<text text-anchor="start" x="14" y="-102.5" font-family="Helvetica,sans-Serif" font-size="10.00">_y</text>
<text text-anchor="start" x="4" y="-88.5" font-family="Helvetica,sans-Serif" font-size="10.00">+</text>
<text text-anchor="start" x="14" y="-88.5" font-family="Helvetica,sans-Serif" font-size="10.00">Vector2D()</text>
<text text-anchor="start" x="4" y="-74.5" font-family="Helvetica,sans-Serif" font-size="10.00">+</text>
<text text-anchor="start" x="14" y="-74.5" font-family="Helvetica,sans-Serif" font-size="10.00">Vector2D()</text>
<text text-anchor="start" x="4" y="-60.5" font-family="Helvetica,sans-Serif" font-size="10.00">+</text>
<text text-anchor="start" x="14" y="-60.5" font-family="Helvetica,sans-Serif" font-size="10.00">~Vector2D()</text>
<text text-anchor="start" x="4" y="-46.5" font-family="Helvetica,sans-Serif" font-size="10.00">+</text>
<text text-anchor="start" x="14" y="-46.5" font-family="Helvetica,sans-Serif" font-size="10.00">getX()</text>
<text text-anchor="start" x="4" y="-32.5" font-family="Helvetica,sans-Serif" font-size="10.00">+</text>
<text text-anchor="start" x="14" y="-32.5" font-family="Helvetica,sans-Serif" font-size="10.00">getY()</text>
<text text-anchor="start" x="4" y="-18.5" font-family="Helvetica,sans-Serif" font-size="10.00">+</text>
<text text-anchor="start" x="14" y="-18.5" font-family="Helvetica,sans-Serif" font-size="10.00">setX()</text>
<text text-anchor="start" x="4" y="-4.5" font-family="Helvetica,sans-Serif" font-size="10.00">+</text>
<text text-anchor="start" x="14" y="-4.5" font-family="Helvetica,sans-Serif" font-size="10.00">setY()</text>
<polygon fill="#666666" stroke="#666666" points="0,-128 0,-128 70,-128 70,-128 0,-128"/>
<polygon fill="#666666" stroke="#666666" points="0,-100 0,-100 12,-100 12,-100 0,-100"/>
<polygon fill="#666666" stroke="#666666" points="12,-100 12,-100 70,-100 70,-100 12,-100"/>
<polygon fill="none" stroke="#666666" points="0,0 0,-144 70,-144 70,0 0,0"/>
</a>
</g>
</g>
</g>
</svg>
