<?xml version="1.0" encoding="UTF-8" standalone="no"?>
<!DOCTYPE svg PUBLIC "-//W3C//DTD SVG 1.1//EN"
 "http://www.w3.org/Graphics/SVG/1.1/DTD/svg11.dtd">
<!-- Generated by graphviz version 9.0.0 (20230911.1827)
 -->
<!-- Title: IException Pages: 1 -->
<svg width="808pt" height="440pt"
 viewBox="0.00 0.00 808.00 440.00" xmlns="http://www.w3.org/2000/svg" xmlns:xlink="http://www.w3.org/1999/xlink">
<g id="graph0" class="graph" transform="scale(1 1) rotate(0) translate(4 436)">
<title>IException</title>
<!-- Node1 -->
<g id="Node000001" class="node">
<title>Node1</title>
<g id="a_Node000001"><a xlink:title=" ">
<polygon fill="#999999" stroke="none" points="457.5,-350 336.5,-350 336.5,-248 457.5,-248 457.5,-350"/>
<text text-anchor="start" x="374.12" y="-336.5" font-family="Helvetica,sans-Serif" font-size="10.00">IException</text>
<text text-anchor="start" x="395.5" y="-322.5" font-family="Helvetica,sans-Serif" font-size="10.00"> </text>
<text text-anchor="start" x="340.5" y="-308.5" font-family="Helvetica,sans-Serif" font-size="10.00">+</text>
<text text-anchor="start" x="350.5" y="-308.5" font-family="Helvetica,sans-Serif" font-size="10.00">~IException()</text>
<text text-anchor="start" x="340.5" y="-294.5" font-family="Helvetica,sans-Serif" font-size="10.00">+</text>
<text text-anchor="start" x="350.5" y="-294.5" font-family="Helvetica,sans-Serif" font-size="10.00">what()</text>
<text text-anchor="start" x="340.5" y="-280.5" font-family="Helvetica,sans-Serif" font-size="10.00">+</text>
<text text-anchor="start" x="350.5" y="-280.5" font-family="Helvetica,sans-Serif" font-size="10.00">getType()</text>
<text text-anchor="start" x="340.5" y="-266.5" font-family="Helvetica,sans-Serif" font-size="10.00">+</text>
<text text-anchor="start" x="350.5" y="-266.5" font-family="Helvetica,sans-Serif" font-size="10.00">getMessage()</text>
<text text-anchor="start" x="340.5" y="-252.5" font-family="Helvetica,sans-Serif" font-size="10.00">+</text>
<text text-anchor="start" x="350.5" y="-252.5" font-family="Helvetica,sans-Serif" font-size="10.00">getFormattedMessage()</text>
<polygon fill="#666666" stroke="#666666" points="336.5,-334 336.5,-334 457.5,-334 457.5,-334 336.5,-334"/>
<polygon fill="#666666" stroke="#666666" points="336.5,-320 336.5,-320 457.5,-320 457.5,-320 336.5,-320"/>
<polygon fill="none" stroke="#666666" points="336.5,-248 336.5,-350 457.5,-350 457.5,-248 336.5,-248"/>
</a>
</g>
</g>
<!-- Node3 -->
<g id="Node000003" class="node">
<title>Node3</title>
<g id="a_Node000003"><a xlink:href="classAException.html" target="_top" xlink:title=" ">
<polygon fill="white" stroke="none" points="457.5,-212 336.5,-212 336.5,-82 457.5,-82 457.5,-212"/>
<text text-anchor="start" x="372.25" y="-198.5" font-family="Helvetica,sans-Serif" font-size="10.00">AException</text>
<text text-anchor="start" x="342" y="-184.5" font-family="Helvetica,sans-Serif" font-size="10.00">&#45;</text>
<text text-anchor="start" x="350.5" y="-184.5" font-family="Helvetica,sans-Serif" font-size="10.00">_message</text>
<text text-anchor="start" x="342" y="-170.5" font-family="Helvetica,sans-Serif" font-size="10.00">&#45;</text>
<text text-anchor="start" x="350.5" y="-170.5" font-family="Helvetica,sans-Serif" font-size="10.00">_type</text>
<text text-anchor="start" x="340.5" y="-156.5" font-family="Helvetica,sans-Serif" font-size="10.00">+</text>
<text text-anchor="start" x="350.5" y="-156.5" font-family="Helvetica,sans-Serif" font-size="10.00">AException()</text>
<text text-anchor="start" x="340.5" y="-142.5" font-family="Helvetica,sans-Serif" font-size="10.00">+</text>
<text text-anchor="start" x="350.5" y="-142.5" font-family="Helvetica,sans-Serif" font-size="10.00">~AException()</text>
<text text-anchor="start" x="340.5" y="-128.5" font-family="Helvetica,sans-Serif" font-size="10.00">+</text>
<text text-anchor="start" x="350.5" y="-128.5" font-family="Helvetica,sans-Serif" font-size="10.00">what()</text>
<text text-anchor="start" x="340.5" y="-114.5" font-family="Helvetica,sans-Serif" font-size="10.00">+</text>
<text text-anchor="start" x="350.5" y="-114.5" font-family="Helvetica,sans-Serif" font-size="10.00">getType()</text>
<text text-anchor="start" x="340.5" y="-100.5" font-family="Helvetica,sans-Serif" font-size="10.00">+</text>
<text text-anchor="start" x="350.5" y="-100.5" font-family="Helvetica,sans-Serif" font-size="10.00">getMessage()</text>
<text text-anchor="start" x="340.5" y="-86.5" font-family="Helvetica,sans-Serif" font-size="10.00">+</text>
<text text-anchor="start" x="350.5" y="-86.5" font-family="Helvetica,sans-Serif" font-size="10.00">getFormattedMessage()</text>
<polygon fill="#bfbfbf" stroke="#bfbfbf" points="336.5,-196 336.5,-196 457.5,-196 457.5,-196 336.5,-196"/>
<polygon fill="#bfbfbf" stroke="#bfbfbf" points="336.5,-168 336.5,-168 348.5,-168 348.5,-168 336.5,-168"/>
<polygon fill="#bfbfbf" stroke="#bfbfbf" points="348.5,-168 348.5,-168 457.5,-168 457.5,-168 348.5,-168"/>
<polygon fill="none" stroke="#bfbfbf" points="336.5,-82 336.5,-212 457.5,-212 457.5,-82 336.5,-82"/>
</a>
</g>
</g>
<!-- Node1&#45;&gt;Node3 -->
<g id="edge2_Node000001_Node000003" class="edge">
<title>Node1&#45;&gt;Node3</title>
<g id="a_edge2_Node000001_Node000003"><a xlink:title=" ">
<path fill="none" stroke="#63b8ff" d="M397,-236.68C397,-228.5 397,-220.09 397,-211.87"/>
<polygon fill="none" stroke="#63b8ff" points="393.5,-236.54 397,-246.54 400.5,-236.54 393.5,-236.54"/>
</a>
</g>
</g>
<!-- Node2 -->
<g id="Node000002" class="node">
<title>Node2</title>
<g id="a_Node000002"><a xlink:title=" ">
<polygon fill="white" stroke="none" points="432,-432 362,-432 362,-386 432,-386 432,-432"/>
<text text-anchor="start" x="366.62" y="-418.5" font-family="Helvetica,sans-Serif" font-size="10.00">std::exception</text>
<text text-anchor="start" x="395.5" y="-404.5" font-family="Helvetica,sans-Serif" font-size="10.00"> </text>
<text text-anchor="start" x="395.5" y="-390.5" font-family="Helvetica,sans-Serif" font-size="10.00"> </text>
<polygon fill="#bfbfbf" stroke="#bfbfbf" points="362,-416 362,-416 432,-416 432,-416 362,-416"/>
<polygon fill="#bfbfbf" stroke="#bfbfbf" points="362,-402 362,-402 432,-402 432,-402 362,-402"/>
<polygon fill="none" stroke="#bfbfbf" points="362,-386 362,-432 432,-432 432,-386 362,-386"/>
</a>
</g>
</g>
<!-- Node2&#45;&gt;Node1 -->
<g id="edge1_Node000001_Node000002" class="edge">
<title>Node2&#45;&gt;Node1</title>
<g id="a_edge1_Node000001_Node000002"><a xlink:title=" ">
<path fill="none" stroke="#63b8ff" d="M397,-374.83C397,-366.95 397,-358.38 397,-349.93"/>
<polygon fill="none" stroke="#63b8ff" points="393.5,-374.63 397,-384.63 400.5,-374.63 393.5,-374.63"/>
</a>
</g>
</g>
<!-- Node4 -->
<g id="Node000004" class="node">
<title>Node4</title>
<g id="a_Node000004"><a xlink:href="classColorException.html" target="_top" xlink:title=" ">
<polygon fill="white" stroke="none" points="90,-46 0,-46 0,0 90,0 90,-46"/>
<text text-anchor="start" x="12" y="-32.5" font-family="Helvetica,sans-Serif" font-size="10.00">ColorException</text>
<text text-anchor="start" x="43.5" y="-18.5" font-family="Helvetica,sans-Serif" font-size="10.00"> </text>
<text text-anchor="start" x="4" y="-4.5" font-family="Helvetica,sans-Serif" font-size="10.00">+</text>
<text text-anchor="start" x="14" y="-4.5" font-family="Helvetica,sans-Serif" font-size="10.00">ColorException()</text>
<polygon fill="#bfbfbf" stroke="#bfbfbf" points="0,-30 0,-30 90,-30 90,-30 0,-30"/>
<polygon fill="#bfbfbf" stroke="#bfbfbf" points="0,-16 0,-16 90,-16 90,-16 0,-16"/>
<polygon fill="none" stroke="#bfbfbf" points="0,0 0,-46 90,-46 90,0 0,0"/>
</a>
</g>
</g>
<!-- Node3&#45;&gt;Node4 -->
<g id="edge3_Node000003_Node000004" class="edge">
<title>Node3&#45;&gt;Node4</title>
<g id="a_edge3_Node000003_Node000004"><a xlink:title=" ">
<path fill="none" stroke="#63b8ff" d="M326.07,-123.59C265.42,-104.1 175.98,-74.57 99,-46 96.06,-44.91 93.04,-43.76 90,-42.58"/>
<polygon fill="none" stroke="#63b8ff" points="324.65,-126.81 335.24,-126.53 326.78,-120.14 324.65,-126.81"/>
</a>
</g>
</g>
<!-- Node5 -->
<g id="Node000005" class="node">
<title>Node5</title>
<g id="a_Node000005"><a xlink:href="classCommandException.html" target="_top" xlink:title=" ">
<polygon fill="white" stroke="none" points="219.5,-46 108.5,-46 108.5,0 219.5,0 219.5,-46"/>
<text text-anchor="start" x="120.12" y="-32.5" font-family="Helvetica,sans-Serif" font-size="10.00">CommandException</text>
<text text-anchor="start" x="162.5" y="-18.5" font-family="Helvetica,sans-Serif" font-size="10.00"> </text>
<text text-anchor="start" x="112.5" y="-4.5" font-family="Helvetica,sans-Serif" font-size="10.00">+</text>
<text text-anchor="start" x="122.5" y="-4.5" font-family="Helvetica,sans-Serif" font-size="10.00">CommandException()</text>
<polygon fill="#bfbfbf" stroke="#bfbfbf" points="108.5,-30 108.5,-30 219.5,-30 219.5,-30 108.5,-30"/>
<polygon fill="#bfbfbf" stroke="#bfbfbf" points="108.5,-16 108.5,-16 219.5,-16 219.5,-16 108.5,-16"/>
<polygon fill="none" stroke="#bfbfbf" points="108.5,0 108.5,-46 219.5,-46 219.5,0 108.5,0"/>
</a>
</g>
</g>
<!-- Node3&#45;&gt;Node5 -->
<g id="edge4_Node000003_Node000005" class="edge">
<title>Node3&#45;&gt;Node5</title>
<g id="a_edge4_Node000003_Node000005"><a xlink:title=" ">
<path fill="none" stroke="#63b8ff" d="M326.59,-109.13C287.12,-88.47 239.24,-63.39 205.69,-45.83"/>
<polygon fill="none" stroke="#63b8ff" points="324.87,-112.18 335.35,-113.72 328.12,-105.98 324.87,-112.18"/>
</a>
</g>
</g>
<!-- Node6 -->
<g id="Node000006" class="node">
<title>Node6</title>
<g id="a_Node000006"><a xlink:href="classFactoryException.html" target="_top" xlink:title=" ">
<polygon fill="white" stroke="none" points="338,-46 238,-46 238,0 338,0 338,-46"/>
<text text-anchor="start" x="249.75" y="-32.5" font-family="Helvetica,sans-Serif" font-size="10.00">FactoryException</text>
<text text-anchor="start" x="286.5" y="-18.5" font-family="Helvetica,sans-Serif" font-size="10.00"> </text>
<text text-anchor="start" x="242" y="-4.5" font-family="Helvetica,sans-Serif" font-size="10.00">+</text>
<text text-anchor="start" x="252" y="-4.5" font-family="Helvetica,sans-Serif" font-size="10.00">FactoryException()</text>
<polygon fill="#bfbfbf" stroke="#bfbfbf" points="238,-30 238,-30 338,-30 338,-30 238,-30"/>
<polygon fill="#bfbfbf" stroke="#bfbfbf" points="238,-16 238,-16 338,-16 338,-16 238,-16"/>
<polygon fill="none" stroke="#bfbfbf" points="238,0 238,-46 338,-46 338,0 238,0"/>
</a>
</g>
</g>
<!-- Node3&#45;&gt;Node6 -->
<g id="edge5_Node000003_Node000006" class="edge">
<title>Node3&#45;&gt;Node6</title>
<g id="a_edge5_Node000003_Node000006"><a xlink:title=" ">
<path fill="none" stroke="#63b8ff" d="M332.35,-73.64C323.39,-63.61 314.81,-54 307.62,-45.96"/>
<polygon fill="none" stroke="#63b8ff" points="329.67,-75.89 338.94,-81.01 334.89,-71.22 329.67,-75.89"/>
</a>
</g>
</g>
<!-- Node7 -->
<g id="Node000007" class="node">
<title>Node7</title>
<g id="a_Node000007"><a xlink:href="classFileException.html" target="_top" xlink:title=" ">
<polygon fill="white" stroke="none" points="438,-46 356,-46 356,0 438,0 438,-46"/>
<text text-anchor="start" x="367.75" y="-32.5" font-family="Helvetica,sans-Serif" font-size="10.00">FileException</text>
<text text-anchor="start" x="395.5" y="-18.5" font-family="Helvetica,sans-Serif" font-size="10.00"> </text>
<text text-anchor="start" x="360" y="-4.5" font-family="Helvetica,sans-Serif" font-size="10.00">+</text>
<text text-anchor="start" x="370" y="-4.5" font-family="Helvetica,sans-Serif" font-size="10.00">FileException()</text>
<polygon fill="#bfbfbf" stroke="#bfbfbf" points="356,-30 356,-30 438,-30 438,-30 356,-30"/>
<polygon fill="#bfbfbf" stroke="#bfbfbf" points="356,-16 356,-16 438,-16 438,-16 356,-16"/>
<polygon fill="none" stroke="#bfbfbf" points="356,0 356,-46 438,-46 438,0 356,0"/>
</a>
</g>
</g>
<!-- Node3&#45;&gt;Node7 -->
<g id="edge6_Node000003_Node000007" class="edge">
<title>Node3&#45;&gt;Node7</title>
<g id="a_edge6_Node000003_Node000007"><a xlink:title=" ">
<path fill="none" stroke="#63b8ff" d="M397,-70.65C397,-61.7 397,-53.2 397,-45.96"/>
<polygon fill="none" stroke="#63b8ff" points="393.5,-70.63 397,-80.63 400.5,-70.63 393.5,-70.63"/>
</a>
</g>
</g>
<!-- Node8 -->
<g id="Node000008" class="node">
<title>Node8</title>
<g id="a_Node000008"><a xlink:href="classMaterialLoaderException.html" target="_top" xlink:title=" ">
<polygon fill="white" stroke="none" points="586,-46 456,-46 456,0 586,0 586,-46"/>
<text text-anchor="start" x="467.75" y="-32.5" font-family="Helvetica,sans-Serif" font-size="10.00">MaterialLoaderException</text>
<text text-anchor="start" x="519.5" y="-18.5" font-family="Helvetica,sans-Serif" font-size="10.00"> </text>
<text text-anchor="start" x="460" y="-4.5" font-family="Helvetica,sans-Serif" font-size="10.00">+</text>
<text text-anchor="start" x="470" y="-4.5" font-family="Helvetica,sans-Serif" font-size="10.00">MaterialLoaderException()</text>
<polygon fill="#bfbfbf" stroke="#bfbfbf" points="456,-30 456,-30 586,-30 586,-30 456,-30"/>
<polygon fill="#bfbfbf" stroke="#bfbfbf" points="456,-16 456,-16 586,-16 586,-16 456,-16"/>
<polygon fill="none" stroke="#bfbfbf" points="456,0 456,-46 586,-46 586,0 456,0"/>
</a>
</g>
</g>
<!-- Node3&#45;&gt;Node8 -->
<g id="edge7_Node000003_Node000008" class="edge">
<title>Node3&#45;&gt;Node8</title>
<g id="a_edge7_Node000003_Node000008"><a xlink:title=" ">
<path fill="none" stroke="#63b8ff" d="M465.16,-78.94C477.26,-67.03 489.04,-55.44 498.64,-46"/>
<polygon fill="none" stroke="#63b8ff" points="462.94,-76.22 458.26,-85.73 467.85,-81.21 462.94,-76.22"/>
</a>
</g>
</g>
<!-- Node9 -->
<g id="Node000009" class="node">
<title>Node9</title>
<g id="a_Node000009"><a xlink:href="classMathExeption.html" target="_top" xlink:title=" ">
<polygon fill="white" stroke="none" points="687.5,-46 604.5,-46 604.5,0 687.5,0 687.5,-46"/>
<text text-anchor="start" x="616.38" y="-32.5" font-family="Helvetica,sans-Serif" font-size="10.00">MathExeption</text>
<text text-anchor="start" x="644.5" y="-18.5" font-family="Helvetica,sans-Serif" font-size="10.00"> </text>
<text text-anchor="start" x="608.5" y="-4.5" font-family="Helvetica,sans-Serif" font-size="10.00">+</text>
<text text-anchor="start" x="618.5" y="-4.5" font-family="Helvetica,sans-Serif" font-size="10.00">MathExeption()</text>
<polygon fill="#bfbfbf" stroke="#bfbfbf" points="604.5,-30 604.5,-30 687.5,-30 687.5,-30 604.5,-30"/>
<polygon fill="#bfbfbf" stroke="#bfbfbf" points="604.5,-16 604.5,-16 687.5,-16 687.5,-16 604.5,-16"/>
<polygon fill="none" stroke="#bfbfbf" points="604.5,0 604.5,-46 687.5,-46 687.5,0 604.5,0"/>
</a>
</g>
</g>
<!-- Node3&#45;&gt;Node9 -->
<g id="edge8_Node000003_Node000009" class="edge">
<title>Node3&#45;&gt;Node9</title>
<g id="a_edge8_Node000003_Node000009"><a xlink:title=" ">
<path fill="none" stroke="#63b8ff" d="M467.4,-111.51C511.68,-89.81 567.28,-62.57 604.58,-44.29"/>
<polygon fill="none" stroke="#63b8ff" points="466.08,-108.26 458.64,-115.8 469.16,-114.54 466.08,-108.26"/>
</a>
</g>
</g>
<!-- Node10 -->
<g id="Node000010" class="node">
<title>Node10</title>
<g id="a_Node000010"><a xlink:href="classSceneException.html" target="_top" xlink:title=" ">
<polygon fill="white" stroke="none" points="800,-46 706,-46 706,0 800,0 800,-46"/>
<text text-anchor="start" x="717.75" y="-32.5" font-family="Helvetica,sans-Serif" font-size="10.00">SceneException</text>
<text text-anchor="start" x="751.5" y="-18.5" font-family="Helvetica,sans-Serif" font-size="10.00"> </text>
<text text-anchor="start" x="710" y="-4.5" font-family="Helvetica,sans-Serif" font-size="10.00">+</text>
<text text-anchor="start" x="720" y="-4.5" font-family="Helvetica,sans-Serif" font-size="10.00">SceneException()</text>
<polygon fill="#bfbfbf" stroke="#bfbfbf" points="706,-30 706,-30 800,-30 800,-30 706,-30"/>
<polygon fill="#bfbfbf" stroke="#bfbfbf" points="706,-16 706,-16 800,-16 800,-16 706,-16"/>
<polygon fill="none" stroke="#bfbfbf" points="706,0 706,-46 800,-46 800,0 706,0"/>
</a>
</g>
</g>
<!-- Node3&#45;&gt;Node10 -->
<g id="edge9_Node000003_Node000010" class="edge">
<title>Node3&#45;&gt;Node10</title>
<g id="a_edge9_Node000003_Node000010"><a xlink:title=" ">
<path fill="none" stroke="#63b8ff" d="M468.04,-123.48C529.06,-103.87 619.22,-74.22 697,-46 699.95,-44.93 702.97,-43.81 706.01,-42.67"/>
<polygon fill="none" stroke="#63b8ff" points="467.26,-120.06 458.81,-126.44 469.4,-126.72 467.26,-120.06"/>
</a>
</g>
</g>
</g>
</svg>
