<?xml version="1.0" encoding="UTF-8" standalone="no"?>
<!DOCTYPE svg PUBLIC "-//W3C//DTD SVG 1.1//EN"
 "http://www.w3.org/Graphics/SVG/1.1/DTD/svg11.dtd">
<!-- Generated by graphviz version 9.0.0 (20230911.1827)
 -->
<!-- Title: IPrimitives Pages: 1 -->
<svg width="362pt" height="722pt"
 viewBox="0.00 0.00 362.00 722.00" xmlns="http://www.w3.org/2000/svg" xmlns:xlink="http://www.w3.org/1999/xlink">
<g id="graph0" class="graph" transform="scale(1 1) rotate(0) translate(4 718)">
<title>IPrimitives</title>
<!-- Node1 -->
<g id="Node000001" class="node">
<title>Node1</title>
<g id="a_Node000001"><a xlink:title=" ">
<polygon fill="#999999" stroke="none" points="236.5,-714 161.5,-714 161.5,-528 236.5,-528 236.5,-714"/>
<text text-anchor="start" x="176.12" y="-700.5" font-family="Helvetica,sans-Serif" font-size="10.00">IPrimitives</text>
<text text-anchor="start" x="197.5" y="-686.5" font-family="Helvetica,sans-Serif" font-size="10.00"> </text>
<text text-anchor="start" x="165.5" y="-672.5" font-family="Helvetica,sans-Serif" font-size="10.00">+</text>
<text text-anchor="start" x="175.5" y="-672.5" font-family="Helvetica,sans-Serif" font-size="10.00">~IPrimitives()</text>
<text text-anchor="start" x="165.5" y="-658.5" font-family="Helvetica,sans-Serif" font-size="10.00">+</text>
<text text-anchor="start" x="175.5" y="-658.5" font-family="Helvetica,sans-Serif" font-size="10.00">distance()</text>
<text text-anchor="start" x="165.5" y="-644.5" font-family="Helvetica,sans-Serif" font-size="10.00">+</text>
<text text-anchor="start" x="175.5" y="-644.5" font-family="Helvetica,sans-Serif" font-size="10.00">getType()</text>
<text text-anchor="start" x="165.5" y="-630.5" font-family="Helvetica,sans-Serif" font-size="10.00">+</text>
<text text-anchor="start" x="175.5" y="-630.5" font-family="Helvetica,sans-Serif" font-size="10.00">getPosition()</text>
<text text-anchor="start" x="165.5" y="-616.5" font-family="Helvetica,sans-Serif" font-size="10.00">+</text>
<text text-anchor="start" x="175.5" y="-616.5" font-family="Helvetica,sans-Serif" font-size="10.00">getRotation()</text>
<text text-anchor="start" x="165.5" y="-602.5" font-family="Helvetica,sans-Serif" font-size="10.00">+</text>
<text text-anchor="start" x="175.5" y="-602.5" font-family="Helvetica,sans-Serif" font-size="10.00">getScale()</text>
<text text-anchor="start" x="165.5" y="-588.5" font-family="Helvetica,sans-Serif" font-size="10.00">+</text>
<text text-anchor="start" x="175.5" y="-588.5" font-family="Helvetica,sans-Serif" font-size="10.00">getMaterial()</text>
<text text-anchor="start" x="165.5" y="-574.5" font-family="Helvetica,sans-Serif" font-size="10.00">+</text>
<text text-anchor="start" x="175.5" y="-574.5" font-family="Helvetica,sans-Serif" font-size="10.00">setPosition()</text>
<text text-anchor="start" x="165.5" y="-560.5" font-family="Helvetica,sans-Serif" font-size="10.00">+</text>
<text text-anchor="start" x="175.5" y="-560.5" font-family="Helvetica,sans-Serif" font-size="10.00">setRotation()</text>
<text text-anchor="start" x="165.5" y="-546.5" font-family="Helvetica,sans-Serif" font-size="10.00">+</text>
<text text-anchor="start" x="175.5" y="-546.5" font-family="Helvetica,sans-Serif" font-size="10.00">setScale()</text>
<text text-anchor="start" x="165.5" y="-532.5" font-family="Helvetica,sans-Serif" font-size="10.00">+</text>
<text text-anchor="start" x="175.5" y="-532.5" font-family="Helvetica,sans-Serif" font-size="10.00">setMaterial()</text>
<polygon fill="#666666" stroke="#666666" points="161.5,-698 161.5,-698 236.5,-698 236.5,-698 161.5,-698"/>
<polygon fill="#666666" stroke="#666666" points="161.5,-684 161.5,-684 236.5,-684 236.5,-684 161.5,-684"/>
<polygon fill="none" stroke="#666666" points="161.5,-528 161.5,-714 236.5,-714 236.5,-528 161.5,-528"/>
</a>
</g>
</g>
<!-- Node2 -->
<g id="Node000002" class="node">
<title>Node2</title>
<g id="a_Node000002"><a xlink:href="classAPrimitives.html" target="_top" xlink:title=" ">
<polygon fill="white" stroke="none" points="239.5,-492 158.5,-492 158.5,-222 239.5,-222 239.5,-492"/>
<text text-anchor="start" x="174.25" y="-478.5" font-family="Helvetica,sans-Serif" font-size="10.00">APrimitives</text>
<text text-anchor="start" x="162.88" y="-464.5" font-family="Helvetica,sans-Serif" font-size="10.00">#</text>
<text text-anchor="start" x="172.5" y="-464.5" font-family="Helvetica,sans-Serif" font-size="10.00">position</text>
<text text-anchor="start" x="162.88" y="-450.5" font-family="Helvetica,sans-Serif" font-size="10.00">#</text>
<text text-anchor="start" x="172.5" y="-450.5" font-family="Helvetica,sans-Serif" font-size="10.00">_rotation</text>
<text text-anchor="start" x="162.88" y="-436.5" font-family="Helvetica,sans-Serif" font-size="10.00">#</text>
<text text-anchor="start" x="172.5" y="-436.5" font-family="Helvetica,sans-Serif" font-size="10.00">scale</text>
<text text-anchor="start" x="162.88" y="-422.5" font-family="Helvetica,sans-Serif" font-size="10.00">#</text>
<text text-anchor="start" x="172.5" y="-422.5" font-family="Helvetica,sans-Serif" font-size="10.00">material</text>
<text text-anchor="start" x="162.88" y="-408.5" font-family="Helvetica,sans-Serif" font-size="10.00">#</text>
<text text-anchor="start" x="172.5" y="-408.5" font-family="Helvetica,sans-Serif" font-size="10.00">_color</text>
<text text-anchor="start" x="162.88" y="-394.5" font-family="Helvetica,sans-Serif" font-size="10.00">#</text>
<text text-anchor="start" x="172.5" y="-394.5" font-family="Helvetica,sans-Serif" font-size="10.00">_scales</text>
<text text-anchor="start" x="162.88" y="-380.5" font-family="Helvetica,sans-Serif" font-size="10.00">#</text>
<text text-anchor="start" x="172.5" y="-380.5" font-family="Helvetica,sans-Serif" font-size="10.00">_graph</text>
<text text-anchor="start" x="162.5" y="-366.5" font-family="Helvetica,sans-Serif" font-size="10.00">+</text>
<text text-anchor="start" x="172.5" y="-366.5" font-family="Helvetica,sans-Serif" font-size="10.00">APrimitives()</text>
<text text-anchor="start" x="162.5" y="-352.5" font-family="Helvetica,sans-Serif" font-size="10.00">+</text>
<text text-anchor="start" x="172.5" y="-352.5" font-family="Helvetica,sans-Serif" font-size="10.00">APrimitives()</text>
<text text-anchor="start" x="162.5" y="-338.5" font-family="Helvetica,sans-Serif" font-size="10.00">+</text>
<text text-anchor="start" x="172.5" y="-338.5" font-family="Helvetica,sans-Serif" font-size="10.00">~APrimitives()</text>
<text text-anchor="start" x="162.5" y="-324.5" font-family="Helvetica,sans-Serif" font-size="10.00">+</text>
<text text-anchor="start" x="172.5" y="-324.5" font-family="Helvetica,sans-Serif" font-size="10.00">distance()</text>
<text text-anchor="start" x="162.5" y="-310.5" font-family="Helvetica,sans-Serif" font-size="10.00">+</text>
<text text-anchor="start" x="172.5" y="-310.5" font-family="Helvetica,sans-Serif" font-size="10.00">getType()</text>
<text text-anchor="start" x="162.5" y="-296.5" font-family="Helvetica,sans-Serif" font-size="10.00">+</text>
<text text-anchor="start" x="172.5" y="-296.5" font-family="Helvetica,sans-Serif" font-size="10.00">getPosition()</text>
<text text-anchor="start" x="162.5" y="-282.5" font-family="Helvetica,sans-Serif" font-size="10.00">+</text>
<text text-anchor="start" x="172.5" y="-282.5" font-family="Helvetica,sans-Serif" font-size="10.00">getRotation()</text>
<text text-anchor="start" x="162.5" y="-268.5" font-family="Helvetica,sans-Serif" font-size="10.00">+</text>
<text text-anchor="start" x="172.5" y="-268.5" font-family="Helvetica,sans-Serif" font-size="10.00">getScale()</text>
<text text-anchor="start" x="162.5" y="-254.5" font-family="Helvetica,sans-Serif" font-size="10.00">+</text>
<text text-anchor="start" x="172.5" y="-254.5" font-family="Helvetica,sans-Serif" font-size="10.00">getMaterial()</text>
<text text-anchor="start" x="162.5" y="-240.5" font-family="Helvetica,sans-Serif" font-size="10.00">+</text>
<text text-anchor="start" x="172.5" y="-240.5" font-family="Helvetica,sans-Serif" font-size="10.00">setPosition()</text>
<text text-anchor="start" x="172.5" y="-226.5" font-family="Helvetica,sans-Serif" font-size="10.00">and 12 more...</text>
<polygon fill="#bfbfbf" stroke="#bfbfbf" points="158.5,-476 158.5,-476 239.5,-476 239.5,-476 158.5,-476"/>
<polygon fill="#bfbfbf" stroke="#bfbfbf" points="158.5,-378 158.5,-378 170.5,-378 170.5,-378 158.5,-378"/>
<polygon fill="#bfbfbf" stroke="#bfbfbf" points="170.5,-378 170.5,-378 239.5,-378 239.5,-378 170.5,-378"/>
<polygon fill="none" stroke="#bfbfbf" points="158.5,-222 158.5,-492 239.5,-492 239.5,-222 158.5,-222"/>
</a>
</g>
</g>
<!-- Node1&#45;&gt;Node2 -->
<g id="edge1_Node000001_Node000002" class="edge">
<title>Node1&#45;&gt;Node2</title>
<g id="a_edge1_Node000001_Node000002"><a xlink:title=" ">
<path fill="none" stroke="#63b8ff" d="M199,-516.89C199,-508.69 199,-500.34 199,-491.97"/>
<polygon fill="none" stroke="#63b8ff" points="195.5,-516.85 199,-526.85 202.5,-516.85 195.5,-516.85"/>
</a>
</g>
</g>
<!-- Node3 -->
<g id="Node000003" class="node">
<title>Node3</title>
<g id="a_Node000003"><a xlink:href="classCone.html" target="_top" xlink:title=" ">
<polygon fill="white" stroke="none" points="90,-186 0,-186 0,0 90,0 90,-186"/>
<text text-anchor="start" x="33.38" y="-172.5" font-family="Helvetica,sans-Serif" font-size="10.00">Cone</text>
<text text-anchor="start" x="5.5" y="-158.5" font-family="Helvetica,sans-Serif" font-size="10.00">&#45;</text>
<text text-anchor="start" x="14" y="-158.5" font-family="Helvetica,sans-Serif" font-size="10.00">_baseRadius</text>
<text text-anchor="start" x="5.5" y="-144.5" font-family="Helvetica,sans-Serif" font-size="10.00">&#45;</text>
<text text-anchor="start" x="14" y="-144.5" font-family="Helvetica,sans-Serif" font-size="10.00">_height</text>
<text text-anchor="start" x="5.5" y="-130.5" font-family="Helvetica,sans-Serif" font-size="10.00">&#45;</text>
<text text-anchor="start" x="14" y="-130.5" font-family="Helvetica,sans-Serif" font-size="10.00">_distance</text>
<text text-anchor="start" x="4" y="-116.5" font-family="Helvetica,sans-Serif" font-size="10.00">+</text>
<text text-anchor="start" x="14" y="-116.5" font-family="Helvetica,sans-Serif" font-size="10.00">Cone()</text>
<text text-anchor="start" x="4" y="-102.5" font-family="Helvetica,sans-Serif" font-size="10.00">+</text>
<text text-anchor="start" x="14" y="-102.5" font-family="Helvetica,sans-Serif" font-size="10.00">Cone()</text>
<text text-anchor="start" x="4" y="-88.5" font-family="Helvetica,sans-Serif" font-size="10.00">+</text>
<text text-anchor="start" x="14" y="-88.5" font-family="Helvetica,sans-Serif" font-size="10.00">~Cone()</text>
<text text-anchor="start" x="4" y="-74.5" font-family="Helvetica,sans-Serif" font-size="10.00">+</text>
<text text-anchor="start" x="14" y="-74.5" font-family="Helvetica,sans-Serif" font-size="10.00">setBaseRadius()</text>
<text text-anchor="start" x="4" y="-60.5" font-family="Helvetica,sans-Serif" font-size="10.00">+</text>
<text text-anchor="start" x="14" y="-60.5" font-family="Helvetica,sans-Serif" font-size="10.00">setHeight()</text>
<text text-anchor="start" x="4" y="-46.5" font-family="Helvetica,sans-Serif" font-size="10.00">+</text>
<text text-anchor="start" x="14" y="-46.5" font-family="Helvetica,sans-Serif" font-size="10.00">distance()</text>
<text text-anchor="start" x="4" y="-32.5" font-family="Helvetica,sans-Serif" font-size="10.00">+</text>
<text text-anchor="start" x="14" y="-32.5" font-family="Helvetica,sans-Serif" font-size="10.00">getBaseRadius()</text>
<text text-anchor="start" x="4" y="-18.5" font-family="Helvetica,sans-Serif" font-size="10.00">+</text>
<text text-anchor="start" x="14" y="-18.5" font-family="Helvetica,sans-Serif" font-size="10.00">getType()</text>
<text text-anchor="start" x="4" y="-4.5" font-family="Helvetica,sans-Serif" font-size="10.00">+</text>
<text text-anchor="start" x="14" y="-4.5" font-family="Helvetica,sans-Serif" font-size="10.00">getHeight()</text>
<polygon fill="#bfbfbf" stroke="#bfbfbf" points="0,-170 0,-170 90,-170 90,-170 0,-170"/>
<polygon fill="#bfbfbf" stroke="#bfbfbf" points="0,-128 0,-128 12,-128 12,-128 0,-128"/>
<polygon fill="#bfbfbf" stroke="#bfbfbf" points="12,-128 12,-128 90,-128 90,-128 12,-128"/>
<polygon fill="none" stroke="#bfbfbf" points="0,0 0,-186 90,-186 90,0 0,0"/>
</a>
</g>
</g>
<!-- Node2&#45;&gt;Node3 -->
<g id="edge2_Node000002_Node000003" class="edge">
<title>Node2&#45;&gt;Node3</title>
<g id="a_edge2_Node000002_Node000003"><a xlink:title=" ">
<path fill="none" stroke="#63b8ff" d="M152.95,-277.74C135.98,-248.91 116.61,-215.97 99,-186 96,-180.89 92.9,-175.62 89.78,-170.31"/>
<polygon fill="none" stroke="#63b8ff" points="149.75,-279.21 157.83,-286.05 155.78,-275.66 149.75,-279.21"/>
</a>
</g>
</g>
<!-- Node4 -->
<g id="Node000004" class="node">
<title>Node4</title>
<g id="a_Node000004"><a xlink:href="classCylinder.html" target="_top" xlink:title=" ">
<polygon fill="white" stroke="none" points="198,-186 108,-186 108,0 198,0 198,-186"/>
<text text-anchor="start" x="135" y="-172.5" font-family="Helvetica,sans-Serif" font-size="10.00">Cylinder</text>
<text text-anchor="start" x="113.5" y="-158.5" font-family="Helvetica,sans-Serif" font-size="10.00">&#45;</text>
<text text-anchor="start" x="122" y="-158.5" font-family="Helvetica,sans-Serif" font-size="10.00">_baseRadius</text>
<text text-anchor="start" x="113.5" y="-144.5" font-family="Helvetica,sans-Serif" font-size="10.00">&#45;</text>
<text text-anchor="start" x="122" y="-144.5" font-family="Helvetica,sans-Serif" font-size="10.00">_height</text>
<text text-anchor="start" x="113.5" y="-130.5" font-family="Helvetica,sans-Serif" font-size="10.00">&#45;</text>
<text text-anchor="start" x="122" y="-130.5" font-family="Helvetica,sans-Serif" font-size="10.00">_distance</text>
<text text-anchor="start" x="112" y="-116.5" font-family="Helvetica,sans-Serif" font-size="10.00">+</text>
<text text-anchor="start" x="122" y="-116.5" font-family="Helvetica,sans-Serif" font-size="10.00">Cylinder()</text>
<text text-anchor="start" x="112" y="-102.5" font-family="Helvetica,sans-Serif" font-size="10.00">+</text>
<text text-anchor="start" x="122" y="-102.5" font-family="Helvetica,sans-Serif" font-size="10.00">Cylinder()</text>
<text text-anchor="start" x="112" y="-88.5" font-family="Helvetica,sans-Serif" font-size="10.00">+</text>
<text text-anchor="start" x="122" y="-88.5" font-family="Helvetica,sans-Serif" font-size="10.00">~Cylinder()</text>
<text text-anchor="start" x="112" y="-74.5" font-family="Helvetica,sans-Serif" font-size="10.00">+</text>
<text text-anchor="start" x="122" y="-74.5" font-family="Helvetica,sans-Serif" font-size="10.00">setBaseRadius()</text>
<text text-anchor="start" x="112" y="-60.5" font-family="Helvetica,sans-Serif" font-size="10.00">+</text>
<text text-anchor="start" x="122" y="-60.5" font-family="Helvetica,sans-Serif" font-size="10.00">setHeight()</text>
<text text-anchor="start" x="112" y="-46.5" font-family="Helvetica,sans-Serif" font-size="10.00">+</text>
<text text-anchor="start" x="122" y="-46.5" font-family="Helvetica,sans-Serif" font-size="10.00">getBaseRadius()</text>
<text text-anchor="start" x="112" y="-32.5" font-family="Helvetica,sans-Serif" font-size="10.00">+</text>
<text text-anchor="start" x="122" y="-32.5" font-family="Helvetica,sans-Serif" font-size="10.00">getHeight()</text>
<text text-anchor="start" x="112" y="-18.5" font-family="Helvetica,sans-Serif" font-size="10.00">+</text>
<text text-anchor="start" x="122" y="-18.5" font-family="Helvetica,sans-Serif" font-size="10.00">getType()</text>
<text text-anchor="start" x="112" y="-4.5" font-family="Helvetica,sans-Serif" font-size="10.00">+</text>
<text text-anchor="start" x="122" y="-4.5" font-family="Helvetica,sans-Serif" font-size="10.00">distance()</text>
<polygon fill="#bfbfbf" stroke="#bfbfbf" points="108,-170 108,-170 198,-170 198,-170 108,-170"/>
<polygon fill="#bfbfbf" stroke="#bfbfbf" points="108,-128 108,-128 120,-128 120,-128 108,-128"/>
<polygon fill="#bfbfbf" stroke="#bfbfbf" points="120,-128 120,-128 198,-128 198,-128 120,-128"/>
<polygon fill="none" stroke="#bfbfbf" points="108,0 108,-186 198,-186 198,0 108,0"/>
</a>
</g>
</g>
<!-- Node2&#45;&gt;Node4 -->
<g id="edge3_Node000002_Node000004" class="edge">
<title>Node2&#45;&gt;Node4</title>
<g id="a_edge3_Node000002_Node000004"><a xlink:title=" ">
<path fill="none" stroke="#63b8ff" d="M173.55,-211.03C172.05,-202.48 170.56,-194.01 169.11,-185.76"/>
<polygon fill="none" stroke="#63b8ff" points="170.09,-211.58 175.27,-220.82 176.98,-210.37 170.09,-211.58"/>
</a>
</g>
</g>
<!-- Node5 -->
<g id="Node000005" class="node">
<title>Node5</title>
<g id="a_Node000005"><a xlink:href="classPlane.html" target="_top" xlink:title=" ">
<polygon fill="white" stroke="none" points="276,-151 216,-151 216,-35 276,-35 276,-151"/>
<text text-anchor="start" x="233.62" y="-137.5" font-family="Helvetica,sans-Serif" font-size="10.00">Plane</text>
<text text-anchor="start" x="221.5" y="-123.5" font-family="Helvetica,sans-Serif" font-size="10.00">&#45;</text>
<text text-anchor="start" x="230" y="-123.5" font-family="Helvetica,sans-Serif" font-size="10.00">_distance</text>
<text text-anchor="start" x="221.5" y="-109.5" font-family="Helvetica,sans-Serif" font-size="10.00">&#45;</text>
<text text-anchor="start" x="230" y="-109.5" font-family="Helvetica,sans-Serif" font-size="10.00">_axe</text>
<text text-anchor="start" x="220" y="-95.5" font-family="Helvetica,sans-Serif" font-size="10.00">+</text>
<text text-anchor="start" x="230" y="-95.5" font-family="Helvetica,sans-Serif" font-size="10.00">Plane()</text>
<text text-anchor="start" x="220" y="-81.5" font-family="Helvetica,sans-Serif" font-size="10.00">+</text>
<text text-anchor="start" x="230" y="-81.5" font-family="Helvetica,sans-Serif" font-size="10.00">Plane()</text>
<text text-anchor="start" x="220" y="-67.5" font-family="Helvetica,sans-Serif" font-size="10.00">+</text>
<text text-anchor="start" x="230" y="-67.5" font-family="Helvetica,sans-Serif" font-size="10.00">~Plane()</text>
<text text-anchor="start" x="220" y="-53.5" font-family="Helvetica,sans-Serif" font-size="10.00">+</text>
<text text-anchor="start" x="230" y="-53.5" font-family="Helvetica,sans-Serif" font-size="10.00">distance()</text>
<text text-anchor="start" x="220" y="-39.5" font-family="Helvetica,sans-Serif" font-size="10.00">+</text>
<text text-anchor="start" x="230" y="-39.5" font-family="Helvetica,sans-Serif" font-size="10.00">getType()</text>
<polygon fill="#bfbfbf" stroke="#bfbfbf" points="216,-135 216,-135 276,-135 276,-135 216,-135"/>
<polygon fill="#bfbfbf" stroke="#bfbfbf" points="216,-107 216,-107 228,-107 228,-107 216,-107"/>
<polygon fill="#bfbfbf" stroke="#bfbfbf" points="228,-107 228,-107 276,-107 276,-107 228,-107"/>
<polygon fill="none" stroke="#bfbfbf" points="216,-35 216,-151 276,-151 276,-35 216,-35"/>
</a>
</g>
</g>
<!-- Node2&#45;&gt;Node5 -->
<g id="edge4_Node000002_Node000005" class="edge">
<title>Node2&#45;&gt;Node5</title>
<g id="a_edge4_Node000002_Node000005"><a xlink:title=" ">
<path fill="none" stroke="#63b8ff" d="M224.99,-211.1C228.83,-189.72 232.58,-168.83 235.82,-150.76"/>
<polygon fill="none" stroke="#63b8ff" points="221.57,-210.36 223.25,-220.82 228.46,-211.6 221.57,-210.36"/>
</a>
</g>
</g>
<!-- Node6 -->
<g id="Node000006" class="node">
<title>Node6</title>
<g id="a_Node000006"><a xlink:href="classSphere.html" target="_top" xlink:title=" ">
<polygon fill="white" stroke="none" points="354,-151 294,-151 294,-35 354,-35 354,-151"/>
<text text-anchor="start" x="308.62" y="-137.5" font-family="Helvetica,sans-Serif" font-size="10.00">Sphere</text>
<text text-anchor="start" x="299.5" y="-123.5" font-family="Helvetica,sans-Serif" font-size="10.00">&#45;</text>
<text text-anchor="start" x="308" y="-123.5" font-family="Helvetica,sans-Serif" font-size="10.00">_distance</text>
<text text-anchor="start" x="299.5" y="-109.5" font-family="Helvetica,sans-Serif" font-size="10.00">&#45;</text>
<text text-anchor="start" x="308" y="-109.5" font-family="Helvetica,sans-Serif" font-size="10.00">radius</text>
<text text-anchor="start" x="298" y="-95.5" font-family="Helvetica,sans-Serif" font-size="10.00">+</text>
<text text-anchor="start" x="308" y="-95.5" font-family="Helvetica,sans-Serif" font-size="10.00">Sphere()</text>
<text text-anchor="start" x="298" y="-81.5" font-family="Helvetica,sans-Serif" font-size="10.00">+</text>
<text text-anchor="start" x="308" y="-81.5" font-family="Helvetica,sans-Serif" font-size="10.00">Sphere()</text>
<text text-anchor="start" x="298" y="-67.5" font-family="Helvetica,sans-Serif" font-size="10.00">+</text>
<text text-anchor="start" x="308" y="-67.5" font-family="Helvetica,sans-Serif" font-size="10.00">~Sphere()</text>
<text text-anchor="start" x="298" y="-53.5" font-family="Helvetica,sans-Serif" font-size="10.00">+</text>
<text text-anchor="start" x="308" y="-53.5" font-family="Helvetica,sans-Serif" font-size="10.00">distance()</text>
<text text-anchor="start" x="298" y="-39.5" font-family="Helvetica,sans-Serif" font-size="10.00">+</text>
<text text-anchor="start" x="308" y="-39.5" font-family="Helvetica,sans-Serif" font-size="10.00">getType()</text>
<polygon fill="#bfbfbf" stroke="#bfbfbf" points="294,-135 294,-135 354,-135 354,-135 294,-135"/>
<polygon fill="#bfbfbf" stroke="#bfbfbf" points="294,-107 294,-107 306,-107 306,-107 294,-107"/>
<polygon fill="#bfbfbf" stroke="#bfbfbf" points="306,-107 306,-107 354,-107 354,-107 306,-107"/>
<polygon fill="none" stroke="#bfbfbf" points="294,-35 294,-151 354,-151 354,-35 294,-35"/>
</a>
</g>
</g>
<!-- Node2&#45;&gt;Node6 -->
<g id="edge5_Node000002_Node000006" class="edge">
<title>Node2&#45;&gt;Node6</title>
<g id="a_edge5_Node000002_Node000006"><a xlink:title=" ">
<path fill="none" stroke="#63b8ff" d="M244.58,-268.71C257.97,-242.31 272.4,-213.13 285,-186 290.26,-174.67 295.65,-162.44 300.67,-150.7"/>
<polygon fill="none" stroke="#63b8ff" points="241.61,-266.83 240.19,-277.33 247.84,-270.01 241.61,-266.83"/>
</a>
</g>
</g>
</g>
</svg>
