<?xml version="1.0" encoding="UTF-8" standalone="no"?>
<!DOCTYPE svg PUBLIC "-//W3C//DTD SVG 1.1//EN"
 "http://www.w3.org/Graphics/SVG/1.1/DTD/svg11.dtd">
<!-- Generated by graphviz version 9.0.0 (20230911.1827)
 -->
<!-- Title: Raytracer Pages: 1 -->
<svg width="393pt" height="567pt"
 viewBox="0.00 0.00 392.50 566.50" xmlns="http://www.w3.org/2000/svg" xmlns:xlink="http://www.w3.org/1999/xlink">
<g id="graph0" class="graph" transform="scale(1 1) rotate(0) translate(4 562.5)">
<title>Raytracer</title>
<!-- Node1 -->
<g id="Node000001" class="node">
<title>Node1</title>
<g id="a_Node000001"><a xlink:title=" ">
<polygon fill="#999999" stroke="none" points="224.5,-256 127.5,-256 127.5,0 224.5,0 224.5,-256"/>
<text text-anchor="start" x="155" y="-242.5" font-family="Helvetica,sans-Serif" font-size="10.00">Raytracer</text>
<text text-anchor="start" x="133" y="-228.5" font-family="Helvetica,sans-Serif" font-size="10.00">&#45;</text>
<text text-anchor="start" x="141.5" y="-228.5" font-family="Helvetica,sans-Serif" font-size="10.00">graphicMode</text>
<text text-anchor="start" x="133" y="-214.5" font-family="Helvetica,sans-Serif" font-size="10.00">&#45;</text>
<text text-anchor="start" x="141.5" y="-214.5" font-family="Helvetica,sans-Serif" font-size="10.00">debugMode</text>
<text text-anchor="start" x="133" y="-200.5" font-family="Helvetica,sans-Serif" font-size="10.00">&#45;</text>
<text text-anchor="start" x="141.5" y="-200.5" font-family="Helvetica,sans-Serif" font-size="10.00">_scenefile</text>
<text text-anchor="start" x="133" y="-186.5" font-family="Helvetica,sans-Serif" font-size="10.00">&#45;</text>
<text text-anchor="start" x="141.5" y="-186.5" font-family="Helvetica,sans-Serif" font-size="10.00">_outputfile</text>
<text text-anchor="start" x="133" y="-172.5" font-family="Helvetica,sans-Serif" font-size="10.00">&#45;</text>
<text text-anchor="start" x="141.5" y="-172.5" font-family="Helvetica,sans-Serif" font-size="10.00">_outputformat</text>
<text text-anchor="start" x="133" y="-158.5" font-family="Helvetica,sans-Serif" font-size="10.00">&#45;</text>
<text text-anchor="start" x="141.5" y="-158.5" font-family="Helvetica,sans-Serif" font-size="10.00">image</text>
<text text-anchor="start" x="131.5" y="-144.5" font-family="Helvetica,sans-Serif" font-size="10.00">+</text>
<text text-anchor="start" x="141.5" y="-144.5" font-family="Helvetica,sans-Serif" font-size="10.00">Raytracer()</text>
<text text-anchor="start" x="131.5" y="-130.5" font-family="Helvetica,sans-Serif" font-size="10.00">+</text>
<text text-anchor="start" x="141.5" y="-130.5" font-family="Helvetica,sans-Serif" font-size="10.00">~Raytracer()</text>
<text text-anchor="start" x="131.5" y="-116.5" font-family="Helvetica,sans-Serif" font-size="10.00">+</text>
<text text-anchor="start" x="141.5" y="-116.5" font-family="Helvetica,sans-Serif" font-size="10.00">getSceneFile()</text>
<text text-anchor="start" x="131.5" y="-102.5" font-family="Helvetica,sans-Serif" font-size="10.00">+</text>
<text text-anchor="start" x="141.5" y="-102.5" font-family="Helvetica,sans-Serif" font-size="10.00">getOutputFile()</text>
<text text-anchor="start" x="131.5" y="-88.5" font-family="Helvetica,sans-Serif" font-size="10.00">+</text>
<text text-anchor="start" x="141.5" y="-88.5" font-family="Helvetica,sans-Serif" font-size="10.00">getOutputFormat()</text>
<text text-anchor="start" x="131.5" y="-74.5" font-family="Helvetica,sans-Serif" font-size="10.00">+</text>
<text text-anchor="start" x="141.5" y="-74.5" font-family="Helvetica,sans-Serif" font-size="10.00">getImage()</text>
<text text-anchor="start" x="131.5" y="-60.5" font-family="Helvetica,sans-Serif" font-size="10.00">+</text>
<text text-anchor="start" x="141.5" y="-60.5" font-family="Helvetica,sans-Serif" font-size="10.00">getGraphicMode()</text>
<text text-anchor="start" x="131.5" y="-46.5" font-family="Helvetica,sans-Serif" font-size="10.00">+</text>
<text text-anchor="start" x="141.5" y="-46.5" font-family="Helvetica,sans-Serif" font-size="10.00">isDebug()</text>
<text text-anchor="start" x="131.5" y="-32.5" font-family="Helvetica,sans-Serif" font-size="10.00">+</text>
<text text-anchor="start" x="141.5" y="-32.5" font-family="Helvetica,sans-Serif" font-size="10.00">getScene()</text>
<text text-anchor="start" x="131.5" y="-18.5" font-family="Helvetica,sans-Serif" font-size="10.00">+</text>
<text text-anchor="start" x="141.5" y="-18.5" font-family="Helvetica,sans-Serif" font-size="10.00">setSceneFile()</text>
<text text-anchor="start" x="141.5" y="-4.5" font-family="Helvetica,sans-Serif" font-size="10.00">and 19 more...</text>
<polygon fill="#666666" stroke="#666666" points="127.5,-240 127.5,-240 224.5,-240 224.5,-240 127.5,-240"/>
<polygon fill="#666666" stroke="#666666" points="127.5,-156 127.5,-156 139.5,-156 139.5,-156 127.5,-156"/>
<polygon fill="#666666" stroke="#666666" points="139.5,-156 139.5,-156 224.5,-156 224.5,-156 139.5,-156"/>
<polygon fill="none" stroke="#666666" points="127.5,0 127.5,-256 224.5,-256 224.5,0 127.5,0"/>
</a>
</g>
</g>
<!-- Node2 -->
<g id="Node000002" class="node">
<title>Node2</title>
<g id="a_Node000002"><a xlink:href="classScene.html" target="_top" xlink:title=" ">
<polygon fill="white" stroke="none" points="90,-516.5 0,-516.5 0,-344.5 90,-344.5 90,-516.5"/>
<text text-anchor="start" x="31.12" y="-503" font-family="Helvetica,sans-Serif" font-size="10.00">Scene</text>
<text text-anchor="start" x="5.5" y="-489" font-family="Helvetica,sans-Serif" font-size="10.00">&#45;</text>
<text text-anchor="start" x="14" y="-489" font-family="Helvetica,sans-Serif" font-size="10.00">_camera</text>
<text text-anchor="start" x="5.5" y="-475" font-family="Helvetica,sans-Serif" font-size="10.00">&#45;</text>
<text text-anchor="start" x="14" y="-475" font-family="Helvetica,sans-Serif" font-size="10.00">_primitives</text>
<text text-anchor="start" x="4" y="-461" font-family="Helvetica,sans-Serif" font-size="10.00">+</text>
<text text-anchor="start" x="14" y="-461" font-family="Helvetica,sans-Serif" font-size="10.00">Scene()</text>
<text text-anchor="start" x="4" y="-447" font-family="Helvetica,sans-Serif" font-size="10.00">+</text>
<text text-anchor="start" x="14" y="-447" font-family="Helvetica,sans-Serif" font-size="10.00">Scene()</text>
<text text-anchor="start" x="4" y="-433" font-family="Helvetica,sans-Serif" font-size="10.00">+</text>
<text text-anchor="start" x="14" y="-433" font-family="Helvetica,sans-Serif" font-size="10.00">~Scene()</text>
<text text-anchor="start" x="4" y="-419" font-family="Helvetica,sans-Serif" font-size="10.00">+</text>
<text text-anchor="start" x="14" y="-419" font-family="Helvetica,sans-Serif" font-size="10.00">getCamera()</text>
<text text-anchor="start" x="4" y="-405" font-family="Helvetica,sans-Serif" font-size="10.00">+</text>
<text text-anchor="start" x="14" y="-405" font-family="Helvetica,sans-Serif" font-size="10.00">getPremitives()</text>
<text text-anchor="start" x="4" y="-391" font-family="Helvetica,sans-Serif" font-size="10.00">+</text>
<text text-anchor="start" x="14" y="-391" font-family="Helvetica,sans-Serif" font-size="10.00">camereaWidth()</text>
<text text-anchor="start" x="4" y="-377" font-family="Helvetica,sans-Serif" font-size="10.00">+</text>
<text text-anchor="start" x="14" y="-377" font-family="Helvetica,sans-Serif" font-size="10.00">camereaHeight()</text>
<text text-anchor="start" x="4" y="-363" font-family="Helvetica,sans-Serif" font-size="10.00">+</text>
<text text-anchor="start" x="14" y="-363" font-family="Helvetica,sans-Serif" font-size="10.00">setCamera()</text>
<text text-anchor="start" x="4" y="-349" font-family="Helvetica,sans-Serif" font-size="10.00">+</text>
<text text-anchor="start" x="14" y="-349" font-family="Helvetica,sans-Serif" font-size="10.00">setPremitives()</text>
<polygon fill="#bfbfbf" stroke="#bfbfbf" points="0,-500.5 0,-500.5 90,-500.5 90,-500.5 0,-500.5"/>
<polygon fill="#bfbfbf" stroke="#bfbfbf" points="0,-472.5 0,-472.5 12,-472.5 12,-472.5 0,-472.5"/>
<polygon fill="#bfbfbf" stroke="#bfbfbf" points="12,-472.5 12,-472.5 90,-472.5 90,-472.5 12,-472.5"/>
<polygon fill="none" stroke="#bfbfbf" points="0,-344.5 0,-516.5 90,-516.5 90,-344.5 0,-344.5"/>
</a>
</g>
</g>
<!-- Node2&#45;&gt;Node1 -->
<g id="edge1_Node000001_Node000002" class="edge">
<title>Node2&#45;&gt;Node1</title>
<g id="a_edge1_Node000001_Node000002"><a xlink:title=" ">
<path fill="none" stroke="#63b8ff" d="M80.83,-344.71C86.86,-330.6 93.08,-316.12 99,-302.5 106.54,-285.14 114.57,-266.85 122.5,-248.9"/>
<polygon fill="none" stroke="#63b8ff" points="122.46,-248.97 121.23,-241.87 127.32,-237.99 128.55,-245.1 122.46,-248.97"/>
</a>
</g>
<text text-anchor="middle" x="130.75" y="-275" font-family="Helvetica,sans-Serif" font-size="10.00" fill="grey"> &#45;_scene</text>
</g>
<!-- Node3 -->
<g id="Node000003" class="node">
<title>Node3</title>
<g id="a_Node000003"><a xlink:href="classFactoryManager.html" target="_top" xlink:title=" ">
<polygon fill="white" stroke="none" points="243.5,-530.5 108.5,-530.5 108.5,-330.5 243.5,-330.5 243.5,-530.5"/>
<text text-anchor="start" x="140.38" y="-517" font-family="Helvetica,sans-Serif" font-size="10.00">FactoryManager</text>
<text text-anchor="start" x="114" y="-503" font-family="Helvetica,sans-Serif" font-size="10.00">&#45;</text>
<text text-anchor="start" x="122.5" y="-503" font-family="Helvetica,sans-Serif" font-size="10.00">_primitiveFactory</text>
<text text-anchor="start" x="114" y="-489" font-family="Helvetica,sans-Serif" font-size="10.00">&#45;</text>
<text text-anchor="start" x="122.5" y="-489" font-family="Helvetica,sans-Serif" font-size="10.00">_cameraFactory</text>
<text text-anchor="start" x="114" y="-475" font-family="Helvetica,sans-Serif" font-size="10.00">&#45;</text>
<text text-anchor="start" x="122.5" y="-475" font-family="Helvetica,sans-Serif" font-size="10.00">_materialLoader</text>
<text text-anchor="start" x="114" y="-461" font-family="Helvetica,sans-Serif" font-size="10.00">&#45;</text>
<text text-anchor="start" x="122.5" y="-461" font-family="Helvetica,sans-Serif" font-size="10.00">_primitives</text>
<text text-anchor="start" x="114" y="-447" font-family="Helvetica,sans-Serif" font-size="10.00">&#45;</text>
<text text-anchor="start" x="122.5" y="-447" font-family="Helvetica,sans-Serif" font-size="10.00">_camera</text>
<text text-anchor="start" x="112.5" y="-433" font-family="Helvetica,sans-Serif" font-size="10.00">+</text>
<text text-anchor="start" x="122.5" y="-433" font-family="Helvetica,sans-Serif" font-size="10.00">FactoryManager()</text>
<text text-anchor="start" x="112.5" y="-419" font-family="Helvetica,sans-Serif" font-size="10.00">+</text>
<text text-anchor="start" x="122.5" y="-419" font-family="Helvetica,sans-Serif" font-size="10.00">~FactoryManager()</text>
<text text-anchor="start" x="112.5" y="-405" font-family="Helvetica,sans-Serif" font-size="10.00">+</text>
<text text-anchor="start" x="122.5" y="-405" font-family="Helvetica,sans-Serif" font-size="10.00">getPrimitiveFactory()</text>
<text text-anchor="start" x="112.5" y="-391" font-family="Helvetica,sans-Serif" font-size="10.00">+</text>
<text text-anchor="start" x="122.5" y="-391" font-family="Helvetica,sans-Serif" font-size="10.00">getCameraFactory()</text>
<text text-anchor="start" x="112.5" y="-377" font-family="Helvetica,sans-Serif" font-size="10.00">+</text>
<text text-anchor="start" x="122.5" y="-377" font-family="Helvetica,sans-Serif" font-size="10.00">initializeFactories()</text>
<text text-anchor="start" x="112.5" y="-363" font-family="Helvetica,sans-Serif" font-size="10.00">+</text>
<text text-anchor="start" x="122.5" y="-363" font-family="Helvetica,sans-Serif" font-size="10.00">createObjectsFromConfig()</text>
<text text-anchor="start" x="112.5" y="-349" font-family="Helvetica,sans-Serif" font-size="10.00">+</text>
<text text-anchor="start" x="122.5" y="-349" font-family="Helvetica,sans-Serif" font-size="10.00">getPrimitives()</text>
<text text-anchor="start" x="112.5" y="-335" font-family="Helvetica,sans-Serif" font-size="10.00">+</text>
<text text-anchor="start" x="122.5" y="-335" font-family="Helvetica,sans-Serif" font-size="10.00">getCamera()</text>
<polygon fill="#bfbfbf" stroke="#bfbfbf" points="108.5,-514.5 108.5,-514.5 243.5,-514.5 243.5,-514.5 108.5,-514.5"/>
<polygon fill="#bfbfbf" stroke="#bfbfbf" points="108.5,-444.5 108.5,-444.5 120.5,-444.5 120.5,-444.5 108.5,-444.5"/>
<polygon fill="#bfbfbf" stroke="#bfbfbf" points="120.5,-444.5 120.5,-444.5 243.5,-444.5 243.5,-444.5 120.5,-444.5"/>
<polygon fill="none" stroke="#bfbfbf" points="108.5,-330.5 108.5,-530.5 243.5,-530.5 243.5,-330.5 108.5,-330.5"/>
</a>
</g>
</g>
<!-- Node3&#45;&gt;Node1 -->
<g id="edge2_Node000001_Node000003" class="edge">
<title>Node3&#45;&gt;Node1</title>
<g id="a_edge2_Node000001_Node000003"><a xlink:title=" ">
<path fill="none" stroke="#63b8ff" d="M176,-330.69C176,-310.86 176,-289.66 176,-268.74"/>
<polygon fill="none" stroke="#63b8ff" points="176,-268.67 172,-262.67 176,-256.67 180,-262.67 176,-268.67"/>
</a>
</g>
<text text-anchor="middle" x="215.75" y="-275" font-family="Helvetica,sans-Serif" font-size="10.00" fill="grey"> &#45;_factoryManager</text>
</g>
<!-- Node4 -->
<g id="Node000004" class="node">
<title>Node4</title>
<g id="a_Node000004"><a xlink:href="classGraphicMode.html" target="_top" xlink:title=" ">
<polygon fill="white" stroke="none" points="384.5,-558.5 261.5,-558.5 261.5,-302.5 384.5,-302.5 384.5,-558.5"/>
<text text-anchor="start" x="294.12" y="-545" font-family="Helvetica,sans-Serif" font-size="10.00">GraphicMode</text>
<text text-anchor="start" x="267" y="-531" font-family="Helvetica,sans-Serif" font-size="10.00">&#45;</text>
<text text-anchor="start" x="275.5" y="-531" font-family="Helvetica,sans-Serif" font-size="10.00">_window</text>
<text text-anchor="start" x="267" y="-517" font-family="Helvetica,sans-Serif" font-size="10.00">&#45;</text>
<text text-anchor="start" x="275.5" y="-517" font-family="Helvetica,sans-Serif" font-size="10.00">_image</text>
<text text-anchor="start" x="267" y="-503" font-family="Helvetica,sans-Serif" font-size="10.00">&#45;</text>
<text text-anchor="start" x="275.5" y="-503" font-family="Helvetica,sans-Serif" font-size="10.00">_texture</text>
<text text-anchor="start" x="267" y="-489" font-family="Helvetica,sans-Serif" font-size="10.00">&#45;</text>
<text text-anchor="start" x="275.5" y="-489" font-family="Helvetica,sans-Serif" font-size="10.00">_title</text>
<text text-anchor="start" x="267" y="-475" font-family="Helvetica,sans-Serif" font-size="10.00">&#45;</text>
<text text-anchor="start" x="275.5" y="-475" font-family="Helvetica,sans-Serif" font-size="10.00">_width</text>
<text text-anchor="start" x="267" y="-461" font-family="Helvetica,sans-Serif" font-size="10.00">&#45;</text>
<text text-anchor="start" x="275.5" y="-461" font-family="Helvetica,sans-Serif" font-size="10.00">_height</text>
<text text-anchor="start" x="267" y="-447" font-family="Helvetica,sans-Serif" font-size="10.00">&#45;</text>
<text text-anchor="start" x="275.5" y="-447" font-family="Helvetica,sans-Serif" font-size="10.00">_renderingComplete</text>
<text text-anchor="start" x="265.5" y="-433" font-family="Helvetica,sans-Serif" font-size="10.00">+</text>
<text text-anchor="start" x="275.5" y="-433" font-family="Helvetica,sans-Serif" font-size="10.00">GraphicMode()</text>
<text text-anchor="start" x="265.5" y="-419" font-family="Helvetica,sans-Serif" font-size="10.00">+</text>
<text text-anchor="start" x="275.5" y="-419" font-family="Helvetica,sans-Serif" font-size="10.00">~GraphicMode()</text>
<text text-anchor="start" x="265.5" y="-405" font-family="Helvetica,sans-Serif" font-size="10.00">+</text>
<text text-anchor="start" x="275.5" y="-405" font-family="Helvetica,sans-Serif" font-size="10.00">getWindow()</text>
<text text-anchor="start" x="265.5" y="-391" font-family="Helvetica,sans-Serif" font-size="10.00">+</text>
<text text-anchor="start" x="275.5" y="-391" font-family="Helvetica,sans-Serif" font-size="10.00">getImage()</text>
<text text-anchor="start" x="265.5" y="-377" font-family="Helvetica,sans-Serif" font-size="10.00">+</text>
<text text-anchor="start" x="275.5" y="-377" font-family="Helvetica,sans-Serif" font-size="10.00">getRenderingComplete()</text>
<text text-anchor="start" x="265.5" y="-363" font-family="Helvetica,sans-Serif" font-size="10.00">+</text>
<text text-anchor="start" x="275.5" y="-363" font-family="Helvetica,sans-Serif" font-size="10.00">setWindow()</text>
<text text-anchor="start" x="265.5" y="-349" font-family="Helvetica,sans-Serif" font-size="10.00">+</text>
<text text-anchor="start" x="275.5" y="-349" font-family="Helvetica,sans-Serif" font-size="10.00">setRenderingComplete()</text>
<text text-anchor="start" x="265.5" y="-335" font-family="Helvetica,sans-Serif" font-size="10.00">+</text>
<text text-anchor="start" x="275.5" y="-335" font-family="Helvetica,sans-Serif" font-size="10.00">updateTexture()</text>
<text text-anchor="start" x="265.5" y="-321" font-family="Helvetica,sans-Serif" font-size="10.00">+</text>
<text text-anchor="start" x="275.5" y="-321" font-family="Helvetica,sans-Serif" font-size="10.00">display()</text>
<text text-anchor="start" x="265.5" y="-307" font-family="Helvetica,sans-Serif" font-size="10.00">+</text>
<text text-anchor="start" x="275.5" y="-307" font-family="Helvetica,sans-Serif" font-size="10.00">operator=()</text>
<polygon fill="#bfbfbf" stroke="#bfbfbf" points="261.5,-542.5 261.5,-542.5 384.5,-542.5 384.5,-542.5 261.5,-542.5"/>
<polygon fill="#bfbfbf" stroke="#bfbfbf" points="261.5,-444.5 261.5,-444.5 273.5,-444.5 273.5,-444.5 261.5,-444.5"/>
<polygon fill="#bfbfbf" stroke="#bfbfbf" points="273.5,-444.5 273.5,-444.5 384.5,-444.5 384.5,-444.5 273.5,-444.5"/>
<polygon fill="none" stroke="#bfbfbf" points="261.5,-302.5 261.5,-558.5 384.5,-558.5 384.5,-302.5 261.5,-302.5"/>
</a>
</g>
</g>
<!-- Node4&#45;&gt;Node1 -->
<g id="edge3_Node000001_Node000004" class="edge">
<title>Node4&#45;&gt;Node1</title>
<g id="a_edge3_Node000001_Node000004"><a xlink:title=" ">
<path fill="none" stroke="#63b8ff" d="M273.41,-302.81C269.04,-292.99 264.54,-283.29 260,-274 251.2,-256.01 241.06,-237.22 230.94,-219.35"/>
<polygon fill="none" stroke="#63b8ff" points="230.89,-219.26 224.43,-216.04 224.93,-208.84 231.38,-212.06 230.89,-219.26"/>
</a>
</g>
<text text-anchor="middle" x="284" y="-275" font-family="Helvetica,sans-Serif" font-size="10.00" fill="grey"> &#45;_display</text>
</g>
</g>
</svg>
