<?xml version="1.0" encoding="UTF-8" standalone="no"?>
<!DOCTYPE svg PUBLIC "-//W3C//DTD SVG 1.1//EN"
 "http://www.w3.org/Graphics/SVG/1.1/DTD/svg11.dtd">
<!-- Generated by graphviz version 9.0.0 (20230911.1827)
 -->
<!-- Title: Sphere Pages: 1 -->
<svg width="387pt" height="650pt"
 viewBox="0.00 0.00 386.50 649.50" xmlns="http://www.w3.org/2000/svg" xmlns:xlink="http://www.w3.org/1999/xlink">
<g id="graph0" class="graph" transform="scale(1 1) rotate(0) translate(4 645.5)">
<title>Sphere</title>
<!-- Node1 -->
<g id="Node000001" class="node">
<title>Node1</title>
<g id="a_Node000001"><a xlink:title=" ">
<polygon fill="#999999" stroke="none" points="207.5,-116 147.5,-116 147.5,0 207.5,0 207.5,-116"/>
<text text-anchor="start" x="162.12" y="-102.5" font-family="Helvetica,sans-Serif" font-size="10.00">Sphere</text>
<text text-anchor="start" x="153" y="-88.5" font-family="Helvetica,sans-Serif" font-size="10.00">&#45;</text>
<text text-anchor="start" x="161.5" y="-88.5" font-family="Helvetica,sans-Serif" font-size="10.00">_distance</text>
<text text-anchor="start" x="153" y="-74.5" font-family="Helvetica,sans-Serif" font-size="10.00">&#45;</text>
<text text-anchor="start" x="161.5" y="-74.5" font-family="Helvetica,sans-Serif" font-size="10.00">radius</text>
<text text-anchor="start" x="151.5" y="-60.5" font-family="Helvetica,sans-Serif" font-size="10.00">+</text>
<text text-anchor="start" x="161.5" y="-60.5" font-family="Helvetica,sans-Serif" font-size="10.00">Sphere()</text>
<text text-anchor="start" x="151.5" y="-46.5" font-family="Helvetica,sans-Serif" font-size="10.00">+</text>
<text text-anchor="start" x="161.5" y="-46.5" font-family="Helvetica,sans-Serif" font-size="10.00">Sphere()</text>
<text text-anchor="start" x="151.5" y="-32.5" font-family="Helvetica,sans-Serif" font-size="10.00">+</text>
<text text-anchor="start" x="161.5" y="-32.5" font-family="Helvetica,sans-Serif" font-size="10.00">~Sphere()</text>
<text text-anchor="start" x="151.5" y="-18.5" font-family="Helvetica,sans-Serif" font-size="10.00">+</text>
<text text-anchor="start" x="161.5" y="-18.5" font-family="Helvetica,sans-Serif" font-size="10.00">distance()</text>
<text text-anchor="start" x="151.5" y="-4.5" font-family="Helvetica,sans-Serif" font-size="10.00">+</text>
<text text-anchor="start" x="161.5" y="-4.5" font-family="Helvetica,sans-Serif" font-size="10.00">getType()</text>
<polygon fill="#666666" stroke="#666666" points="147.5,-100 147.5,-100 207.5,-100 207.5,-100 147.5,-100"/>
<polygon fill="#666666" stroke="#666666" points="147.5,-72 147.5,-72 159.5,-72 159.5,-72 147.5,-72"/>
<polygon fill="#666666" stroke="#666666" points="159.5,-72 159.5,-72 207.5,-72 207.5,-72 159.5,-72"/>
<polygon fill="none" stroke="#666666" points="147.5,0 147.5,-116 207.5,-116 207.5,0 147.5,0"/>
</a>
</g>
</g>
<!-- Node2 -->
<g id="Node000002" class="node">
<title>Node2</title>
<g id="a_Node000002"><a xlink:href="classAPrimitives.html" target="_top" xlink:title=" ">
<polygon fill="white" stroke="none" points="218,-381 137,-381 137,-153 218,-153 218,-381"/>
<text text-anchor="start" x="152.75" y="-367.5" font-family="Helvetica,sans-Serif" font-size="10.00">APrimitives</text>
<text text-anchor="start" x="141.38" y="-353.5" font-family="Helvetica,sans-Serif" font-size="10.00">#</text>
<text text-anchor="start" x="151" y="-353.5" font-family="Helvetica,sans-Serif" font-size="10.00">scale</text>
<text text-anchor="start" x="141.38" y="-339.5" font-family="Helvetica,sans-Serif" font-size="10.00">#</text>
<text text-anchor="start" x="151" y="-339.5" font-family="Helvetica,sans-Serif" font-size="10.00">material</text>
<text text-anchor="start" x="141.38" y="-325.5" font-family="Helvetica,sans-Serif" font-size="10.00">#</text>
<text text-anchor="start" x="151" y="-325.5" font-family="Helvetica,sans-Serif" font-size="10.00">_scales</text>
<text text-anchor="start" x="141.38" y="-311.5" font-family="Helvetica,sans-Serif" font-size="10.00">#</text>
<text text-anchor="start" x="151" y="-311.5" font-family="Helvetica,sans-Serif" font-size="10.00">_graph</text>
<text text-anchor="start" x="141" y="-297.5" font-family="Helvetica,sans-Serif" font-size="10.00">+</text>
<text text-anchor="start" x="151" y="-297.5" font-family="Helvetica,sans-Serif" font-size="10.00">APrimitives()</text>
<text text-anchor="start" x="141" y="-283.5" font-family="Helvetica,sans-Serif" font-size="10.00">+</text>
<text text-anchor="start" x="151" y="-283.5" font-family="Helvetica,sans-Serif" font-size="10.00">APrimitives()</text>
<text text-anchor="start" x="141" y="-269.5" font-family="Helvetica,sans-Serif" font-size="10.00">+</text>
<text text-anchor="start" x="151" y="-269.5" font-family="Helvetica,sans-Serif" font-size="10.00">~APrimitives()</text>
<text text-anchor="start" x="141" y="-255.5" font-family="Helvetica,sans-Serif" font-size="10.00">+</text>
<text text-anchor="start" x="151" y="-255.5" font-family="Helvetica,sans-Serif" font-size="10.00">distance()</text>
<text text-anchor="start" x="141" y="-241.5" font-family="Helvetica,sans-Serif" font-size="10.00">+</text>
<text text-anchor="start" x="151" y="-241.5" font-family="Helvetica,sans-Serif" font-size="10.00">getType()</text>
<text text-anchor="start" x="141" y="-227.5" font-family="Helvetica,sans-Serif" font-size="10.00">+</text>
<text text-anchor="start" x="151" y="-227.5" font-family="Helvetica,sans-Serif" font-size="10.00">getPosition()</text>
<text text-anchor="start" x="141" y="-213.5" font-family="Helvetica,sans-Serif" font-size="10.00">+</text>
<text text-anchor="start" x="151" y="-213.5" font-family="Helvetica,sans-Serif" font-size="10.00">getRotation()</text>
<text text-anchor="start" x="141" y="-199.5" font-family="Helvetica,sans-Serif" font-size="10.00">+</text>
<text text-anchor="start" x="151" y="-199.5" font-family="Helvetica,sans-Serif" font-size="10.00">getScale()</text>
<text text-anchor="start" x="141" y="-185.5" font-family="Helvetica,sans-Serif" font-size="10.00">+</text>
<text text-anchor="start" x="151" y="-185.5" font-family="Helvetica,sans-Serif" font-size="10.00">getMaterial()</text>
<text text-anchor="start" x="141" y="-171.5" font-family="Helvetica,sans-Serif" font-size="10.00">+</text>
<text text-anchor="start" x="151" y="-171.5" font-family="Helvetica,sans-Serif" font-size="10.00">setPosition()</text>
<text text-anchor="start" x="151" y="-157.5" font-family="Helvetica,sans-Serif" font-size="10.00">and 12 more...</text>
<polygon fill="#bfbfbf" stroke="#bfbfbf" points="137,-365 137,-365 218,-365 218,-365 137,-365"/>
<polygon fill="#bfbfbf" stroke="#bfbfbf" points="137,-309 137,-309 149,-309 149,-309 137,-309"/>
<polygon fill="#bfbfbf" stroke="#bfbfbf" points="149,-309 149,-309 218,-309 218,-309 149,-309"/>
<polygon fill="none" stroke="#bfbfbf" points="137,-153 137,-381 218,-381 218,-153 137,-153"/>
</a>
</g>
</g>
<!-- Node2&#45;&gt;Node1 -->
<g id="edge1_Node000001_Node000002" class="edge">
<title>Node2&#45;&gt;Node1</title>
<g id="a_edge1_Node000001_Node000002"><a xlink:title=" ">
<path fill="none" stroke="#63b8ff" d="M177.5,-141.73C177.5,-132.81 177.5,-124.11 177.5,-115.9"/>
<polygon fill="none" stroke="#63b8ff" points="174,-141.6 177.5,-151.6 181,-141.6 174,-141.6"/>
</a>
</g>
</g>
<!-- Node3 -->
<g id="Node000003" class="node">
<title>Node3</title>
<g id="a_Node000003"><a xlink:href="classIPrimitives.html" target="_top" xlink:title=" ">
<polygon fill="white" stroke="none" points="75,-627.5 0,-627.5 0,-441.5 75,-441.5 75,-627.5"/>
<text text-anchor="start" x="14.62" y="-614" font-family="Helvetica,sans-Serif" font-size="10.00">IPrimitives</text>
<text text-anchor="start" x="36" y="-600" font-family="Helvetica,sans-Serif" font-size="10.00"> </text>
<text text-anchor="start" x="4" y="-586" font-family="Helvetica,sans-Serif" font-size="10.00">+</text>
<text text-anchor="start" x="14" y="-586" font-family="Helvetica,sans-Serif" font-size="10.00">~IPrimitives()</text>
<text text-anchor="start" x="4" y="-572" font-family="Helvetica,sans-Serif" font-size="10.00">+</text>
<text text-anchor="start" x="14" y="-572" font-family="Helvetica,sans-Serif" font-size="10.00">distance()</text>
<text text-anchor="start" x="4" y="-558" font-family="Helvetica,sans-Serif" font-size="10.00">+</text>
<text text-anchor="start" x="14" y="-558" font-family="Helvetica,sans-Serif" font-size="10.00">getType()</text>
<text text-anchor="start" x="4" y="-544" font-family="Helvetica,sans-Serif" font-size="10.00">+</text>
<text text-anchor="start" x="14" y="-544" font-family="Helvetica,sans-Serif" font-size="10.00">getPosition()</text>
<text text-anchor="start" x="4" y="-530" font-family="Helvetica,sans-Serif" font-size="10.00">+</text>
<text text-anchor="start" x="14" y="-530" font-family="Helvetica,sans-Serif" font-size="10.00">getRotation()</text>
<text text-anchor="start" x="4" y="-516" font-family="Helvetica,sans-Serif" font-size="10.00">+</text>
<text text-anchor="start" x="14" y="-516" font-family="Helvetica,sans-Serif" font-size="10.00">getScale()</text>
<text text-anchor="start" x="4" y="-502" font-family="Helvetica,sans-Serif" font-size="10.00">+</text>
<text text-anchor="start" x="14" y="-502" font-family="Helvetica,sans-Serif" font-size="10.00">getMaterial()</text>
<text text-anchor="start" x="4" y="-488" font-family="Helvetica,sans-Serif" font-size="10.00">+</text>
<text text-anchor="start" x="14" y="-488" font-family="Helvetica,sans-Serif" font-size="10.00">setPosition()</text>
<text text-anchor="start" x="4" y="-474" font-family="Helvetica,sans-Serif" font-size="10.00">+</text>
<text text-anchor="start" x="14" y="-474" font-family="Helvetica,sans-Serif" font-size="10.00">setRotation()</text>
<text text-anchor="start" x="4" y="-460" font-family="Helvetica,sans-Serif" font-size="10.00">+</text>
<text text-anchor="start" x="14" y="-460" font-family="Helvetica,sans-Serif" font-size="10.00">setScale()</text>
<text text-anchor="start" x="4" y="-446" font-family="Helvetica,sans-Serif" font-size="10.00">+</text>
<text text-anchor="start" x="14" y="-446" font-family="Helvetica,sans-Serif" font-size="10.00">setMaterial()</text>
<polygon fill="#bfbfbf" stroke="#bfbfbf" points="0,-611.5 0,-611.5 75,-611.5 75,-611.5 0,-611.5"/>
<polygon fill="#bfbfbf" stroke="#bfbfbf" points="0,-597.5 0,-597.5 75,-597.5 75,-597.5 0,-597.5"/>
<polygon fill="none" stroke="#bfbfbf" points="0,-441.5 0,-627.5 75,-627.5 75,-441.5 0,-441.5"/>
</a>
</g>
</g>
<!-- Node3&#45;&gt;Node2 -->
<g id="edge2_Node000002_Node000003" class="edge">
<title>Node3&#45;&gt;Node2</title>
<g id="a_edge2_Node000002_Node000003"><a xlink:title=" ">
<path fill="none" stroke="#63b8ff" d="M79.88,-434.73C81.08,-432.29 82.29,-429.88 83.5,-427.5 99.76,-395.56 119.69,-361.19 137.01,-332.56"/>
<polygon fill="none" stroke="#63b8ff" points="76.82,-433.02 75.62,-443.55 83.12,-436.06 76.82,-433.02"/>
</a>
</g>
</g>
<!-- Node4 -->
<g id="Node000004" class="node">
<title>Node4</title>
<g id="a_Node000004"><a xlink:href="classMath_1_1Point3D.html" target="_top" xlink:title=" ">
<polygon fill="white" stroke="none" points="168,-641.5 93,-641.5 93,-427.5 168,-427.5 168,-641.5"/>
<text text-anchor="start" x="99" y="-628" font-family="Helvetica,sans-Serif" font-size="10.00">Math::Point3D</text>
<text text-anchor="start" x="98.5" y="-614" font-family="Helvetica,sans-Serif" font-size="10.00">&#45;</text>
<text text-anchor="start" x="107" y="-614" font-family="Helvetica,sans-Serif" font-size="10.00">x</text>
<text text-anchor="start" x="98.5" y="-600" font-family="Helvetica,sans-Serif" font-size="10.00">&#45;</text>
<text text-anchor="start" x="107" y="-600" font-family="Helvetica,sans-Serif" font-size="10.00">y</text>
<text text-anchor="start" x="98.5" y="-586" font-family="Helvetica,sans-Serif" font-size="10.00">&#45;</text>
<text text-anchor="start" x="107" y="-586" font-family="Helvetica,sans-Serif" font-size="10.00">z</text>
<text text-anchor="start" x="97" y="-572" font-family="Helvetica,sans-Serif" font-size="10.00">+</text>
<text text-anchor="start" x="107" y="-572" font-family="Helvetica,sans-Serif" font-size="10.00">Point3D()</text>
<text text-anchor="start" x="97" y="-558" font-family="Helvetica,sans-Serif" font-size="10.00">+</text>
<text text-anchor="start" x="107" y="-558" font-family="Helvetica,sans-Serif" font-size="10.00">Point3D()</text>
<text text-anchor="start" x="97" y="-544" font-family="Helvetica,sans-Serif" font-size="10.00">+</text>
<text text-anchor="start" x="107" y="-544" font-family="Helvetica,sans-Serif" font-size="10.00">~Point3D()</text>
<text text-anchor="start" x="97" y="-530" font-family="Helvetica,sans-Serif" font-size="10.00">+</text>
<text text-anchor="start" x="107" y="-530" font-family="Helvetica,sans-Serif" font-size="10.00">getX()</text>
<text text-anchor="start" x="97" y="-516" font-family="Helvetica,sans-Serif" font-size="10.00">+</text>
<text text-anchor="start" x="107" y="-516" font-family="Helvetica,sans-Serif" font-size="10.00">getY()</text>
<text text-anchor="start" x="97" y="-502" font-family="Helvetica,sans-Serif" font-size="10.00">+</text>
<text text-anchor="start" x="107" y="-502" font-family="Helvetica,sans-Serif" font-size="10.00">getZ()</text>
<text text-anchor="start" x="97" y="-488" font-family="Helvetica,sans-Serif" font-size="10.00">+</text>
<text text-anchor="start" x="107" y="-488" font-family="Helvetica,sans-Serif" font-size="10.00">setX()</text>
<text text-anchor="start" x="97" y="-474" font-family="Helvetica,sans-Serif" font-size="10.00">+</text>
<text text-anchor="start" x="107" y="-474" font-family="Helvetica,sans-Serif" font-size="10.00">setY()</text>
<text text-anchor="start" x="97" y="-460" font-family="Helvetica,sans-Serif" font-size="10.00">+</text>
<text text-anchor="start" x="107" y="-460" font-family="Helvetica,sans-Serif" font-size="10.00">setZ()</text>
<text text-anchor="start" x="97" y="-446" font-family="Helvetica,sans-Serif" font-size="10.00">+</text>
<text text-anchor="start" x="107" y="-446" font-family="Helvetica,sans-Serif" font-size="10.00">normalize()</text>
<text text-anchor="start" x="106.62" y="-432" font-family="Helvetica,sans-Serif" font-size="10.00">and 9 more...</text>
<polygon fill="#bfbfbf" stroke="#bfbfbf" points="93,-625.5 93,-625.5 168,-625.5 168,-625.5 93,-625.5"/>
<polygon fill="#bfbfbf" stroke="#bfbfbf" points="93,-583.5 93,-583.5 105,-583.5 105,-583.5 93,-583.5"/>
<polygon fill="#bfbfbf" stroke="#bfbfbf" points="105,-583.5 105,-583.5 168,-583.5 168,-583.5 105,-583.5"/>
<polygon fill="none" stroke="#bfbfbf" points="93,-427.5 93,-641.5 168,-641.5 168,-427.5 93,-427.5"/>
</a>
</g>
</g>
<!-- Node4&#45;&gt;Node2 -->
<g id="edge3_Node000002_Node000004" class="edge">
<title>Node4&#45;&gt;Node2</title>
<g id="a_edge3_Node000002_Node000004"><a xlink:title=" ">
<path fill="none" stroke="#63b8ff" d="M149.21,-427.8C151.22,-416.44 153.28,-404.8 155.33,-393.24"/>
<polygon fill="none" stroke="#63b8ff" points="155.29,-393.44 152.4,-386.84 157.39,-381.63 160.28,-388.23 155.29,-393.44"/>
</a>
</g>
<text text-anchor="middle" x="175.5" y="-400" font-family="Helvetica,sans-Serif" font-size="10.00" fill="grey"> #position</text>
</g>
<!-- Node5 -->
<g id="Node000005" class="node">
<title>Node5</title>
<g id="a_Node000005"><a xlink:href="classMath_1_1Rot3D.html" target="_top" xlink:title=" ">
<polygon fill="white" stroke="none" points="264.5,-641.5 186.5,-641.5 186.5,-427.5 264.5,-427.5 264.5,-641.5"/>
<text text-anchor="start" x="197.38" y="-628" font-family="Helvetica,sans-Serif" font-size="10.00">Math::Rot3D</text>
<text text-anchor="start" x="190.5" y="-614" font-family="Helvetica,sans-Serif" font-size="10.00">+</text>
<text text-anchor="start" x="200.5" y="-614" font-family="Helvetica,sans-Serif" font-size="10.00">x_pitch</text>
<text text-anchor="start" x="190.5" y="-600" font-family="Helvetica,sans-Serif" font-size="10.00">+</text>
<text text-anchor="start" x="200.5" y="-600" font-family="Helvetica,sans-Serif" font-size="10.00">z_yaw</text>
<text text-anchor="start" x="190.5" y="-586" font-family="Helvetica,sans-Serif" font-size="10.00">+</text>
<text text-anchor="start" x="200.5" y="-586" font-family="Helvetica,sans-Serif" font-size="10.00">y_roll</text>
<text text-anchor="start" x="190.5" y="-572" font-family="Helvetica,sans-Serif" font-size="10.00">+</text>
<text text-anchor="start" x="200.5" y="-572" font-family="Helvetica,sans-Serif" font-size="10.00">Rot3D()</text>
<text text-anchor="start" x="190.5" y="-558" font-family="Helvetica,sans-Serif" font-size="10.00">+</text>
<text text-anchor="start" x="200.5" y="-558" font-family="Helvetica,sans-Serif" font-size="10.00">Rot3D()</text>
<text text-anchor="start" x="190.5" y="-544" font-family="Helvetica,sans-Serif" font-size="10.00">+</text>
<text text-anchor="start" x="200.5" y="-544" font-family="Helvetica,sans-Serif" font-size="10.00">toVector()</text>
<text text-anchor="start" x="190.5" y="-530" font-family="Helvetica,sans-Serif" font-size="10.00">+</text>
<text text-anchor="start" x="200.5" y="-530" font-family="Helvetica,sans-Serif" font-size="10.00">operator+()</text>
<text text-anchor="start" x="190.5" y="-516" font-family="Helvetica,sans-Serif" font-size="10.00">+</text>
<text text-anchor="start" x="200.5" y="-516" font-family="Helvetica,sans-Serif" font-size="10.00">operator+=()</text>
<text text-anchor="start" x="190.5" y="-502" font-family="Helvetica,sans-Serif" font-size="10.00">+</text>
<text text-anchor="start" x="200.5" y="-502" font-family="Helvetica,sans-Serif" font-size="10.00">operator&#45;()</text>
<text text-anchor="start" x="190.5" y="-488" font-family="Helvetica,sans-Serif" font-size="10.00">+</text>
<text text-anchor="start" x="200.5" y="-488" font-family="Helvetica,sans-Serif" font-size="10.00">operator&#45;=()</text>
<text text-anchor="start" x="190.5" y="-474" font-family="Helvetica,sans-Serif" font-size="10.00">+</text>
<text text-anchor="start" x="200.5" y="-474" font-family="Helvetica,sans-Serif" font-size="10.00">operator&#45;()</text>
<text text-anchor="start" x="190.5" y="-460" font-family="Helvetica,sans-Serif" font-size="10.00">+</text>
<text text-anchor="start" x="200.5" y="-460" font-family="Helvetica,sans-Serif" font-size="10.00">toUnitVector()</text>
<text text-anchor="start" x="190.5" y="-446" font-family="Helvetica,sans-Serif" font-size="10.00">+</text>
<text text-anchor="start" x="200.5" y="-446" font-family="Helvetica,sans-Serif" font-size="10.00">rotate()</text>
<text text-anchor="start" x="200.5" y="-432" font-family="Helvetica,sans-Serif" font-size="10.00">and 6 more...</text>
<polygon fill="#bfbfbf" stroke="#bfbfbf" points="186.5,-625.5 186.5,-625.5 264.5,-625.5 264.5,-625.5 186.5,-625.5"/>
<polygon fill="#bfbfbf" stroke="#bfbfbf" points="186.5,-583.5 186.5,-583.5 198.5,-583.5 198.5,-583.5 186.5,-583.5"/>
<polygon fill="#bfbfbf" stroke="#bfbfbf" points="198.5,-583.5 198.5,-583.5 264.5,-583.5 264.5,-583.5 198.5,-583.5"/>
<polygon fill="none" stroke="#bfbfbf" points="186.5,-427.5 186.5,-641.5 264.5,-641.5 264.5,-427.5 186.5,-427.5"/>
</a>
</g>
</g>
<!-- Node5&#45;&gt;Node2 -->
<g id="edge4_Node000002_Node000005" class="edge">
<title>Node5&#45;&gt;Node2</title>
<g id="a_edge4_Node000002_Node000005"><a xlink:title=" ">
<path fill="none" stroke="#63b8ff" d="M206.39,-427.8C204.34,-416.44 202.23,-404.8 200.14,-393.24"/>
<polygon fill="none" stroke="#63b8ff" points="200.18,-393.43 195.17,-388.24 198.04,-381.63 203.05,-386.82 200.18,-393.43"/>
</a>
</g>
<text text-anchor="middle" x="225.38" y="-400" font-family="Helvetica,sans-Serif" font-size="10.00" fill="grey"> #_rotation</text>
</g>
<!-- Node6 -->
<g id="Node000006" class="node">
<title>Node6</title>
<g id="a_Node000006"><a xlink:href="classColor.html" target="_top" xlink:title=" ">
<polygon fill="white" stroke="none" points="378.5,-641.5 282.5,-641.5 282.5,-427.5 378.5,-427.5 378.5,-641.5"/>
<text text-anchor="start" x="318.88" y="-628" font-family="Helvetica,sans-Serif" font-size="10.00">Color</text>
<text text-anchor="start" x="288" y="-614" font-family="Helvetica,sans-Serif" font-size="10.00">&#45;</text>
<text text-anchor="start" x="296.5" y="-614" font-family="Helvetica,sans-Serif" font-size="10.00">_red</text>
<text text-anchor="start" x="288" y="-600" font-family="Helvetica,sans-Serif" font-size="10.00">&#45;</text>
<text text-anchor="start" x="296.5" y="-600" font-family="Helvetica,sans-Serif" font-size="10.00">_green</text>
<text text-anchor="start" x="288" y="-586" font-family="Helvetica,sans-Serif" font-size="10.00">&#45;</text>
<text text-anchor="start" x="296.5" y="-586" font-family="Helvetica,sans-Serif" font-size="10.00">_blue</text>
<text text-anchor="start" x="288" y="-572" font-family="Helvetica,sans-Serif" font-size="10.00">&#45;</text>
<text text-anchor="start" x="296.5" y="-572" font-family="Helvetica,sans-Serif" font-size="10.00">_transparency</text>
<text text-anchor="start" x="286.5" y="-558" font-family="Helvetica,sans-Serif" font-size="10.00">+</text>
<text text-anchor="start" x="296.5" y="-558" font-family="Helvetica,sans-Serif" font-size="10.00">Color()</text>
<text text-anchor="start" x="286.5" y="-544" font-family="Helvetica,sans-Serif" font-size="10.00">+</text>
<text text-anchor="start" x="296.5" y="-544" font-family="Helvetica,sans-Serif" font-size="10.00">~Color()</text>
<text text-anchor="start" x="286.5" y="-530" font-family="Helvetica,sans-Serif" font-size="10.00">+</text>
<text text-anchor="start" x="296.5" y="-530" font-family="Helvetica,sans-Serif" font-size="10.00">Color()</text>
<text text-anchor="start" x="286.5" y="-516" font-family="Helvetica,sans-Serif" font-size="10.00">+</text>
<text text-anchor="start" x="296.5" y="-516" font-family="Helvetica,sans-Serif" font-size="10.00">Color()</text>
<text text-anchor="start" x="286.5" y="-502" font-family="Helvetica,sans-Serif" font-size="10.00">+</text>
<text text-anchor="start" x="296.5" y="-502" font-family="Helvetica,sans-Serif" font-size="10.00">operator=()</text>
<text text-anchor="start" x="286.5" y="-488" font-family="Helvetica,sans-Serif" font-size="10.00">+</text>
<text text-anchor="start" x="296.5" y="-488" font-family="Helvetica,sans-Serif" font-size="10.00">setTransparency()</text>
<text text-anchor="start" x="286.5" y="-474" font-family="Helvetica,sans-Serif" font-size="10.00">+</text>
<text text-anchor="start" x="296.5" y="-474" font-family="Helvetica,sans-Serif" font-size="10.00">getRed()</text>
<text text-anchor="start" x="286.5" y="-460" font-family="Helvetica,sans-Serif" font-size="10.00">+</text>
<text text-anchor="start" x="296.5" y="-460" font-family="Helvetica,sans-Serif" font-size="10.00">getGreen()</text>
<text text-anchor="start" x="286.5" y="-446" font-family="Helvetica,sans-Serif" font-size="10.00">+</text>
<text text-anchor="start" x="296.5" y="-446" font-family="Helvetica,sans-Serif" font-size="10.00">getBlue()</text>
<text text-anchor="start" x="286.5" y="-432" font-family="Helvetica,sans-Serif" font-size="10.00">+</text>
<text text-anchor="start" x="296.5" y="-432" font-family="Helvetica,sans-Serif" font-size="10.00">getTransparency()</text>
<polygon fill="#bfbfbf" stroke="#bfbfbf" points="282.5,-625.5 282.5,-625.5 378.5,-625.5 378.5,-625.5 282.5,-625.5"/>
<polygon fill="#bfbfbf" stroke="#bfbfbf" points="282.5,-569.5 282.5,-569.5 294.5,-569.5 294.5,-569.5 282.5,-569.5"/>
<polygon fill="#bfbfbf" stroke="#bfbfbf" points="294.5,-569.5 294.5,-569.5 378.5,-569.5 378.5,-569.5 294.5,-569.5"/>
<polygon fill="none" stroke="#bfbfbf" points="282.5,-427.5 282.5,-641.5 378.5,-641.5 378.5,-427.5 282.5,-427.5"/>
</a>
</g>
</g>
<!-- Node6&#45;&gt;Node2 -->
<g id="edge5_Node000002_Node000006" class="edge">
<title>Node6&#45;&gt;Node2</title>
<g id="a_edge5_Node000002_Node000006"><a xlink:title=" ">
<path fill="none" stroke="#63b8ff" d="M282.6,-443.69C279.55,-438.2 276.5,-432.77 273.5,-427.5 257.97,-400.22 240.4,-370.68 224.58,-344.53"/>
<polygon fill="none" stroke="#63b8ff" points="224.61,-344.57 218.08,-341.51 218.39,-334.31 224.92,-337.37 224.61,-344.57"/>
</a>
</g>
<text text-anchor="middle" x="277.75" y="-400" font-family="Helvetica,sans-Serif" font-size="10.00" fill="grey"> #_color</text>
</g>
</g>
</svg>
