<?xml version="1.0" encoding="UTF-8" standalone="no"?>
<!DOCTYPE svg PUBLIC "-//W3C//DTD SVG 1.1//EN"
 "http://www.w3.org/Graphics/SVG/1.1/DTD/svg11.dtd">
<!-- Generated by graphviz version 9.0.0 (20230911.1827)
 -->
<!-- Title: MaterialLoaderException Pages: 1 -->
<svg width="138pt" height="440pt"
 viewBox="0.00 0.00 138.00 440.00" xmlns="http://www.w3.org/2000/svg" xmlns:xlink="http://www.w3.org/1999/xlink">
<g id="graph0" class="graph" transform="scale(1 1) rotate(0) translate(4 436)">
<title>MaterialLoaderException</title>
<!-- Node1 -->
<g id="Node000001" class="node">
<title>Node1</title>
<g id="a_Node000001"><a xlink:title=" ">
<polygon fill="#999999" stroke="none" points="130,-46 0,-46 0,0 130,0 130,-46"/>
<text text-anchor="start" x="11.75" y="-32.5" font-family="Helvetica,sans-Serif" font-size="10.00">MaterialLoaderException</text>
<text text-anchor="start" x="63.5" y="-18.5" font-family="Helvetica,sans-Serif" font-size="10.00"> </text>
<text text-anchor="start" x="4" y="-4.5" font-family="Helvetica,sans-Serif" font-size="10.00">+</text>
<text text-anchor="start" x="14" y="-4.5" font-family="Helvetica,sans-Serif" font-size="10.00">MaterialLoaderException()</text>
<polygon fill="#666666" stroke="#666666" points="0,-30 0,-30 130,-30 130,-30 0,-30"/>
<polygon fill="#666666" stroke="#666666" points="0,-16 0,-16 130,-16 130,-16 0,-16"/>
<polygon fill="none" stroke="#666666" points="0,0 0,-46 130,-46 130,0 0,0"/>
</a>
</g>
</g>
<!-- Node2 -->
<g id="Node000002" class="node">
<title>Node2</title>
<g id="a_Node000002"><a xlink:href="classAException.html" target="_top" xlink:title=" ">
<polygon fill="white" stroke="none" points="125.5,-212 4.5,-212 4.5,-82 125.5,-82 125.5,-212"/>
<text text-anchor="start" x="40.25" y="-198.5" font-family="Helvetica,sans-Serif" font-size="10.00">AException</text>
<text text-anchor="start" x="10" y="-184.5" font-family="Helvetica,sans-Serif" font-size="10.00">&#45;</text>
<text text-anchor="start" x="18.5" y="-184.5" font-family="Helvetica,sans-Serif" font-size="10.00">_message</text>
<text text-anchor="start" x="10" y="-170.5" font-family="Helvetica,sans-Serif" font-size="10.00">&#45;</text>
<text text-anchor="start" x="18.5" y="-170.5" font-family="Helvetica,sans-Serif" font-size="10.00">_type</text>
<text text-anchor="start" x="8.5" y="-156.5" font-family="Helvetica,sans-Serif" font-size="10.00">+</text>
<text text-anchor="start" x="18.5" y="-156.5" font-family="Helvetica,sans-Serif" font-size="10.00">AException()</text>
<text text-anchor="start" x="8.5" y="-142.5" font-family="Helvetica,sans-Serif" font-size="10.00">+</text>
<text text-anchor="start" x="18.5" y="-142.5" font-family="Helvetica,sans-Serif" font-size="10.00">~AException()</text>
<text text-anchor="start" x="8.5" y="-128.5" font-family="Helvetica,sans-Serif" font-size="10.00">+</text>
<text text-anchor="start" x="18.5" y="-128.5" font-family="Helvetica,sans-Serif" font-size="10.00">what()</text>
<text text-anchor="start" x="8.5" y="-114.5" font-family="Helvetica,sans-Serif" font-size="10.00">+</text>
<text text-anchor="start" x="18.5" y="-114.5" font-family="Helvetica,sans-Serif" font-size="10.00">getType()</text>
<text text-anchor="start" x="8.5" y="-100.5" font-family="Helvetica,sans-Serif" font-size="10.00">+</text>
<text text-anchor="start" x="18.5" y="-100.5" font-family="Helvetica,sans-Serif" font-size="10.00">getMessage()</text>
<text text-anchor="start" x="8.5" y="-86.5" font-family="Helvetica,sans-Serif" font-size="10.00">+</text>
<text text-anchor="start" x="18.5" y="-86.5" font-family="Helvetica,sans-Serif" font-size="10.00">getFormattedMessage()</text>
<polygon fill="#bfbfbf" stroke="#bfbfbf" points="4.5,-196 4.5,-196 125.5,-196 125.5,-196 4.5,-196"/>
<polygon fill="#bfbfbf" stroke="#bfbfbf" points="4.5,-168 4.5,-168 16.5,-168 16.5,-168 4.5,-168"/>
<polygon fill="#bfbfbf" stroke="#bfbfbf" points="16.5,-168 16.5,-168 125.5,-168 125.5,-168 16.5,-168"/>
<polygon fill="none" stroke="#bfbfbf" points="4.5,-82 4.5,-212 125.5,-212 125.5,-82 4.5,-82"/>
</a>
</g>
</g>
<!-- Node2&#45;&gt;Node1 -->
<g id="edge1_Node000001_Node000002" class="edge">
<title>Node2&#45;&gt;Node1</title>
<g id="a_edge1_Node000001_Node000002"><a xlink:title=" ">
<path fill="none" stroke="#63b8ff" d="M65,-70.65C65,-61.7 65,-53.2 65,-45.96"/>
<polygon fill="none" stroke="#63b8ff" points="61.5,-70.63 65,-80.63 68.5,-70.63 61.5,-70.63"/>
</a>
</g>
</g>
<!-- Node3 -->
<g id="Node000003" class="node">
<title>Node3</title>
<g id="a_Node000003"><a xlink:href="classIException.html" target="_top" xlink:title=" ">
<polygon fill="white" stroke="none" points="125.5,-350 4.5,-350 4.5,-248 125.5,-248 125.5,-350"/>
<text text-anchor="start" x="42.12" y="-336.5" font-family="Helvetica,sans-Serif" font-size="10.00">IException</text>
<text text-anchor="start" x="63.5" y="-322.5" font-family="Helvetica,sans-Serif" font-size="10.00"> </text>
<text text-anchor="start" x="8.5" y="-308.5" font-family="Helvetica,sans-Serif" font-size="10.00">+</text>
<text text-anchor="start" x="18.5" y="-308.5" font-family="Helvetica,sans-Serif" font-size="10.00">~IException()</text>
<text text-anchor="start" x="8.5" y="-294.5" font-family="Helvetica,sans-Serif" font-size="10.00">+</text>
<text text-anchor="start" x="18.5" y="-294.5" font-family="Helvetica,sans-Serif" font-size="10.00">what()</text>
<text text-anchor="start" x="8.5" y="-280.5" font-family="Helvetica,sans-Serif" font-size="10.00">+</text>
<text text-anchor="start" x="18.5" y="-280.5" font-family="Helvetica,sans-Serif" font-size="10.00">getType()</text>
<text text-anchor="start" x="8.5" y="-266.5" font-family="Helvetica,sans-Serif" font-size="10.00">+</text>
<text text-anchor="start" x="18.5" y="-266.5" font-family="Helvetica,sans-Serif" font-size="10.00">getMessage()</text>
<text text-anchor="start" x="8.5" y="-252.5" font-family="Helvetica,sans-Serif" font-size="10.00">+</text>
<text text-anchor="start" x="18.5" y="-252.5" font-family="Helvetica,sans-Serif" font-size="10.00">getFormattedMessage()</text>
<polygon fill="#bfbfbf" stroke="#bfbfbf" points="4.5,-334 4.5,-334 125.5,-334 125.5,-334 4.5,-334"/>
<polygon fill="#bfbfbf" stroke="#bfbfbf" points="4.5,-320 4.5,-320 125.5,-320 125.5,-320 4.5,-320"/>
<polygon fill="none" stroke="#bfbfbf" points="4.5,-248 4.5,-350 125.5,-350 125.5,-248 4.5,-248"/>
</a>
</g>
</g>
<!-- Node3&#45;&gt;Node2 -->
<g id="edge2_Node000002_Node000003" class="edge">
<title>Node3&#45;&gt;Node2</title>
<g id="a_edge2_Node000002_Node000003"><a xlink:title=" ">
<path fill="none" stroke="#63b8ff" d="M65,-236.68C65,-228.5 65,-220.09 65,-211.87"/>
<polygon fill="none" stroke="#63b8ff" points="61.5,-236.54 65,-246.54 68.5,-236.54 61.5,-236.54"/>
</a>
</g>
</g>
<!-- Node4 -->
<g id="Node000004" class="node">
<title>Node4</title>
<g id="a_Node000004"><a xlink:title=" ">
<polygon fill="white" stroke="none" points="100,-432 30,-432 30,-386 100,-386 100,-432"/>
<text text-anchor="start" x="34.62" y="-418.5" font-family="Helvetica,sans-Serif" font-size="10.00">std::exception</text>
<text text-anchor="start" x="63.5" y="-404.5" font-family="Helvetica,sans-Serif" font-size="10.00"> </text>
<text text-anchor="start" x="63.5" y="-390.5" font-family="Helvetica,sans-Serif" font-size="10.00"> </text>
<polygon fill="#bfbfbf" stroke="#bfbfbf" points="30,-416 30,-416 100,-416 100,-416 30,-416"/>
<polygon fill="#bfbfbf" stroke="#bfbfbf" points="30,-402 30,-402 100,-402 100,-402 30,-402"/>
<polygon fill="none" stroke="#bfbfbf" points="30,-386 30,-432 100,-432 100,-386 30,-386"/>
</a>
</g>
</g>
<!-- Node4&#45;&gt;Node3 -->
<g id="edge3_Node000003_Node000004" class="edge">
<title>Node4&#45;&gt;Node3</title>
<g id="a_edge3_Node000003_Node000004"><a xlink:title=" ">
<path fill="none" stroke="#63b8ff" d="M65,-374.83C65,-366.95 65,-358.38 65,-349.93"/>
<polygon fill="none" stroke="#63b8ff" points="61.5,-374.63 65,-384.63 68.5,-374.63 61.5,-374.63"/>
</a>
</g>
</g>
</g>
</svg>
