<?xml version="1.0" encoding="UTF-8" standalone="no"?>
<!DOCTYPE svg PUBLIC "-//W3C//DTD SVG 1.1//EN"
 "http://www.w3.org/Graphics/SVG/1.1/DTD/svg11.dtd">
<!-- Generated by graphviz version 9.0.0 (20230911.1827)
 -->
<!-- Title: Cone Pages: 1 -->
<svg width="387pt" height="720pt"
 viewBox="0.00 0.00 386.50 719.50" xmlns="http://www.w3.org/2000/svg" xmlns:xlink="http://www.w3.org/1999/xlink">
<g id="graph0" class="graph" transform="scale(1 1) rotate(0) translate(4 715.5)">
<title>Cone</title>
<!-- Node1 -->
<g id="Node000001" class="node">
<title>Node1</title>
<g id="a_Node000001"><a xlink:title=" ">
<polygon fill="#999999" stroke="none" points="222.5,-186 132.5,-186 132.5,0 222.5,0 222.5,-186"/>
<text text-anchor="start" x="165.88" y="-172.5" font-family="Helvetica,sans-Serif" font-size="10.00">Cone</text>
<text text-anchor="start" x="138" y="-158.5" font-family="Helvetica,sans-Serif" font-size="10.00">&#45;</text>
<text text-anchor="start" x="146.5" y="-158.5" font-family="Helvetica,sans-Serif" font-size="10.00">_baseRadius</text>
<text text-anchor="start" x="138" y="-144.5" font-family="Helvetica,sans-Serif" font-size="10.00">&#45;</text>
<text text-anchor="start" x="146.5" y="-144.5" font-family="Helvetica,sans-Serif" font-size="10.00">_height</text>
<text text-anchor="start" x="138" y="-130.5" font-family="Helvetica,sans-Serif" font-size="10.00">&#45;</text>
<text text-anchor="start" x="146.5" y="-130.5" font-family="Helvetica,sans-Serif" font-size="10.00">_distance</text>
<text text-anchor="start" x="136.5" y="-116.5" font-family="Helvetica,sans-Serif" font-size="10.00">+</text>
<text text-anchor="start" x="146.5" y="-116.5" font-family="Helvetica,sans-Serif" font-size="10.00">Cone()</text>
<text text-anchor="start" x="136.5" y="-102.5" font-family="Helvetica,sans-Serif" font-size="10.00">+</text>
<text text-anchor="start" x="146.5" y="-102.5" font-family="Helvetica,sans-Serif" font-size="10.00">Cone()</text>
<text text-anchor="start" x="136.5" y="-88.5" font-family="Helvetica,sans-Serif" font-size="10.00">+</text>
<text text-anchor="start" x="146.5" y="-88.5" font-family="Helvetica,sans-Serif" font-size="10.00">~Cone()</text>
<text text-anchor="start" x="136.5" y="-74.5" font-family="Helvetica,sans-Serif" font-size="10.00">+</text>
<text text-anchor="start" x="146.5" y="-74.5" font-family="Helvetica,sans-Serif" font-size="10.00">setBaseRadius()</text>
<text text-anchor="start" x="136.5" y="-60.5" font-family="Helvetica,sans-Serif" font-size="10.00">+</text>
<text text-anchor="start" x="146.5" y="-60.5" font-family="Helvetica,sans-Serif" font-size="10.00">setHeight()</text>
<text text-anchor="start" x="136.5" y="-46.5" font-family="Helvetica,sans-Serif" font-size="10.00">+</text>
<text text-anchor="start" x="146.5" y="-46.5" font-family="Helvetica,sans-Serif" font-size="10.00">distance()</text>
<text text-anchor="start" x="136.5" y="-32.5" font-family="Helvetica,sans-Serif" font-size="10.00">+</text>
<text text-anchor="start" x="146.5" y="-32.5" font-family="Helvetica,sans-Serif" font-size="10.00">getBaseRadius()</text>
<text text-anchor="start" x="136.5" y="-18.5" font-family="Helvetica,sans-Serif" font-size="10.00">+</text>
<text text-anchor="start" x="146.5" y="-18.5" font-family="Helvetica,sans-Serif" font-size="10.00">getType()</text>
<text text-anchor="start" x="136.5" y="-4.5" font-family="Helvetica,sans-Serif" font-size="10.00">+</text>
<text text-anchor="start" x="146.5" y="-4.5" font-family="Helvetica,sans-Serif" font-size="10.00">getHeight()</text>
<polygon fill="#666666" stroke="#666666" points="132.5,-170 132.5,-170 222.5,-170 222.5,-170 132.5,-170"/>
<polygon fill="#666666" stroke="#666666" points="132.5,-128 132.5,-128 144.5,-128 144.5,-128 132.5,-128"/>
<polygon fill="#666666" stroke="#666666" points="144.5,-128 144.5,-128 222.5,-128 222.5,-128 144.5,-128"/>
<polygon fill="none" stroke="#666666" points="132.5,0 132.5,-186 222.5,-186 222.5,0 132.5,0"/>
</a>
</g>
</g>
<!-- Node2 -->
<g id="Node000002" class="node">
<title>Node2</title>
<g id="a_Node000002"><a xlink:href="classAPrimitives.html" target="_top" xlink:title=" ">
<polygon fill="white" stroke="none" points="218,-451 137,-451 137,-223 218,-223 218,-451"/>
<text text-anchor="start" x="152.75" y="-437.5" font-family="Helvetica,sans-Serif" font-size="10.00">APrimitives</text>
<text text-anchor="start" x="141.38" y="-423.5" font-family="Helvetica,sans-Serif" font-size="10.00">#</text>
<text text-anchor="start" x="151" y="-423.5" font-family="Helvetica,sans-Serif" font-size="10.00">scale</text>
<text text-anchor="start" x="141.38" y="-409.5" font-family="Helvetica,sans-Serif" font-size="10.00">#</text>
<text text-anchor="start" x="151" y="-409.5" font-family="Helvetica,sans-Serif" font-size="10.00">material</text>
<text text-anchor="start" x="141.38" y="-395.5" font-family="Helvetica,sans-Serif" font-size="10.00">#</text>
<text text-anchor="start" x="151" y="-395.5" font-family="Helvetica,sans-Serif" font-size="10.00">_scales</text>
<text text-anchor="start" x="141.38" y="-381.5" font-family="Helvetica,sans-Serif" font-size="10.00">#</text>
<text text-anchor="start" x="151" y="-381.5" font-family="Helvetica,sans-Serif" font-size="10.00">_graph</text>
<text text-anchor="start" x="141" y="-367.5" font-family="Helvetica,sans-Serif" font-size="10.00">+</text>
<text text-anchor="start" x="151" y="-367.5" font-family="Helvetica,sans-Serif" font-size="10.00">APrimitives()</text>
<text text-anchor="start" x="141" y="-353.5" font-family="Helvetica,sans-Serif" font-size="10.00">+</text>
<text text-anchor="start" x="151" y="-353.5" font-family="Helvetica,sans-Serif" font-size="10.00">APrimitives()</text>
<text text-anchor="start" x="141" y="-339.5" font-family="Helvetica,sans-Serif" font-size="10.00">+</text>
<text text-anchor="start" x="151" y="-339.5" font-family="Helvetica,sans-Serif" font-size="10.00">~APrimitives()</text>
<text text-anchor="start" x="141" y="-325.5" font-family="Helvetica,sans-Serif" font-size="10.00">+</text>
<text text-anchor="start" x="151" y="-325.5" font-family="Helvetica,sans-Serif" font-size="10.00">distance()</text>
<text text-anchor="start" x="141" y="-311.5" font-family="Helvetica,sans-Serif" font-size="10.00">+</text>
<text text-anchor="start" x="151" y="-311.5" font-family="Helvetica,sans-Serif" font-size="10.00">getType()</text>
<text text-anchor="start" x="141" y="-297.5" font-family="Helvetica,sans-Serif" font-size="10.00">+</text>
<text text-anchor="start" x="151" y="-297.5" font-family="Helvetica,sans-Serif" font-size="10.00">getPosition()</text>
<text text-anchor="start" x="141" y="-283.5" font-family="Helvetica,sans-Serif" font-size="10.00">+</text>
<text text-anchor="start" x="151" y="-283.5" font-family="Helvetica,sans-Serif" font-size="10.00">getRotation()</text>
<text text-anchor="start" x="141" y="-269.5" font-family="Helvetica,sans-Serif" font-size="10.00">+</text>
<text text-anchor="start" x="151" y="-269.5" font-family="Helvetica,sans-Serif" font-size="10.00">getScale()</text>
<text text-anchor="start" x="141" y="-255.5" font-family="Helvetica,sans-Serif" font-size="10.00">+</text>
<text text-anchor="start" x="151" y="-255.5" font-family="Helvetica,sans-Serif" font-size="10.00">getMaterial()</text>
<text text-anchor="start" x="141" y="-241.5" font-family="Helvetica,sans-Serif" font-size="10.00">+</text>
<text text-anchor="start" x="151" y="-241.5" font-family="Helvetica,sans-Serif" font-size="10.00">setPosition()</text>
<text text-anchor="start" x="151" y="-227.5" font-family="Helvetica,sans-Serif" font-size="10.00">and 12 more...</text>
<polygon fill="#bfbfbf" stroke="#bfbfbf" points="137,-435 137,-435 218,-435 218,-435 137,-435"/>
<polygon fill="#bfbfbf" stroke="#bfbfbf" points="137,-379 137,-379 149,-379 149,-379 137,-379"/>
<polygon fill="#bfbfbf" stroke="#bfbfbf" points="149,-379 149,-379 218,-379 218,-379 149,-379"/>
<polygon fill="none" stroke="#bfbfbf" points="137,-223 137,-451 218,-451 218,-223 137,-223"/>
</a>
</g>
</g>
<!-- Node2&#45;&gt;Node1 -->
<g id="edge1_Node000001_Node000002" class="edge">
<title>Node2&#45;&gt;Node1</title>
<g id="a_edge1_Node000001_Node000002"><a xlink:title=" ">
<path fill="none" stroke="#63b8ff" d="M177.5,-211.75C177.5,-203.09 177.5,-194.44 177.5,-185.99"/>
<polygon fill="none" stroke="#63b8ff" points="174,-211.63 177.5,-221.63 181,-211.63 174,-211.63"/>
</a>
</g>
</g>
<!-- Node3 -->
<g id="Node000003" class="node">
<title>Node3</title>
<g id="a_Node000003"><a xlink:href="classIPrimitives.html" target="_top" xlink:title=" ">
<polygon fill="white" stroke="none" points="75,-697.5 0,-697.5 0,-511.5 75,-511.5 75,-697.5"/>
<text text-anchor="start" x="14.62" y="-684" font-family="Helvetica,sans-Serif" font-size="10.00">IPrimitives</text>
<text text-anchor="start" x="36" y="-670" font-family="Helvetica,sans-Serif" font-size="10.00"> </text>
<text text-anchor="start" x="4" y="-656" font-family="Helvetica,sans-Serif" font-size="10.00">+</text>
<text text-anchor="start" x="14" y="-656" font-family="Helvetica,sans-Serif" font-size="10.00">~IPrimitives()</text>
<text text-anchor="start" x="4" y="-642" font-family="Helvetica,sans-Serif" font-size="10.00">+</text>
<text text-anchor="start" x="14" y="-642" font-family="Helvetica,sans-Serif" font-size="10.00">distance()</text>
<text text-anchor="start" x="4" y="-628" font-family="Helvetica,sans-Serif" font-size="10.00">+</text>
<text text-anchor="start" x="14" y="-628" font-family="Helvetica,sans-Serif" font-size="10.00">getType()</text>
<text text-anchor="start" x="4" y="-614" font-family="Helvetica,sans-Serif" font-size="10.00">+</text>
<text text-anchor="start" x="14" y="-614" font-family="Helvetica,sans-Serif" font-size="10.00">getPosition()</text>
<text text-anchor="start" x="4" y="-600" font-family="Helvetica,sans-Serif" font-size="10.00">+</text>
<text text-anchor="start" x="14" y="-600" font-family="Helvetica,sans-Serif" font-size="10.00">getRotation()</text>
<text text-anchor="start" x="4" y="-586" font-family="Helvetica,sans-Serif" font-size="10.00">+</text>
<text text-anchor="start" x="14" y="-586" font-family="Helvetica,sans-Serif" font-size="10.00">getScale()</text>
<text text-anchor="start" x="4" y="-572" font-family="Helvetica,sans-Serif" font-size="10.00">+</text>
<text text-anchor="start" x="14" y="-572" font-family="Helvetica,sans-Serif" font-size="10.00">getMaterial()</text>
<text text-anchor="start" x="4" y="-558" font-family="Helvetica,sans-Serif" font-size="10.00">+</text>
<text text-anchor="start" x="14" y="-558" font-family="Helvetica,sans-Serif" font-size="10.00">setPosition()</text>
<text text-anchor="start" x="4" y="-544" font-family="Helvetica,sans-Serif" font-size="10.00">+</text>
<text text-anchor="start" x="14" y="-544" font-family="Helvetica,sans-Serif" font-size="10.00">setRotation()</text>
<text text-anchor="start" x="4" y="-530" font-family="Helvetica,sans-Serif" font-size="10.00">+</text>
<text text-anchor="start" x="14" y="-530" font-family="Helvetica,sans-Serif" font-size="10.00">setScale()</text>
<text text-anchor="start" x="4" y="-516" font-family="Helvetica,sans-Serif" font-size="10.00">+</text>
<text text-anchor="start" x="14" y="-516" font-family="Helvetica,sans-Serif" font-size="10.00">setMaterial()</text>
<polygon fill="#bfbfbf" stroke="#bfbfbf" points="0,-681.5 0,-681.5 75,-681.5 75,-681.5 0,-681.5"/>
<polygon fill="#bfbfbf" stroke="#bfbfbf" points="0,-667.5 0,-667.5 75,-667.5 75,-667.5 0,-667.5"/>
<polygon fill="none" stroke="#bfbfbf" points="0,-511.5 0,-697.5 75,-697.5 75,-511.5 0,-511.5"/>
</a>
</g>
</g>
<!-- Node3&#45;&gt;Node2 -->
<g id="edge2_Node000002_Node000003" class="edge">
<title>Node3&#45;&gt;Node2</title>
<g id="a_edge2_Node000002_Node000003"><a xlink:title=" ">
<path fill="none" stroke="#63b8ff" d="M79.88,-504.73C81.08,-502.29 82.29,-499.88 83.5,-497.5 99.76,-465.56 119.69,-431.19 137.01,-402.56"/>
<polygon fill="none" stroke="#63b8ff" points="76.82,-503.02 75.62,-513.55 83.12,-506.06 76.82,-503.02"/>
</a>
</g>
</g>
<!-- Node4 -->
<g id="Node000004" class="node">
<title>Node4</title>
<g id="a_Node000004"><a xlink:href="classMath_1_1Point3D.html" target="_top" xlink:title=" ">
<polygon fill="white" stroke="none" points="168,-711.5 93,-711.5 93,-497.5 168,-497.5 168,-711.5"/>
<text text-anchor="start" x="99" y="-698" font-family="Helvetica,sans-Serif" font-size="10.00">Math::Point3D</text>
<text text-anchor="start" x="98.5" y="-684" font-family="Helvetica,sans-Serif" font-size="10.00">&#45;</text>
<text text-anchor="start" x="107" y="-684" font-family="Helvetica,sans-Serif" font-size="10.00">x</text>
<text text-anchor="start" x="98.5" y="-670" font-family="Helvetica,sans-Serif" font-size="10.00">&#45;</text>
<text text-anchor="start" x="107" y="-670" font-family="Helvetica,sans-Serif" font-size="10.00">y</text>
<text text-anchor="start" x="98.5" y="-656" font-family="Helvetica,sans-Serif" font-size="10.00">&#45;</text>
<text text-anchor="start" x="107" y="-656" font-family="Helvetica,sans-Serif" font-size="10.00">z</text>
<text text-anchor="start" x="97" y="-642" font-family="Helvetica,sans-Serif" font-size="10.00">+</text>
<text text-anchor="start" x="107" y="-642" font-family="Helvetica,sans-Serif" font-size="10.00">Point3D()</text>
<text text-anchor="start" x="97" y="-628" font-family="Helvetica,sans-Serif" font-size="10.00">+</text>
<text text-anchor="start" x="107" y="-628" font-family="Helvetica,sans-Serif" font-size="10.00">Point3D()</text>
<text text-anchor="start" x="97" y="-614" font-family="Helvetica,sans-Serif" font-size="10.00">+</text>
<text text-anchor="start" x="107" y="-614" font-family="Helvetica,sans-Serif" font-size="10.00">~Point3D()</text>
<text text-anchor="start" x="97" y="-600" font-family="Helvetica,sans-Serif" font-size="10.00">+</text>
<text text-anchor="start" x="107" y="-600" font-family="Helvetica,sans-Serif" font-size="10.00">getX()</text>
<text text-anchor="start" x="97" y="-586" font-family="Helvetica,sans-Serif" font-size="10.00">+</text>
<text text-anchor="start" x="107" y="-586" font-family="Helvetica,sans-Serif" font-size="10.00">getY()</text>
<text text-anchor="start" x="97" y="-572" font-family="Helvetica,sans-Serif" font-size="10.00">+</text>
<text text-anchor="start" x="107" y="-572" font-family="Helvetica,sans-Serif" font-size="10.00">getZ()</text>
<text text-anchor="start" x="97" y="-558" font-family="Helvetica,sans-Serif" font-size="10.00">+</text>
<text text-anchor="start" x="107" y="-558" font-family="Helvetica,sans-Serif" font-size="10.00">setX()</text>
<text text-anchor="start" x="97" y="-544" font-family="Helvetica,sans-Serif" font-size="10.00">+</text>
<text text-anchor="start" x="107" y="-544" font-family="Helvetica,sans-Serif" font-size="10.00">setY()</text>
<text text-anchor="start" x="97" y="-530" font-family="Helvetica,sans-Serif" font-size="10.00">+</text>
<text text-anchor="start" x="107" y="-530" font-family="Helvetica,sans-Serif" font-size="10.00">setZ()</text>
<text text-anchor="start" x="97" y="-516" font-family="Helvetica,sans-Serif" font-size="10.00">+</text>
<text text-anchor="start" x="107" y="-516" font-family="Helvetica,sans-Serif" font-size="10.00">normalize()</text>
<text text-anchor="start" x="106.62" y="-502" font-family="Helvetica,sans-Serif" font-size="10.00">and 9 more...</text>
<polygon fill="#bfbfbf" stroke="#bfbfbf" points="93,-695.5 93,-695.5 168,-695.5 168,-695.5 93,-695.5"/>
<polygon fill="#bfbfbf" stroke="#bfbfbf" points="93,-653.5 93,-653.5 105,-653.5 105,-653.5 93,-653.5"/>
<polygon fill="#bfbfbf" stroke="#bfbfbf" points="105,-653.5 105,-653.5 168,-653.5 168,-653.5 105,-653.5"/>
<polygon fill="none" stroke="#bfbfbf" points="93,-497.5 93,-711.5 168,-711.5 168,-497.5 93,-497.5"/>
</a>
</g>
</g>
<!-- Node4&#45;&gt;Node2 -->
<g id="edge3_Node000002_Node000004" class="edge">
<title>Node4&#45;&gt;Node2</title>
<g id="a_edge3_Node000002_Node000004"><a xlink:title=" ">
<path fill="none" stroke="#63b8ff" d="M149.21,-497.8C151.22,-486.44 153.28,-474.8 155.33,-463.24"/>
<polygon fill="none" stroke="#63b8ff" points="155.29,-463.44 152.4,-456.84 157.39,-451.63 160.28,-458.23 155.29,-463.44"/>
</a>
</g>
<text text-anchor="middle" x="175.5" y="-470" font-family="Helvetica,sans-Serif" font-size="10.00" fill="grey"> #position</text>
</g>
<!-- Node5 -->
<g id="Node000005" class="node">
<title>Node5</title>
<g id="a_Node000005"><a xlink:href="classMath_1_1Rot3D.html" target="_top" xlink:title=" ">
<polygon fill="white" stroke="none" points="264.5,-711.5 186.5,-711.5 186.5,-497.5 264.5,-497.5 264.5,-711.5"/>
<text text-anchor="start" x="197.38" y="-698" font-family="Helvetica,sans-Serif" font-size="10.00">Math::Rot3D</text>
<text text-anchor="start" x="190.5" y="-684" font-family="Helvetica,sans-Serif" font-size="10.00">+</text>
<text text-anchor="start" x="200.5" y="-684" font-family="Helvetica,sans-Serif" font-size="10.00">x_pitch</text>
<text text-anchor="start" x="190.5" y="-670" font-family="Helvetica,sans-Serif" font-size="10.00">+</text>
<text text-anchor="start" x="200.5" y="-670" font-family="Helvetica,sans-Serif" font-size="10.00">z_yaw</text>
<text text-anchor="start" x="190.5" y="-656" font-family="Helvetica,sans-Serif" font-size="10.00">+</text>
<text text-anchor="start" x="200.5" y="-656" font-family="Helvetica,sans-Serif" font-size="10.00">y_roll</text>
<text text-anchor="start" x="190.5" y="-642" font-family="Helvetica,sans-Serif" font-size="10.00">+</text>
<text text-anchor="start" x="200.5" y="-642" font-family="Helvetica,sans-Serif" font-size="10.00">Rot3D()</text>
<text text-anchor="start" x="190.5" y="-628" font-family="Helvetica,sans-Serif" font-size="10.00">+</text>
<text text-anchor="start" x="200.5" y="-628" font-family="Helvetica,sans-Serif" font-size="10.00">Rot3D()</text>
<text text-anchor="start" x="190.5" y="-614" font-family="Helvetica,sans-Serif" font-size="10.00">+</text>
<text text-anchor="start" x="200.5" y="-614" font-family="Helvetica,sans-Serif" font-size="10.00">toVector()</text>
<text text-anchor="start" x="190.5" y="-600" font-family="Helvetica,sans-Serif" font-size="10.00">+</text>
<text text-anchor="start" x="200.5" y="-600" font-family="Helvetica,sans-Serif" font-size="10.00">operator+()</text>
<text text-anchor="start" x="190.5" y="-586" font-family="Helvetica,sans-Serif" font-size="10.00">+</text>
<text text-anchor="start" x="200.5" y="-586" font-family="Helvetica,sans-Serif" font-size="10.00">operator+=()</text>
<text text-anchor="start" x="190.5" y="-572" font-family="Helvetica,sans-Serif" font-size="10.00">+</text>
<text text-anchor="start" x="200.5" y="-572" font-family="Helvetica,sans-Serif" font-size="10.00">operator&#45;()</text>
<text text-anchor="start" x="190.5" y="-558" font-family="Helvetica,sans-Serif" font-size="10.00">+</text>
<text text-anchor="start" x="200.5" y="-558" font-family="Helvetica,sans-Serif" font-size="10.00">operator&#45;=()</text>
<text text-anchor="start" x="190.5" y="-544" font-family="Helvetica,sans-Serif" font-size="10.00">+</text>
<text text-anchor="start" x="200.5" y="-544" font-family="Helvetica,sans-Serif" font-size="10.00">operator&#45;()</text>
<text text-anchor="start" x="190.5" y="-530" font-family="Helvetica,sans-Serif" font-size="10.00">+</text>
<text text-anchor="start" x="200.5" y="-530" font-family="Helvetica,sans-Serif" font-size="10.00">toUnitVector()</text>
<text text-anchor="start" x="190.5" y="-516" font-family="Helvetica,sans-Serif" font-size="10.00">+</text>
<text text-anchor="start" x="200.5" y="-516" font-family="Helvetica,sans-Serif" font-size="10.00">rotate()</text>
<text text-anchor="start" x="200.5" y="-502" font-family="Helvetica,sans-Serif" font-size="10.00">and 6 more...</text>
<polygon fill="#bfbfbf" stroke="#bfbfbf" points="186.5,-695.5 186.5,-695.5 264.5,-695.5 264.5,-695.5 186.5,-695.5"/>
<polygon fill="#bfbfbf" stroke="#bfbfbf" points="186.5,-653.5 186.5,-653.5 198.5,-653.5 198.5,-653.5 186.5,-653.5"/>
<polygon fill="#bfbfbf" stroke="#bfbfbf" points="198.5,-653.5 198.5,-653.5 264.5,-653.5 264.5,-653.5 198.5,-653.5"/>
<polygon fill="none" stroke="#bfbfbf" points="186.5,-497.5 186.5,-711.5 264.5,-711.5 264.5,-497.5 186.5,-497.5"/>
</a>
</g>
</g>
<!-- Node5&#45;&gt;Node2 -->
<g id="edge4_Node000002_Node000005" class="edge">
<title>Node5&#45;&gt;Node2</title>
<g id="a_edge4_Node000002_Node000005"><a xlink:title=" ">
<path fill="none" stroke="#63b8ff" d="M206.39,-497.8C204.34,-486.44 202.23,-474.8 200.14,-463.24"/>
<polygon fill="none" stroke="#63b8ff" points="200.18,-463.43 195.17,-458.24 198.04,-451.63 203.05,-456.82 200.18,-463.43"/>
</a>
</g>
<text text-anchor="middle" x="225.38" y="-470" font-family="Helvetica,sans-Serif" font-size="10.00" fill="grey"> #_rotation</text>
</g>
<!-- Node6 -->
<g id="Node000006" class="node">
<title>Node6</title>
<g id="a_Node000006"><a xlink:href="classColor.html" target="_top" xlink:title=" ">
<polygon fill="white" stroke="none" points="378.5,-711.5 282.5,-711.5 282.5,-497.5 378.5,-497.5 378.5,-711.5"/>
<text text-anchor="start" x="318.88" y="-698" font-family="Helvetica,sans-Serif" font-size="10.00">Color</text>
<text text-anchor="start" x="288" y="-684" font-family="Helvetica,sans-Serif" font-size="10.00">&#45;</text>
<text text-anchor="start" x="296.5" y="-684" font-family="Helvetica,sans-Serif" font-size="10.00">_red</text>
<text text-anchor="start" x="288" y="-670" font-family="Helvetica,sans-Serif" font-size="10.00">&#45;</text>
<text text-anchor="start" x="296.5" y="-670" font-family="Helvetica,sans-Serif" font-size="10.00">_green</text>
<text text-anchor="start" x="288" y="-656" font-family="Helvetica,sans-Serif" font-size="10.00">&#45;</text>
<text text-anchor="start" x="296.5" y="-656" font-family="Helvetica,sans-Serif" font-size="10.00">_blue</text>
<text text-anchor="start" x="288" y="-642" font-family="Helvetica,sans-Serif" font-size="10.00">&#45;</text>
<text text-anchor="start" x="296.5" y="-642" font-family="Helvetica,sans-Serif" font-size="10.00">_transparency</text>
<text text-anchor="start" x="286.5" y="-628" font-family="Helvetica,sans-Serif" font-size="10.00">+</text>
<text text-anchor="start" x="296.5" y="-628" font-family="Helvetica,sans-Serif" font-size="10.00">Color()</text>
<text text-anchor="start" x="286.5" y="-614" font-family="Helvetica,sans-Serif" font-size="10.00">+</text>
<text text-anchor="start" x="296.5" y="-614" font-family="Helvetica,sans-Serif" font-size="10.00">~Color()</text>
<text text-anchor="start" x="286.5" y="-600" font-family="Helvetica,sans-Serif" font-size="10.00">+</text>
<text text-anchor="start" x="296.5" y="-600" font-family="Helvetica,sans-Serif" font-size="10.00">Color()</text>
<text text-anchor="start" x="286.5" y="-586" font-family="Helvetica,sans-Serif" font-size="10.00">+</text>
<text text-anchor="start" x="296.5" y="-586" font-family="Helvetica,sans-Serif" font-size="10.00">Color()</text>
<text text-anchor="start" x="286.5" y="-572" font-family="Helvetica,sans-Serif" font-size="10.00">+</text>
<text text-anchor="start" x="296.5" y="-572" font-family="Helvetica,sans-Serif" font-size="10.00">operator=()</text>
<text text-anchor="start" x="286.5" y="-558" font-family="Helvetica,sans-Serif" font-size="10.00">+</text>
<text text-anchor="start" x="296.5" y="-558" font-family="Helvetica,sans-Serif" font-size="10.00">setTransparency()</text>
<text text-anchor="start" x="286.5" y="-544" font-family="Helvetica,sans-Serif" font-size="10.00">+</text>
<text text-anchor="start" x="296.5" y="-544" font-family="Helvetica,sans-Serif" font-size="10.00">getRed()</text>
<text text-anchor="start" x="286.5" y="-530" font-family="Helvetica,sans-Serif" font-size="10.00">+</text>
<text text-anchor="start" x="296.5" y="-530" font-family="Helvetica,sans-Serif" font-size="10.00">getGreen()</text>
<text text-anchor="start" x="286.5" y="-516" font-family="Helvetica,sans-Serif" font-size="10.00">+</text>
<text text-anchor="start" x="296.5" y="-516" font-family="Helvetica,sans-Serif" font-size="10.00">getBlue()</text>
<text text-anchor="start" x="286.5" y="-502" font-family="Helvetica,sans-Serif" font-size="10.00">+</text>
<text text-anchor="start" x="296.5" y="-502" font-family="Helvetica,sans-Serif" font-size="10.00">getTransparency()</text>
<polygon fill="#bfbfbf" stroke="#bfbfbf" points="282.5,-695.5 282.5,-695.5 378.5,-695.5 378.5,-695.5 282.5,-695.5"/>
<polygon fill="#bfbfbf" stroke="#bfbfbf" points="282.5,-639.5 282.5,-639.5 294.5,-639.5 294.5,-639.5 282.5,-639.5"/>
<polygon fill="#bfbfbf" stroke="#bfbfbf" points="294.5,-639.5 294.5,-639.5 378.5,-639.5 378.5,-639.5 294.5,-639.5"/>
<polygon fill="none" stroke="#bfbfbf" points="282.5,-497.5 282.5,-711.5 378.5,-711.5 378.5,-497.5 282.5,-497.5"/>
</a>
</g>
</g>
<!-- Node6&#45;&gt;Node2 -->
<g id="edge5_Node000002_Node000006" class="edge">
<title>Node6&#45;&gt;Node2</title>
<g id="a_edge5_Node000002_Node000006"><a xlink:title=" ">
<path fill="none" stroke="#63b8ff" d="M282.6,-513.69C279.55,-508.2 276.5,-502.77 273.5,-497.5 257.97,-470.22 240.4,-440.68 224.58,-414.53"/>
<polygon fill="none" stroke="#63b8ff" points="224.61,-414.57 218.08,-411.51 218.39,-404.31 224.92,-407.37 224.61,-414.57"/>
</a>
</g>
<text text-anchor="middle" x="277.75" y="-470" font-family="Helvetica,sans-Serif" font-size="10.00" fill="grey"> #_color</text>
</g>
</g>
</svg>
