<?xml version="1.0" encoding="UTF-8" standalone="no"?>
<!DOCTYPE svg PUBLIC "-//W3C//DTD SVG 1.1//EN"
 "http://www.w3.org/Graphics/SVG/1.1/DTD/svg11.dtd">
<!-- Generated by graphviz version 9.0.0 (20230911.1827)
 -->
<!-- Title: IException Pages: 1 -->
<svg width="129pt" height="192pt"
 viewBox="0.00 0.00 129.00 192.00" xmlns="http://www.w3.org/2000/svg" xmlns:xlink="http://www.w3.org/1999/xlink">
<g id="graph0" class="graph" transform="scale(1 1) rotate(0) translate(4 188)">
<title>IException</title>
<!-- Node1 -->
<g id="Node000001" class="node">
<title>Node1</title>
<g id="a_Node000001"><a xlink:title=" ">
<polygon fill="#999999" stroke="none" points="121,-102 0,-102 0,0 121,0 121,-102"/>
<text text-anchor="start" x="37.62" y="-88.5" font-family="Helvetica,sans-Serif" font-size="10.00">IException</text>
<text text-anchor="start" x="59" y="-74.5" font-family="Helvetica,sans-Serif" font-size="10.00"> </text>
<text text-anchor="start" x="4" y="-60.5" font-family="Helvetica,sans-Serif" font-size="10.00">+</text>
<text text-anchor="start" x="14" y="-60.5" font-family="Helvetica,sans-Serif" font-size="10.00">~IException()</text>
<text text-anchor="start" x="4" y="-46.5" font-family="Helvetica,sans-Serif" font-size="10.00">+</text>
<text text-anchor="start" x="14" y="-46.5" font-family="Helvetica,sans-Serif" font-size="10.00">what()</text>
<text text-anchor="start" x="4" y="-32.5" font-family="Helvetica,sans-Serif" font-size="10.00">+</text>
<text text-anchor="start" x="14" y="-32.5" font-family="Helvetica,sans-Serif" font-size="10.00">getType()</text>
<text text-anchor="start" x="4" y="-18.5" font-family="Helvetica,sans-Serif" font-size="10.00">+</text>
<text text-anchor="start" x="14" y="-18.5" font-family="Helvetica,sans-Serif" font-size="10.00">getMessage()</text>
<text text-anchor="start" x="4" y="-4.5" font-family="Helvetica,sans-Serif" font-size="10.00">+</text>
<text text-anchor="start" x="14" y="-4.5" font-family="Helvetica,sans-Serif" font-size="10.00">getFormattedMessage()</text>
<polygon fill="#666666" stroke="#666666" points="0,-86 0,-86 121,-86 121,-86 0,-86"/>
<polygon fill="#666666" stroke="#666666" points="0,-72 0,-72 121,-72 121,-72 0,-72"/>
<polygon fill="none" stroke="#666666" points="0,0 0,-102 121,-102 121,0 0,0"/>
</a>
</g>
</g>
<!-- Node2 -->
<g id="Node000002" class="node">
<title>Node2</title>
<g id="a_Node000002"><a xlink:title=" ">
<polygon fill="white" stroke="none" points="95.5,-184 25.5,-184 25.5,-138 95.5,-138 95.5,-184"/>
<text text-anchor="start" x="30.12" y="-170.5" font-family="Helvetica,sans-Serif" font-size="10.00">std::exception</text>
<text text-anchor="start" x="59" y="-156.5" font-family="Helvetica,sans-Serif" font-size="10.00"> </text>
<text text-anchor="start" x="59" y="-142.5" font-family="Helvetica,sans-Serif" font-size="10.00"> </text>
<polygon fill="#bfbfbf" stroke="#bfbfbf" points="25.5,-168 25.5,-168 95.5,-168 95.5,-168 25.5,-168"/>
<polygon fill="#bfbfbf" stroke="#bfbfbf" points="25.5,-154 25.5,-154 95.5,-154 95.5,-154 25.5,-154"/>
<polygon fill="none" stroke="#bfbfbf" points="25.5,-138 25.5,-184 95.5,-184 95.5,-138 25.5,-138"/>
</a>
</g>
</g>
<!-- Node2&#45;&gt;Node1 -->
<g id="edge1_Node000001_Node000002" class="edge">
<title>Node2&#45;&gt;Node1</title>
<g id="a_edge1_Node000001_Node000002"><a xlink:title=" ">
<path fill="none" stroke="#63b8ff" d="M60.5,-126.83C60.5,-118.95 60.5,-110.38 60.5,-101.93"/>
<polygon fill="none" stroke="#63b8ff" points="57,-126.63 60.5,-136.63 64,-126.63 57,-126.63"/>
</a>
</g>
</g>
</g>
</svg>
