<?xml version="1.0" encoding="UTF-8" standalone="no"?>
<!DOCTYPE svg PUBLIC "-//W3C//DTD SVG 1.1//EN"
 "http://www.w3.org/Graphics/SVG/1.1/DTD/svg11.dtd">
<!-- Generated by graphviz version 9.0.0 (20230911.1827)
 -->
<!-- Title: Ray Pages: 1 -->
<svg width="198pt" height="483pt"
 viewBox="0.00 0.00 197.50 482.50" xmlns="http://www.w3.org/2000/svg" xmlns:xlink="http://www.w3.org/1999/xlink">
<g id="graph0" class="graph" transform="scale(1 1) rotate(0) translate(4 478.5)">
<title>Ray</title>
<!-- Node1 -->
<g id="Node000001" class="node">
<title>Node1</title>
<g id="a_Node000001"><a xlink:title=" ">
<polygon fill="#999999" stroke="none" points="127.5,-214 51.5,-214 51.5,0 127.5,0 127.5,-214"/>
<text text-anchor="start" x="80.88" y="-200.5" font-family="Helvetica,sans-Serif" font-size="10.00">Ray</text>
<text text-anchor="start" x="57" y="-186.5" font-family="Helvetica,sans-Serif" font-size="10.00">&#45;</text>
<text text-anchor="start" x="65.5" y="-186.5" font-family="Helvetica,sans-Serif" font-size="10.00">_direction</text>
<text text-anchor="start" x="57" y="-172.5" font-family="Helvetica,sans-Serif" font-size="10.00">&#45;</text>
<text text-anchor="start" x="65.5" y="-172.5" font-family="Helvetica,sans-Serif" font-size="10.00">_intensity</text>
<text text-anchor="start" x="55.5" y="-158.5" font-family="Helvetica,sans-Serif" font-size="10.00">+</text>
<text text-anchor="start" x="65.5" y="-158.5" font-family="Helvetica,sans-Serif" font-size="10.00">Ray()</text>
<text text-anchor="start" x="55.5" y="-144.5" font-family="Helvetica,sans-Serif" font-size="10.00">+</text>
<text text-anchor="start" x="65.5" y="-144.5" font-family="Helvetica,sans-Serif" font-size="10.00">Ray()</text>
<text text-anchor="start" x="55.5" y="-130.5" font-family="Helvetica,sans-Serif" font-size="10.00">+</text>
<text text-anchor="start" x="65.5" y="-130.5" font-family="Helvetica,sans-Serif" font-size="10.00">Ray()</text>
<text text-anchor="start" x="55.5" y="-116.5" font-family="Helvetica,sans-Serif" font-size="10.00">+</text>
<text text-anchor="start" x="65.5" y="-116.5" font-family="Helvetica,sans-Serif" font-size="10.00">~Ray()</text>
<text text-anchor="start" x="55.5" y="-102.5" font-family="Helvetica,sans-Serif" font-size="10.00">+</text>
<text text-anchor="start" x="65.5" y="-102.5" font-family="Helvetica,sans-Serif" font-size="10.00">setOrigin()</text>
<text text-anchor="start" x="55.5" y="-88.5" font-family="Helvetica,sans-Serif" font-size="10.00">+</text>
<text text-anchor="start" x="65.5" y="-88.5" font-family="Helvetica,sans-Serif" font-size="10.00">setDirection()</text>
<text text-anchor="start" x="55.5" y="-74.5" font-family="Helvetica,sans-Serif" font-size="10.00">+</text>
<text text-anchor="start" x="65.5" y="-74.5" font-family="Helvetica,sans-Serif" font-size="10.00">setColor()</text>
<text text-anchor="start" x="55.5" y="-60.5" font-family="Helvetica,sans-Serif" font-size="10.00">+</text>
<text text-anchor="start" x="65.5" y="-60.5" font-family="Helvetica,sans-Serif" font-size="10.00">setIntensity()</text>
<text text-anchor="start" x="55.5" y="-46.5" font-family="Helvetica,sans-Serif" font-size="10.00">+</text>
<text text-anchor="start" x="65.5" y="-46.5" font-family="Helvetica,sans-Serif" font-size="10.00">getOrigin()</text>
<text text-anchor="start" x="55.5" y="-32.5" font-family="Helvetica,sans-Serif" font-size="10.00">+</text>
<text text-anchor="start" x="65.5" y="-32.5" font-family="Helvetica,sans-Serif" font-size="10.00">getDirection()</text>
<text text-anchor="start" x="55.5" y="-18.5" font-family="Helvetica,sans-Serif" font-size="10.00">+</text>
<text text-anchor="start" x="65.5" y="-18.5" font-family="Helvetica,sans-Serif" font-size="10.00">getColor()</text>
<text text-anchor="start" x="55.5" y="-4.5" font-family="Helvetica,sans-Serif" font-size="10.00">+</text>
<text text-anchor="start" x="65.5" y="-4.5" font-family="Helvetica,sans-Serif" font-size="10.00">getIntensity()</text>
<polygon fill="#666666" stroke="#666666" points="51.5,-198 51.5,-198 127.5,-198 127.5,-198 51.5,-198"/>
<polygon fill="#666666" stroke="#666666" points="51.5,-170 51.5,-170 63.5,-170 63.5,-170 51.5,-170"/>
<polygon fill="#666666" stroke="#666666" points="63.5,-170 63.5,-170 127.5,-170 127.5,-170 63.5,-170"/>
<polygon fill="none" stroke="#666666" points="51.5,0 51.5,-214 127.5,-214 127.5,0 51.5,0"/>
</a>
</g>
</g>
<!-- Node2 -->
<g id="Node000002" class="node">
<title>Node2</title>
<g id="a_Node000002"><a xlink:href="classMath_1_1Point3D.html" target="_top" xlink:title=" ">
<polygon fill="white" stroke="none" points="75,-474.5 0,-474.5 0,-260.5 75,-260.5 75,-474.5"/>
<text text-anchor="start" x="6" y="-461" font-family="Helvetica,sans-Serif" font-size="10.00">Math::Point3D</text>
<text text-anchor="start" x="5.5" y="-447" font-family="Helvetica,sans-Serif" font-size="10.00">&#45;</text>
<text text-anchor="start" x="14" y="-447" font-family="Helvetica,sans-Serif" font-size="10.00">x</text>
<text text-anchor="start" x="5.5" y="-433" font-family="Helvetica,sans-Serif" font-size="10.00">&#45;</text>
<text text-anchor="start" x="14" y="-433" font-family="Helvetica,sans-Serif" font-size="10.00">y</text>
<text text-anchor="start" x="5.5" y="-419" font-family="Helvetica,sans-Serif" font-size="10.00">&#45;</text>
<text text-anchor="start" x="14" y="-419" font-family="Helvetica,sans-Serif" font-size="10.00">z</text>
<text text-anchor="start" x="4" y="-405" font-family="Helvetica,sans-Serif" font-size="10.00">+</text>
<text text-anchor="start" x="14" y="-405" font-family="Helvetica,sans-Serif" font-size="10.00">Point3D()</text>
<text text-anchor="start" x="4" y="-391" font-family="Helvetica,sans-Serif" font-size="10.00">+</text>
<text text-anchor="start" x="14" y="-391" font-family="Helvetica,sans-Serif" font-size="10.00">Point3D()</text>
<text text-anchor="start" x="4" y="-377" font-family="Helvetica,sans-Serif" font-size="10.00">+</text>
<text text-anchor="start" x="14" y="-377" font-family="Helvetica,sans-Serif" font-size="10.00">~Point3D()</text>
<text text-anchor="start" x="4" y="-363" font-family="Helvetica,sans-Serif" font-size="10.00">+</text>
<text text-anchor="start" x="14" y="-363" font-family="Helvetica,sans-Serif" font-size="10.00">getX()</text>
<text text-anchor="start" x="4" y="-349" font-family="Helvetica,sans-Serif" font-size="10.00">+</text>
<text text-anchor="start" x="14" y="-349" font-family="Helvetica,sans-Serif" font-size="10.00">getY()</text>
<text text-anchor="start" x="4" y="-335" font-family="Helvetica,sans-Serif" font-size="10.00">+</text>
<text text-anchor="start" x="14" y="-335" font-family="Helvetica,sans-Serif" font-size="10.00">getZ()</text>
<text text-anchor="start" x="4" y="-321" font-family="Helvetica,sans-Serif" font-size="10.00">+</text>
<text text-anchor="start" x="14" y="-321" font-family="Helvetica,sans-Serif" font-size="10.00">setX()</text>
<text text-anchor="start" x="4" y="-307" font-family="Helvetica,sans-Serif" font-size="10.00">+</text>
<text text-anchor="start" x="14" y="-307" font-family="Helvetica,sans-Serif" font-size="10.00">setY()</text>
<text text-anchor="start" x="4" y="-293" font-family="Helvetica,sans-Serif" font-size="10.00">+</text>
<text text-anchor="start" x="14" y="-293" font-family="Helvetica,sans-Serif" font-size="10.00">setZ()</text>
<text text-anchor="start" x="4" y="-279" font-family="Helvetica,sans-Serif" font-size="10.00">+</text>
<text text-anchor="start" x="14" y="-279" font-family="Helvetica,sans-Serif" font-size="10.00">normalize()</text>
<text text-anchor="start" x="13.62" y="-265" font-family="Helvetica,sans-Serif" font-size="10.00">and 9 more...</text>
<polygon fill="#bfbfbf" stroke="#bfbfbf" points="0,-458.5 0,-458.5 75,-458.5 75,-458.5 0,-458.5"/>
<polygon fill="#bfbfbf" stroke="#bfbfbf" points="0,-416.5 0,-416.5 12,-416.5 12,-416.5 0,-416.5"/>
<polygon fill="#bfbfbf" stroke="#bfbfbf" points="12,-416.5 12,-416.5 75,-416.5 75,-416.5 12,-416.5"/>
<polygon fill="none" stroke="#bfbfbf" points="0,-260.5 0,-474.5 75,-474.5 75,-260.5 0,-260.5"/>
</a>
</g>
</g>
<!-- Node2&#45;&gt;Node1 -->
<g id="edge1_Node000001_Node000002" class="edge">
<title>Node2&#45;&gt;Node1</title>
<g id="a_edge1_Node000001_Node000002"><a xlink:title=" ">
<path fill="none" stroke="#63b8ff" d="M58.8,-260.61C61.06,-249.37 63.37,-237.88 65.66,-226.5"/>
<polygon fill="none" stroke="#63b8ff" points="65.69,-226.37 62.95,-219.7 68.05,-214.61 70.79,-221.28 65.69,-226.37"/>
</a>
</g>
<text text-anchor="middle" x="80.75" y="-233" font-family="Helvetica,sans-Serif" font-size="10.00" fill="grey"> &#45;_origin</text>
</g>
<!-- Node3 -->
<g id="Node000003" class="node">
<title>Node3</title>
<g id="a_Node000003"><a xlink:href="classColor.html" target="_top" xlink:title=" ">
<polygon fill="white" stroke="none" points="189.5,-474.5 93.5,-474.5 93.5,-260.5 189.5,-260.5 189.5,-474.5"/>
<text text-anchor="start" x="129.88" y="-461" font-family="Helvetica,sans-Serif" font-size="10.00">Color</text>
<text text-anchor="start" x="99" y="-447" font-family="Helvetica,sans-Serif" font-size="10.00">&#45;</text>
<text text-anchor="start" x="107.5" y="-447" font-family="Helvetica,sans-Serif" font-size="10.00">_red</text>
<text text-anchor="start" x="99" y="-433" font-family="Helvetica,sans-Serif" font-size="10.00">&#45;</text>
<text text-anchor="start" x="107.5" y="-433" font-family="Helvetica,sans-Serif" font-size="10.00">_green</text>
<text text-anchor="start" x="99" y="-419" font-family="Helvetica,sans-Serif" font-size="10.00">&#45;</text>
<text text-anchor="start" x="107.5" y="-419" font-family="Helvetica,sans-Serif" font-size="10.00">_blue</text>
<text text-anchor="start" x="99" y="-405" font-family="Helvetica,sans-Serif" font-size="10.00">&#45;</text>
<text text-anchor="start" x="107.5" y="-405" font-family="Helvetica,sans-Serif" font-size="10.00">_transparency</text>
<text text-anchor="start" x="97.5" y="-391" font-family="Helvetica,sans-Serif" font-size="10.00">+</text>
<text text-anchor="start" x="107.5" y="-391" font-family="Helvetica,sans-Serif" font-size="10.00">Color()</text>
<text text-anchor="start" x="97.5" y="-377" font-family="Helvetica,sans-Serif" font-size="10.00">+</text>
<text text-anchor="start" x="107.5" y="-377" font-family="Helvetica,sans-Serif" font-size="10.00">~Color()</text>
<text text-anchor="start" x="97.5" y="-363" font-family="Helvetica,sans-Serif" font-size="10.00">+</text>
<text text-anchor="start" x="107.5" y="-363" font-family="Helvetica,sans-Serif" font-size="10.00">Color()</text>
<text text-anchor="start" x="97.5" y="-349" font-family="Helvetica,sans-Serif" font-size="10.00">+</text>
<text text-anchor="start" x="107.5" y="-349" font-family="Helvetica,sans-Serif" font-size="10.00">Color()</text>
<text text-anchor="start" x="97.5" y="-335" font-family="Helvetica,sans-Serif" font-size="10.00">+</text>
<text text-anchor="start" x="107.5" y="-335" font-family="Helvetica,sans-Serif" font-size="10.00">operator=()</text>
<text text-anchor="start" x="97.5" y="-321" font-family="Helvetica,sans-Serif" font-size="10.00">+</text>
<text text-anchor="start" x="107.5" y="-321" font-family="Helvetica,sans-Serif" font-size="10.00">setTransparency()</text>
<text text-anchor="start" x="97.5" y="-307" font-family="Helvetica,sans-Serif" font-size="10.00">+</text>
<text text-anchor="start" x="107.5" y="-307" font-family="Helvetica,sans-Serif" font-size="10.00">getRed()</text>
<text text-anchor="start" x="97.5" y="-293" font-family="Helvetica,sans-Serif" font-size="10.00">+</text>
<text text-anchor="start" x="107.5" y="-293" font-family="Helvetica,sans-Serif" font-size="10.00">getGreen()</text>
<text text-anchor="start" x="97.5" y="-279" font-family="Helvetica,sans-Serif" font-size="10.00">+</text>
<text text-anchor="start" x="107.5" y="-279" font-family="Helvetica,sans-Serif" font-size="10.00">getBlue()</text>
<text text-anchor="start" x="97.5" y="-265" font-family="Helvetica,sans-Serif" font-size="10.00">+</text>
<text text-anchor="start" x="107.5" y="-265" font-family="Helvetica,sans-Serif" font-size="10.00">getTransparency()</text>
<polygon fill="#bfbfbf" stroke="#bfbfbf" points="93.5,-458.5 93.5,-458.5 189.5,-458.5 189.5,-458.5 93.5,-458.5"/>
<polygon fill="#bfbfbf" stroke="#bfbfbf" points="93.5,-402.5 93.5,-402.5 105.5,-402.5 105.5,-402.5 93.5,-402.5"/>
<polygon fill="#bfbfbf" stroke="#bfbfbf" points="105.5,-402.5 105.5,-402.5 189.5,-402.5 189.5,-402.5 105.5,-402.5"/>
<polygon fill="none" stroke="#bfbfbf" points="93.5,-260.5 93.5,-474.5 189.5,-474.5 189.5,-260.5 93.5,-260.5"/>
</a>
</g>
</g>
<!-- Node3&#45;&gt;Node1 -->
<g id="edge2_Node000001_Node000003" class="edge">
<title>Node3&#45;&gt;Node1</title>
<g id="a_edge2_Node000001_Node000003"><a xlink:title=" ">
<path fill="none" stroke="#63b8ff" d="M120.2,-260.61C117.94,-249.37 115.63,-237.88 113.34,-226.5"/>
<polygon fill="none" stroke="#63b8ff" points="113.31,-226.37 108.21,-221.28 110.95,-214.61 116.05,-219.7 113.31,-226.37"/>
</a>
</g>
<text text-anchor="middle" x="131.62" y="-233" font-family="Helvetica,sans-Serif" font-size="10.00" fill="grey"> &#45;_color</text>
</g>
</g>
</svg>
