<?xml version="1.0" encoding="UTF-8" standalone="no"?>
<!DOCTYPE svg PUBLIC "-//W3C//DTD SVG 1.1//EN"
 "http://www.w3.org/Graphics/SVG/1.1/DTD/svg11.dtd">
<!-- Generated by graphviz version 9.0.0 (20230911.1827)
 -->
<!-- Title: Cone Pages: 1 -->
<svg width="98pt" height="722pt"
 viewBox="0.00 0.00 98.00 722.00" xmlns="http://www.w3.org/2000/svg" xmlns:xlink="http://www.w3.org/1999/xlink">
<g id="graph0" class="graph" transform="scale(1 1) rotate(0) translate(4 718)">
<title>Cone</title>
<!-- Node1 -->
<g id="Node000001" class="node">
<title>Node1</title>
<g id="a_Node000001"><a xlink:title=" ">
<polygon fill="#999999" stroke="none" points="90,-186 0,-186 0,0 90,0 90,-186"/>
<text text-anchor="start" x="33.38" y="-172.5" font-family="Helvetica,sans-Serif" font-size="10.00">Cone</text>
<text text-anchor="start" x="5.5" y="-158.5" font-family="Helvetica,sans-Serif" font-size="10.00">&#45;</text>
<text text-anchor="start" x="14" y="-158.5" font-family="Helvetica,sans-Serif" font-size="10.00">_baseRadius</text>
<text text-anchor="start" x="5.5" y="-144.5" font-family="Helvetica,sans-Serif" font-size="10.00">&#45;</text>
<text text-anchor="start" x="14" y="-144.5" font-family="Helvetica,sans-Serif" font-size="10.00">_height</text>
<text text-anchor="start" x="5.5" y="-130.5" font-family="Helvetica,sans-Serif" font-size="10.00">&#45;</text>
<text text-anchor="start" x="14" y="-130.5" font-family="Helvetica,sans-Serif" font-size="10.00">_distance</text>
<text text-anchor="start" x="4" y="-116.5" font-family="Helvetica,sans-Serif" font-size="10.00">+</text>
<text text-anchor="start" x="14" y="-116.5" font-family="Helvetica,sans-Serif" font-size="10.00">Cone()</text>
<text text-anchor="start" x="4" y="-102.5" font-family="Helvetica,sans-Serif" font-size="10.00">+</text>
<text text-anchor="start" x="14" y="-102.5" font-family="Helvetica,sans-Serif" font-size="10.00">Cone()</text>
<text text-anchor="start" x="4" y="-88.5" font-family="Helvetica,sans-Serif" font-size="10.00">+</text>
<text text-anchor="start" x="14" y="-88.5" font-family="Helvetica,sans-Serif" font-size="10.00">~Cone()</text>
<text text-anchor="start" x="4" y="-74.5" font-family="Helvetica,sans-Serif" font-size="10.00">+</text>
<text text-anchor="start" x="14" y="-74.5" font-family="Helvetica,sans-Serif" font-size="10.00">setBaseRadius()</text>
<text text-anchor="start" x="4" y="-60.5" font-family="Helvetica,sans-Serif" font-size="10.00">+</text>
<text text-anchor="start" x="14" y="-60.5" font-family="Helvetica,sans-Serif" font-size="10.00">setHeight()</text>
<text text-anchor="start" x="4" y="-46.5" font-family="Helvetica,sans-Serif" font-size="10.00">+</text>
<text text-anchor="start" x="14" y="-46.5" font-family="Helvetica,sans-Serif" font-size="10.00">distance()</text>
<text text-anchor="start" x="4" y="-32.5" font-family="Helvetica,sans-Serif" font-size="10.00">+</text>
<text text-anchor="start" x="14" y="-32.5" font-family="Helvetica,sans-Serif" font-size="10.00">getBaseRadius()</text>
<text text-anchor="start" x="4" y="-18.5" font-family="Helvetica,sans-Serif" font-size="10.00">+</text>
<text text-anchor="start" x="14" y="-18.5" font-family="Helvetica,sans-Serif" font-size="10.00">getType()</text>
<text text-anchor="start" x="4" y="-4.5" font-family="Helvetica,sans-Serif" font-size="10.00">+</text>
<text text-anchor="start" x="14" y="-4.5" font-family="Helvetica,sans-Serif" font-size="10.00">getHeight()</text>
<polygon fill="#666666" stroke="#666666" points="0,-170 0,-170 90,-170 90,-170 0,-170"/>
<polygon fill="#666666" stroke="#666666" points="0,-128 0,-128 12,-128 12,-128 0,-128"/>
<polygon fill="#666666" stroke="#666666" points="12,-128 12,-128 90,-128 90,-128 12,-128"/>
<polygon fill="none" stroke="#666666" points="0,0 0,-186 90,-186 90,0 0,0"/>
</a>
</g>
</g>
<!-- Node2 -->
<g id="Node000002" class="node">
<title>Node2</title>
<g id="a_Node000002"><a xlink:href="classAPrimitives.html" target="_top" xlink:title=" ">
<polygon fill="white" stroke="none" points="85.5,-492 4.5,-492 4.5,-222 85.5,-222 85.5,-492"/>
<text text-anchor="start" x="20.25" y="-478.5" font-family="Helvetica,sans-Serif" font-size="10.00">APrimitives</text>
<text text-anchor="start" x="8.88" y="-464.5" font-family="Helvetica,sans-Serif" font-size="10.00">#</text>
<text text-anchor="start" x="18.5" y="-464.5" font-family="Helvetica,sans-Serif" font-size="10.00">position</text>
<text text-anchor="start" x="8.88" y="-450.5" font-family="Helvetica,sans-Serif" font-size="10.00">#</text>
<text text-anchor="start" x="18.5" y="-450.5" font-family="Helvetica,sans-Serif" font-size="10.00">_rotation</text>
<text text-anchor="start" x="8.88" y="-436.5" font-family="Helvetica,sans-Serif" font-size="10.00">#</text>
<text text-anchor="start" x="18.5" y="-436.5" font-family="Helvetica,sans-Serif" font-size="10.00">scale</text>
<text text-anchor="start" x="8.88" y="-422.5" font-family="Helvetica,sans-Serif" font-size="10.00">#</text>
<text text-anchor="start" x="18.5" y="-422.5" font-family="Helvetica,sans-Serif" font-size="10.00">material</text>
<text text-anchor="start" x="8.88" y="-408.5" font-family="Helvetica,sans-Serif" font-size="10.00">#</text>
<text text-anchor="start" x="18.5" y="-408.5" font-family="Helvetica,sans-Serif" font-size="10.00">_color</text>
<text text-anchor="start" x="8.88" y="-394.5" font-family="Helvetica,sans-Serif" font-size="10.00">#</text>
<text text-anchor="start" x="18.5" y="-394.5" font-family="Helvetica,sans-Serif" font-size="10.00">_scales</text>
<text text-anchor="start" x="8.88" y="-380.5" font-family="Helvetica,sans-Serif" font-size="10.00">#</text>
<text text-anchor="start" x="18.5" y="-380.5" font-family="Helvetica,sans-Serif" font-size="10.00">_graph</text>
<text text-anchor="start" x="8.5" y="-366.5" font-family="Helvetica,sans-Serif" font-size="10.00">+</text>
<text text-anchor="start" x="18.5" y="-366.5" font-family="Helvetica,sans-Serif" font-size="10.00">APrimitives()</text>
<text text-anchor="start" x="8.5" y="-352.5" font-family="Helvetica,sans-Serif" font-size="10.00">+</text>
<text text-anchor="start" x="18.5" y="-352.5" font-family="Helvetica,sans-Serif" font-size="10.00">APrimitives()</text>
<text text-anchor="start" x="8.5" y="-338.5" font-family="Helvetica,sans-Serif" font-size="10.00">+</text>
<text text-anchor="start" x="18.5" y="-338.5" font-family="Helvetica,sans-Serif" font-size="10.00">~APrimitives()</text>
<text text-anchor="start" x="8.5" y="-324.5" font-family="Helvetica,sans-Serif" font-size="10.00">+</text>
<text text-anchor="start" x="18.5" y="-324.5" font-family="Helvetica,sans-Serif" font-size="10.00">distance()</text>
<text text-anchor="start" x="8.5" y="-310.5" font-family="Helvetica,sans-Serif" font-size="10.00">+</text>
<text text-anchor="start" x="18.5" y="-310.5" font-family="Helvetica,sans-Serif" font-size="10.00">getType()</text>
<text text-anchor="start" x="8.5" y="-296.5" font-family="Helvetica,sans-Serif" font-size="10.00">+</text>
<text text-anchor="start" x="18.5" y="-296.5" font-family="Helvetica,sans-Serif" font-size="10.00">getPosition()</text>
<text text-anchor="start" x="8.5" y="-282.5" font-family="Helvetica,sans-Serif" font-size="10.00">+</text>
<text text-anchor="start" x="18.5" y="-282.5" font-family="Helvetica,sans-Serif" font-size="10.00">getRotation()</text>
<text text-anchor="start" x="8.5" y="-268.5" font-family="Helvetica,sans-Serif" font-size="10.00">+</text>
<text text-anchor="start" x="18.5" y="-268.5" font-family="Helvetica,sans-Serif" font-size="10.00">getScale()</text>
<text text-anchor="start" x="8.5" y="-254.5" font-family="Helvetica,sans-Serif" font-size="10.00">+</text>
<text text-anchor="start" x="18.5" y="-254.5" font-family="Helvetica,sans-Serif" font-size="10.00">getMaterial()</text>
<text text-anchor="start" x="8.5" y="-240.5" font-family="Helvetica,sans-Serif" font-size="10.00">+</text>
<text text-anchor="start" x="18.5" y="-240.5" font-family="Helvetica,sans-Serif" font-size="10.00">setPosition()</text>
<text text-anchor="start" x="18.5" y="-226.5" font-family="Helvetica,sans-Serif" font-size="10.00">and 12 more...</text>
<polygon fill="#bfbfbf" stroke="#bfbfbf" points="4.5,-476 4.5,-476 85.5,-476 85.5,-476 4.5,-476"/>
<polygon fill="#bfbfbf" stroke="#bfbfbf" points="4.5,-378 4.5,-378 16.5,-378 16.5,-378 4.5,-378"/>
<polygon fill="#bfbfbf" stroke="#bfbfbf" points="16.5,-378 16.5,-378 85.5,-378 85.5,-378 16.5,-378"/>
<polygon fill="none" stroke="#bfbfbf" points="4.5,-222 4.5,-492 85.5,-492 85.5,-222 4.5,-222"/>
</a>
</g>
</g>
<!-- Node2&#45;&gt;Node1 -->
<g id="edge1_Node000001_Node000002" class="edge">
<title>Node2&#45;&gt;Node1</title>
<g id="a_edge1_Node000001_Node000002"><a xlink:title=" ">
<path fill="none" stroke="#63b8ff" d="M45,-211.03C45,-202.48 45,-194.01 45,-185.76"/>
<polygon fill="none" stroke="#63b8ff" points="41.5,-210.8 45,-220.8 48.5,-210.8 41.5,-210.8"/>
</a>
</g>
</g>
<!-- Node3 -->
<g id="Node000003" class="node">
<title>Node3</title>
<g id="a_Node000003"><a xlink:href="classIPrimitives.html" target="_top" xlink:title=" ">
<polygon fill="white" stroke="none" points="82.5,-714 7.5,-714 7.5,-528 82.5,-528 82.5,-714"/>
<text text-anchor="start" x="22.12" y="-700.5" font-family="Helvetica,sans-Serif" font-size="10.00">IPrimitives</text>
<text text-anchor="start" x="43.5" y="-686.5" font-family="Helvetica,sans-Serif" font-size="10.00"> </text>
<text text-anchor="start" x="11.5" y="-672.5" font-family="Helvetica,sans-Serif" font-size="10.00">+</text>
<text text-anchor="start" x="21.5" y="-672.5" font-family="Helvetica,sans-Serif" font-size="10.00">~IPrimitives()</text>
<text text-anchor="start" x="11.5" y="-658.5" font-family="Helvetica,sans-Serif" font-size="10.00">+</text>
<text text-anchor="start" x="21.5" y="-658.5" font-family="Helvetica,sans-Serif" font-size="10.00">distance()</text>
<text text-anchor="start" x="11.5" y="-644.5" font-family="Helvetica,sans-Serif" font-size="10.00">+</text>
<text text-anchor="start" x="21.5" y="-644.5" font-family="Helvetica,sans-Serif" font-size="10.00">getType()</text>
<text text-anchor="start" x="11.5" y="-630.5" font-family="Helvetica,sans-Serif" font-size="10.00">+</text>
<text text-anchor="start" x="21.5" y="-630.5" font-family="Helvetica,sans-Serif" font-size="10.00">getPosition()</text>
<text text-anchor="start" x="11.5" y="-616.5" font-family="Helvetica,sans-Serif" font-size="10.00">+</text>
<text text-anchor="start" x="21.5" y="-616.5" font-family="Helvetica,sans-Serif" font-size="10.00">getRotation()</text>
<text text-anchor="start" x="11.5" y="-602.5" font-family="Helvetica,sans-Serif" font-size="10.00">+</text>
<text text-anchor="start" x="21.5" y="-602.5" font-family="Helvetica,sans-Serif" font-size="10.00">getScale()</text>
<text text-anchor="start" x="11.5" y="-588.5" font-family="Helvetica,sans-Serif" font-size="10.00">+</text>
<text text-anchor="start" x="21.5" y="-588.5" font-family="Helvetica,sans-Serif" font-size="10.00">getMaterial()</text>
<text text-anchor="start" x="11.5" y="-574.5" font-family="Helvetica,sans-Serif" font-size="10.00">+</text>
<text text-anchor="start" x="21.5" y="-574.5" font-family="Helvetica,sans-Serif" font-size="10.00">setPosition()</text>
<text text-anchor="start" x="11.5" y="-560.5" font-family="Helvetica,sans-Serif" font-size="10.00">+</text>
<text text-anchor="start" x="21.5" y="-560.5" font-family="Helvetica,sans-Serif" font-size="10.00">setRotation()</text>
<text text-anchor="start" x="11.5" y="-546.5" font-family="Helvetica,sans-Serif" font-size="10.00">+</text>
<text text-anchor="start" x="21.5" y="-546.5" font-family="Helvetica,sans-Serif" font-size="10.00">setScale()</text>
<text text-anchor="start" x="11.5" y="-532.5" font-family="Helvetica,sans-Serif" font-size="10.00">+</text>
<text text-anchor="start" x="21.5" y="-532.5" font-family="Helvetica,sans-Serif" font-size="10.00">setMaterial()</text>
<polygon fill="#bfbfbf" stroke="#bfbfbf" points="7.5,-698 7.5,-698 82.5,-698 82.5,-698 7.5,-698"/>
<polygon fill="#bfbfbf" stroke="#bfbfbf" points="7.5,-684 7.5,-684 82.5,-684 82.5,-684 7.5,-684"/>
<polygon fill="none" stroke="#bfbfbf" points="7.5,-528 7.5,-714 82.5,-714 82.5,-528 7.5,-528"/>
</a>
</g>
</g>
<!-- Node3&#45;&gt;Node2 -->
<g id="edge2_Node000002_Node000003" class="edge">
<title>Node3&#45;&gt;Node2</title>
<g id="a_edge2_Node000002_Node000003"><a xlink:title=" ">
<path fill="none" stroke="#63b8ff" d="M45,-516.89C45,-508.69 45,-500.34 45,-491.97"/>
<polygon fill="none" stroke="#63b8ff" points="41.5,-516.85 45,-526.85 48.5,-516.85 41.5,-516.85"/>
</a>
</g>
</g>
</g>
</svg>
