<?xml version="1.0" encoding="UTF-8" standalone="no"?>
<!DOCTYPE svg PUBLIC "-//W3C//DTD SVG 1.1//EN"
 "http://www.w3.org/Graphics/SVG/1.1/DTD/svg11.dtd">
<!-- Generated by graphviz version 9.0.0 (20230911.1827)
 -->
<!-- Title: ColorException Pages: 1 -->
<svg width="129pt" height="440pt"
 viewBox="0.00 0.00 129.00 440.00" xmlns="http://www.w3.org/2000/svg" xmlns:xlink="http://www.w3.org/1999/xlink">
<g id="graph0" class="graph" transform="scale(1 1) rotate(0) translate(4 436)">
<title>ColorException</title>
<!-- Node1 -->
<g id="Node000001" class="node">
<title>Node1</title>
<g id="a_Node000001"><a xlink:title=" ">
<polygon fill="#999999" stroke="none" points="105.5,-46 15.5,-46 15.5,0 105.5,0 105.5,-46"/>
<text text-anchor="start" x="27.5" y="-32.5" font-family="Helvetica,sans-Serif" font-size="10.00">ColorException</text>
<text text-anchor="start" x="59" y="-18.5" font-family="Helvetica,sans-Serif" font-size="10.00"> </text>
<text text-anchor="start" x="19.5" y="-4.5" font-family="Helvetica,sans-Serif" font-size="10.00">+</text>
<text text-anchor="start" x="29.5" y="-4.5" font-family="Helvetica,sans-Serif" font-size="10.00">ColorException()</text>
<polygon fill="#666666" stroke="#666666" points="15.5,-30 15.5,-30 105.5,-30 105.5,-30 15.5,-30"/>
<polygon fill="#666666" stroke="#666666" points="15.5,-16 15.5,-16 105.5,-16 105.5,-16 15.5,-16"/>
<polygon fill="none" stroke="#666666" points="15.5,0 15.5,-46 105.5,-46 105.5,0 15.5,0"/>
</a>
</g>
</g>
<!-- Node2 -->
<g id="Node000002" class="node">
<title>Node2</title>
<g id="a_Node000002"><a xlink:href="classAException.html" target="_top" xlink:title=" ">
<polygon fill="white" stroke="none" points="121,-212 0,-212 0,-82 121,-82 121,-212"/>
<text text-anchor="start" x="35.75" y="-198.5" font-family="Helvetica,sans-Serif" font-size="10.00">AException</text>
<text text-anchor="start" x="5.5" y="-184.5" font-family="Helvetica,sans-Serif" font-size="10.00">&#45;</text>
<text text-anchor="start" x="14" y="-184.5" font-family="Helvetica,sans-Serif" font-size="10.00">_message</text>
<text text-anchor="start" x="5.5" y="-170.5" font-family="Helvetica,sans-Serif" font-size="10.00">&#45;</text>
<text text-anchor="start" x="14" y="-170.5" font-family="Helvetica,sans-Serif" font-size="10.00">_type</text>
<text text-anchor="start" x="4" y="-156.5" font-family="Helvetica,sans-Serif" font-size="10.00">+</text>
<text text-anchor="start" x="14" y="-156.5" font-family="Helvetica,sans-Serif" font-size="10.00">AException()</text>
<text text-anchor="start" x="4" y="-142.5" font-family="Helvetica,sans-Serif" font-size="10.00">+</text>
<text text-anchor="start" x="14" y="-142.5" font-family="Helvetica,sans-Serif" font-size="10.00">~AException()</text>
<text text-anchor="start" x="4" y="-128.5" font-family="Helvetica,sans-Serif" font-size="10.00">+</text>
<text text-anchor="start" x="14" y="-128.5" font-family="Helvetica,sans-Serif" font-size="10.00">what()</text>
<text text-anchor="start" x="4" y="-114.5" font-family="Helvetica,sans-Serif" font-size="10.00">+</text>
<text text-anchor="start" x="14" y="-114.5" font-family="Helvetica,sans-Serif" font-size="10.00">getType()</text>
<text text-anchor="start" x="4" y="-100.5" font-family="Helvetica,sans-Serif" font-size="10.00">+</text>
<text text-anchor="start" x="14" y="-100.5" font-family="Helvetica,sans-Serif" font-size="10.00">getMessage()</text>
<text text-anchor="start" x="4" y="-86.5" font-family="Helvetica,sans-Serif" font-size="10.00">+</text>
<text text-anchor="start" x="14" y="-86.5" font-family="Helvetica,sans-Serif" font-size="10.00">getFormattedMessage()</text>
<polygon fill="#bfbfbf" stroke="#bfbfbf" points="0,-196 0,-196 121,-196 121,-196 0,-196"/>
<polygon fill="#bfbfbf" stroke="#bfbfbf" points="0,-168 0,-168 12,-168 12,-168 0,-168"/>
<polygon fill="#bfbfbf" stroke="#bfbfbf" points="12,-168 12,-168 121,-168 121,-168 12,-168"/>
<polygon fill="none" stroke="#bfbfbf" points="0,-82 0,-212 121,-212 121,-82 0,-82"/>
</a>
</g>
</g>
<!-- Node2&#45;&gt;Node1 -->
<g id="edge1_Node000001_Node000002" class="edge">
<title>Node2&#45;&gt;Node1</title>
<g id="a_edge1_Node000001_Node000002"><a xlink:title=" ">
<path fill="none" stroke="#63b8ff" d="M60.5,-70.65C60.5,-61.7 60.5,-53.2 60.5,-45.96"/>
<polygon fill="none" stroke="#63b8ff" points="57,-70.63 60.5,-80.63 64,-70.63 57,-70.63"/>
</a>
</g>
</g>
<!-- Node3 -->
<g id="Node000003" class="node">
<title>Node3</title>
<g id="a_Node000003"><a xlink:href="classIException.html" target="_top" xlink:title=" ">
<polygon fill="white" stroke="none" points="121,-350 0,-350 0,-248 121,-248 121,-350"/>
<text text-anchor="start" x="37.62" y="-336.5" font-family="Helvetica,sans-Serif" font-size="10.00">IException</text>
<text text-anchor="start" x="59" y="-322.5" font-family="Helvetica,sans-Serif" font-size="10.00"> </text>
<text text-anchor="start" x="4" y="-308.5" font-family="Helvetica,sans-Serif" font-size="10.00">+</text>
<text text-anchor="start" x="14" y="-308.5" font-family="Helvetica,sans-Serif" font-size="10.00">~IException()</text>
<text text-anchor="start" x="4" y="-294.5" font-family="Helvetica,sans-Serif" font-size="10.00">+</text>
<text text-anchor="start" x="14" y="-294.5" font-family="Helvetica,sans-Serif" font-size="10.00">what()</text>
<text text-anchor="start" x="4" y="-280.5" font-family="Helvetica,sans-Serif" font-size="10.00">+</text>
<text text-anchor="start" x="14" y="-280.5" font-family="Helvetica,sans-Serif" font-size="10.00">getType()</text>
<text text-anchor="start" x="4" y="-266.5" font-family="Helvetica,sans-Serif" font-size="10.00">+</text>
<text text-anchor="start" x="14" y="-266.5" font-family="Helvetica,sans-Serif" font-size="10.00">getMessage()</text>
<text text-anchor="start" x="4" y="-252.5" font-family="Helvetica,sans-Serif" font-size="10.00">+</text>
<text text-anchor="start" x="14" y="-252.5" font-family="Helvetica,sans-Serif" font-size="10.00">getFormattedMessage()</text>
<polygon fill="#bfbfbf" stroke="#bfbfbf" points="0,-334 0,-334 121,-334 121,-334 0,-334"/>
<polygon fill="#bfbfbf" stroke="#bfbfbf" points="0,-320 0,-320 121,-320 121,-320 0,-320"/>
<polygon fill="none" stroke="#bfbfbf" points="0,-248 0,-350 121,-350 121,-248 0,-248"/>
</a>
</g>
</g>
<!-- Node3&#45;&gt;Node2 -->
<g id="edge2_Node000002_Node000003" class="edge">
<title>Node3&#45;&gt;Node2</title>
<g id="a_edge2_Node000002_Node000003"><a xlink:title=" ">
<path fill="none" stroke="#63b8ff" d="M60.5,-236.68C60.5,-228.5 60.5,-220.09 60.5,-211.87"/>
<polygon fill="none" stroke="#63b8ff" points="57,-236.54 60.5,-246.54 64,-236.54 57,-236.54"/>
</a>
</g>
</g>
<!-- Node4 -->
<g id="Node000004" class="node">
<title>Node4</title>
<g id="a_Node000004"><a xlink:title=" ">
<polygon fill="white" stroke="none" points="95.5,-432 25.5,-432 25.5,-386 95.5,-386 95.5,-432"/>
<text text-anchor="start" x="30.12" y="-418.5" font-family="Helvetica,sans-Serif" font-size="10.00">std::exception</text>
<text text-anchor="start" x="59" y="-404.5" font-family="Helvetica,sans-Serif" font-size="10.00"> </text>
<text text-anchor="start" x="59" y="-390.5" font-family="Helvetica,sans-Serif" font-size="10.00"> </text>
<polygon fill="#bfbfbf" stroke="#bfbfbf" points="25.5,-416 25.5,-416 95.5,-416 95.5,-416 25.5,-416"/>
<polygon fill="#bfbfbf" stroke="#bfbfbf" points="25.5,-402 25.5,-402 95.5,-402 95.5,-402 25.5,-402"/>
<polygon fill="none" stroke="#bfbfbf" points="25.5,-386 25.5,-432 95.5,-432 95.5,-386 25.5,-386"/>
</a>
</g>
</g>
<!-- Node4&#45;&gt;Node3 -->
<g id="edge3_Node000003_Node000004" class="edge">
<title>Node4&#45;&gt;Node3</title>
<g id="a_edge3_Node000003_Node000004"><a xlink:title=" ">
<path fill="none" stroke="#63b8ff" d="M60.5,-374.83C60.5,-366.95 60.5,-358.38 60.5,-349.93"/>
<polygon fill="none" stroke="#63b8ff" points="57,-374.63 60.5,-384.63 64,-374.63 57,-374.63"/>
</a>
</g>
</g>
</g>
</svg>
