<?xml version="1.0" encoding="UTF-8" standalone="no"?>
<!DOCTYPE svg PUBLIC "-//W3C//DTD SVG 1.1//EN"
 "http://www.w3.org/Graphics/SVG/1.1/DTD/svg11.dtd">
<!-- Generated by graphviz version 9.0.0 (20230911.1827)
 -->
<!-- Title: DLLoader&lt; T &gt; Pages: 1 -->
<svg width="84pt" height="276pt"
 viewBox="0.00 0.00 84.00 276.00" xmlns="http://www.w3.org/2000/svg" xmlns:xlink="http://www.w3.org/1999/xlink">
<g id="graph0" class="graph" transform="scale(1 1) rotate(0) translate(4 272)">
<title>DLLoader&lt; T &gt;</title>
<!-- Node1 -->
<g id="Node000001" class="node">
<title>Node1</title>
<g id="a_Node000001"><a xlink:title=" ">
<polygon fill="#999999" stroke="none" points="76,-116 0,-116 0,0 76,0 76,-116"/>
<text text-anchor="start" x="5" y="-102.5" font-family="Helvetica,sans-Serif" font-size="10.00">DLLoader&lt; T &gt;</text>
<text text-anchor="start" x="6.5" y="-88.5" font-family="Helvetica,sans-Serif" font-size="10.00">&#45;</text>
<text text-anchor="start" x="16" y="-88.5" font-family="Helvetica,sans-Serif" font-size="10.00">_handler</text>
<text text-anchor="start" x="5" y="-74.5" font-family="Helvetica,sans-Serif" font-size="10.00">+</text>
<text text-anchor="start" x="16" y="-74.5" font-family="Helvetica,sans-Serif" font-size="10.00">~DLLoader()</text>
<text text-anchor="start" x="5" y="-60.5" font-family="Helvetica,sans-Serif" font-size="10.00">+</text>
<text text-anchor="start" x="16" y="-60.5" font-family="Helvetica,sans-Serif" font-size="10.00">getHandler()</text>
<text text-anchor="start" x="5" y="-46.5" font-family="Helvetica,sans-Serif" font-size="10.00">+</text>
<text text-anchor="start" x="16" y="-46.5" font-family="Helvetica,sans-Serif" font-size="10.00">Open()</text>
<text text-anchor="start" x="5" y="-32.5" font-family="Helvetica,sans-Serif" font-size="10.00">+</text>
<text text-anchor="start" x="16" y="-32.5" font-family="Helvetica,sans-Serif" font-size="10.00">Symbol()</text>
<text text-anchor="start" x="5" y="-18.5" font-family="Helvetica,sans-Serif" font-size="10.00">+</text>
<text text-anchor="start" x="16" y="-18.5" font-family="Helvetica,sans-Serif" font-size="10.00">Close()</text>
<text text-anchor="start" x="5" y="-4.5" font-family="Helvetica,sans-Serif" font-size="10.00">+</text>
<text text-anchor="start" x="16" y="-4.5" font-family="Helvetica,sans-Serif" font-size="10.00">Error()</text>
<polygon fill="#666666" stroke="#666666" points="0,-100 0,-100 76,-100 76,-100 0,-100"/>
<polygon fill="#666666" stroke="#666666" points="0,-86 0,-86 14,-86 14,-86 0,-86"/>
<polygon fill="#666666" stroke="#666666" points="14,-86 14,-86 76,-86 76,-86 14,-86"/>
<polygon fill="none" stroke="#666666" points="0,0 0,-116 76,-116 76,0 0,0"/>
</a>
</g>
</g>
<!-- Node2 -->
<g id="Node000002" class="node">
<title>Node2</title>
<g id="a_Node000002"><a xlink:href="classILoader.html" target="_top" xlink:title=" ">
<polygon fill="white" stroke="none" points="73.5,-268 2.5,-268 2.5,-152 73.5,-152 73.5,-268"/>
<text text-anchor="start" x="21.88" y="-254.5" font-family="Helvetica,sans-Serif" font-size="10.00">ILoader</text>
<text text-anchor="start" x="36.5" y="-240.5" font-family="Helvetica,sans-Serif" font-size="10.00"> </text>
<text text-anchor="start" x="6.5" y="-226.5" font-family="Helvetica,sans-Serif" font-size="10.00">+</text>
<text text-anchor="start" x="16.5" y="-226.5" font-family="Helvetica,sans-Serif" font-size="10.00">~ILoader()</text>
<text text-anchor="start" x="6.5" y="-212.5" font-family="Helvetica,sans-Serif" font-size="10.00">+</text>
<text text-anchor="start" x="16.5" y="-212.5" font-family="Helvetica,sans-Serif" font-size="10.00">Open()</text>
<text text-anchor="start" x="6.5" y="-198.5" font-family="Helvetica,sans-Serif" font-size="10.00">+</text>
<text text-anchor="start" x="16.5" y="-198.5" font-family="Helvetica,sans-Serif" font-size="10.00">Symbol()</text>
<text text-anchor="start" x="6.5" y="-184.5" font-family="Helvetica,sans-Serif" font-size="10.00">+</text>
<text text-anchor="start" x="16.5" y="-184.5" font-family="Helvetica,sans-Serif" font-size="10.00">Close()</text>
<text text-anchor="start" x="6.5" y="-170.5" font-family="Helvetica,sans-Serif" font-size="10.00">+</text>
<text text-anchor="start" x="16.5" y="-170.5" font-family="Helvetica,sans-Serif" font-size="10.00">Error()</text>
<text text-anchor="start" x="6.5" y="-156.5" font-family="Helvetica,sans-Serif" font-size="10.00">+</text>
<text text-anchor="start" x="16.5" y="-156.5" font-family="Helvetica,sans-Serif" font-size="10.00">getHandler()</text>
<polygon fill="#bfbfbf" stroke="#bfbfbf" points="2.5,-252 2.5,-252 73.5,-252 73.5,-252 2.5,-252"/>
<polygon fill="#bfbfbf" stroke="#bfbfbf" points="2.5,-238 2.5,-238 73.5,-238 73.5,-238 2.5,-238"/>
<polygon fill="none" stroke="#bfbfbf" points="2.5,-152 2.5,-268 73.5,-268 73.5,-152 2.5,-152"/>
</a>
</g>
</g>
<!-- Node2&#45;&gt;Node1 -->
<g id="edge1_Node000001_Node000002" class="edge">
<title>Node2&#45;&gt;Node1</title>
<g id="a_edge1_Node000001_Node000002"><a xlink:title=" ">
<path fill="none" stroke="#63b8ff" d="M38,-140.94C38,-132.53 38,-124 38,-115.79"/>
<polygon fill="none" stroke="#63b8ff" points="34.5,-140.78 38,-150.78 41.5,-140.78 34.5,-140.78"/>
</a>
</g>
</g>
</g>
</svg>
