<?xml version="1.0" encoding="UTF-8" standalone="no"?>
<!DOCTYPE svg PUBLIC "-//W3C//DTD SVG 1.1//EN"
 "http://www.w3.org/Graphics/SVG/1.1/DTD/svg11.dtd">
<!-- Generated by graphviz version 9.0.0 (20230911.1827)
 -->
<!-- Title: Parser Pages: 1 -->
<svg width="356pt" height="911pt"
 viewBox="0.00 0.00 356.00 911.00" xmlns="http://www.w3.org/2000/svg" xmlns:xlink="http://www.w3.org/1999/xlink">
<g id="graph0" class="graph" transform="scale(1 1) rotate(0) translate(4 907)">
<title>Parser</title>
<!-- Node1 -->
<g id="Node000001" class="node">
<title>Node1</title>
<g id="a_Node000001"><a xlink:title=" ">
<polygon fill="#999999" stroke="none" points="216,-200 81,-200 81,0 216,0 216,-200"/>
<text text-anchor="start" x="133.88" y="-186.5" font-family="Helvetica,sans-Serif" font-size="10.00">Parser</text>
<text text-anchor="start" x="147" y="-172.5" font-family="Helvetica,sans-Serif" font-size="10.00"> </text>
<text text-anchor="start" x="85" y="-158.5" font-family="Helvetica,sans-Serif" font-size="10.00">+</text>
<text text-anchor="start" x="95" y="-158.5" font-family="Helvetica,sans-Serif" font-size="10.00">Parser()</text>
<text text-anchor="start" x="85" y="-144.5" font-family="Helvetica,sans-Serif" font-size="10.00">+</text>
<text text-anchor="start" x="95" y="-144.5" font-family="Helvetica,sans-Serif" font-size="10.00">Parser()</text>
<text text-anchor="start" x="85" y="-130.5" font-family="Helvetica,sans-Serif" font-size="10.00">+</text>
<text text-anchor="start" x="95" y="-130.5" font-family="Helvetica,sans-Serif" font-size="10.00">~Parser()</text>
<text text-anchor="start" x="85" y="-116.5" font-family="Helvetica,sans-Serif" font-size="10.00">+</text>
<text text-anchor="start" x="95" y="-116.5" font-family="Helvetica,sans-Serif" font-size="10.00">loadConfig()</text>
<text text-anchor="start" x="85" y="-102.5" font-family="Helvetica,sans-Serif" font-size="10.00">+</text>
<text text-anchor="start" x="95" y="-102.5" font-family="Helvetica,sans-Serif" font-size="10.00">parse()</text>
<text text-anchor="start" x="85" y="-88.5" font-family="Helvetica,sans-Serif" font-size="10.00">+</text>
<text text-anchor="start" x="95" y="-88.5" font-family="Helvetica,sans-Serif" font-size="10.00">getObjects()</text>
<text text-anchor="start" x="85" y="-74.5" font-family="Helvetica,sans-Serif" font-size="10.00">+</text>
<text text-anchor="start" x="95" y="-74.5" font-family="Helvetica,sans-Serif" font-size="10.00">getRootNode()</text>
<text text-anchor="start" x="85" y="-60.5" font-family="Helvetica,sans-Serif" font-size="10.00">+</text>
<text text-anchor="start" x="95" y="-60.5" font-family="Helvetica,sans-Serif" font-size="10.00">printMap()</text>
<text text-anchor="start" x="86.5" y="-46.5" font-family="Helvetica,sans-Serif" font-size="10.00">&#45;</text>
<text text-anchor="start" x="95" y="-46.5" font-family="Helvetica,sans-Serif" font-size="10.00">importScene()</text>
<text text-anchor="start" x="86.5" y="-32.5" font-family="Helvetica,sans-Serif" font-size="10.00">&#45;</text>
<text text-anchor="start" x="95" y="-32.5" font-family="Helvetica,sans-Serif" font-size="10.00">isValidFilePath()</text>
<text text-anchor="start" x="86.5" y="-18.5" font-family="Helvetica,sans-Serif" font-size="10.00">&#45;</text>
<text text-anchor="start" x="95" y="-18.5" font-family="Helvetica,sans-Serif" font-size="10.00">loadImportedScene()</text>
<text text-anchor="start" x="86.5" y="-4.5" font-family="Helvetica,sans-Serif" font-size="10.00">&#45;</text>
<text text-anchor="start" x="95" y="-4.5" font-family="Helvetica,sans-Serif" font-size="10.00">importObjectsFromScene()</text>
<polygon fill="#666666" stroke="#666666" points="81,-184 81,-184 216,-184 216,-184 81,-184"/>
<polygon fill="#666666" stroke="#666666" points="81,-170 81,-170 216,-170 216,-170 81,-170"/>
<polygon fill="none" stroke="#666666" points="81,0 81,-200 216,-200 216,0 81,0"/>
</a>
</g>
</g>
<!-- Node2 -->
<g id="Node000002" class="node">
<title>Node2</title>
<g id="a_Node000002"><a xlink:href="classConfigNode.html" target="_top" xlink:title=" ">
<polygon fill="white" stroke="none" points="81,-446.5 0,-446.5 0,-302.5 81,-302.5 81,-446.5"/>
<text text-anchor="start" x="14.62" y="-433" font-family="Helvetica,sans-Serif" font-size="10.00">ConfigNode</text>
<text text-anchor="start" x="4" y="-419" font-family="Helvetica,sans-Serif" font-size="10.00">+</text>
<text text-anchor="start" x="14" y="-419" font-family="Helvetica,sans-Serif" font-size="10.00">children</text>
<text text-anchor="start" x="4" y="-405" font-family="Helvetica,sans-Serif" font-size="10.00">+</text>
<text text-anchor="start" x="14" y="-405" font-family="Helvetica,sans-Serif" font-size="10.00">value</text>
<text text-anchor="start" x="4" y="-391" font-family="Helvetica,sans-Serif" font-size="10.00">+</text>
<text text-anchor="start" x="14" y="-391" font-family="Helvetica,sans-Serif" font-size="10.00">isValue</text>
<text text-anchor="start" x="4" y="-377" font-family="Helvetica,sans-Serif" font-size="10.00">+</text>
<text text-anchor="start" x="14" y="-377" font-family="Helvetica,sans-Serif" font-size="10.00">type</text>
<text text-anchor="start" x="4" y="-363" font-family="Helvetica,sans-Serif" font-size="10.00">+</text>
<text text-anchor="start" x="14" y="-363" font-family="Helvetica,sans-Serif" font-size="10.00">_name</text>
<text text-anchor="start" x="4" y="-349" font-family="Helvetica,sans-Serif" font-size="10.00">+</text>
<text text-anchor="start" x="14" y="-349" font-family="Helvetica,sans-Serif" font-size="10.00">ConfigNode()</text>
<text text-anchor="start" x="4" y="-335" font-family="Helvetica,sans-Serif" font-size="10.00">+</text>
<text text-anchor="start" x="14" y="-335" font-family="Helvetica,sans-Serif" font-size="10.00">~ConfigNode()</text>
<text text-anchor="start" x="4" y="-321" font-family="Helvetica,sans-Serif" font-size="10.00">+</text>
<text text-anchor="start" x="14" y="-321" font-family="Helvetica,sans-Serif" font-size="10.00">hasChild()</text>
<text text-anchor="start" x="4" y="-307" font-family="Helvetica,sans-Serif" font-size="10.00">+</text>
<text text-anchor="start" x="14" y="-307" font-family="Helvetica,sans-Serif" font-size="10.00">getValue()</text>
<polygon fill="#bfbfbf" stroke="#bfbfbf" points="0,-430.5 0,-430.5 81,-430.5 81,-430.5 0,-430.5"/>
<polygon fill="#bfbfbf" stroke="#bfbfbf" points="0,-360.5 0,-360.5 12,-360.5 12,-360.5 0,-360.5"/>
<polygon fill="#bfbfbf" stroke="#bfbfbf" points="12,-360.5 12,-360.5 81,-360.5 81,-360.5 12,-360.5"/>
<polygon fill="none" stroke="#bfbfbf" points="0,-302.5 0,-446.5 81,-446.5 81,-302.5 0,-302.5"/>
</a>
</g>
</g>
<!-- Node2&#45;&gt;Node1 -->
<g id="edge1_Node000001_Node000002" class="edge">
<title>Node2&#45;&gt;Node1</title>
<g id="a_edge1_Node000001_Node000002"><a xlink:title=" ">
<path fill="none" stroke="#63b8ff" d="M66.24,-302.81C76.15,-276.13 87.73,-245.57 98.75,-218 99.57,-215.96 100.4,-213.9 101.23,-211.82"/>
<polygon fill="none" stroke="#63b8ff" points="101.26,-211.76 99.82,-204.7 105.78,-200.65 107.22,-207.72 101.26,-211.76"/>
</a>
</g>
<text text-anchor="middle" x="122.38" y="-219" font-family="Helvetica,sans-Serif" font-size="10.00" fill="grey"> &#45;rootNode</text>
</g>
<!-- Node3 -->
<g id="Node000003" class="node">
<title>Node3</title>
<g id="a_Node000003"><a xlink:href="classConfigParser.html" target="_top" xlink:title=" ">
<polygon fill="white" stroke="none" points="198,-446.5 99,-446.5 99,-302.5 198,-302.5 198,-446.5"/>
<text text-anchor="start" x="119.62" y="-433" font-family="Helvetica,sans-Serif" font-size="10.00">ConfigParser</text>
<text text-anchor="start" x="104.5" y="-419" font-family="Helvetica,sans-Serif" font-size="10.00">&#45;</text>
<text text-anchor="start" x="113" y="-419" font-family="Helvetica,sans-Serif" font-size="10.00">file</text>
<text text-anchor="start" x="103" y="-405" font-family="Helvetica,sans-Serif" font-size="10.00">+</text>
<text text-anchor="start" x="113" y="-405" font-family="Helvetica,sans-Serif" font-size="10.00">ConfigParser()</text>
<text text-anchor="start" x="103" y="-391" font-family="Helvetica,sans-Serif" font-size="10.00">+</text>
<text text-anchor="start" x="113" y="-391" font-family="Helvetica,sans-Serif" font-size="10.00">~ConfigParser()</text>
<text text-anchor="start" x="103" y="-377" font-family="Helvetica,sans-Serif" font-size="10.00">+</text>
<text text-anchor="start" x="113" y="-377" font-family="Helvetica,sans-Serif" font-size="10.00">loadConfig()</text>
<text text-anchor="start" x="103.38" y="-363" font-family="Helvetica,sans-Serif" font-size="10.00">#</text>
<text text-anchor="start" x="113" y="-363" font-family="Helvetica,sans-Serif" font-size="10.00">buildConfigTree()</text>
<text text-anchor="start" x="104.5" y="-349" font-family="Helvetica,sans-Serif" font-size="10.00">&#45;</text>
<text text-anchor="start" x="113" y="-349" font-family="Helvetica,sans-Serif" font-size="10.00">handleGroupType()</text>
<text text-anchor="start" x="104.5" y="-335" font-family="Helvetica,sans-Serif" font-size="10.00">&#45;</text>
<text text-anchor="start" x="113" y="-335" font-family="Helvetica,sans-Serif" font-size="10.00">handleArrayType()</text>
<text text-anchor="start" x="104.5" y="-321" font-family="Helvetica,sans-Serif" font-size="10.00">&#45;</text>
<text text-anchor="start" x="113" y="-321" font-family="Helvetica,sans-Serif" font-size="10.00">handleListType()</text>
<text text-anchor="start" x="104.5" y="-307" font-family="Helvetica,sans-Serif" font-size="10.00">&#45;</text>
<text text-anchor="start" x="113" y="-307" font-family="Helvetica,sans-Serif" font-size="10.00">handleValueType()</text>
<polygon fill="#bfbfbf" stroke="#bfbfbf" points="99,-430.5 99,-430.5 198,-430.5 198,-430.5 99,-430.5"/>
<polygon fill="#bfbfbf" stroke="#bfbfbf" points="99,-416.5 99,-416.5 111,-416.5 111,-416.5 99,-416.5"/>
<polygon fill="#bfbfbf" stroke="#bfbfbf" points="111,-416.5 111,-416.5 198,-416.5 198,-416.5 111,-416.5"/>
<polygon fill="none" stroke="#bfbfbf" points="99,-302.5 99,-446.5 198,-446.5 198,-302.5 99,-302.5"/>
</a>
</g>
</g>
<!-- Node3&#45;&gt;Node1 -->
<g id="edge2_Node000001_Node000003" class="edge">
<title>Node3&#45;&gt;Node1</title>
<g id="a_edge2_Node000001_Node000003"><a xlink:title=" ">
<path fill="none" stroke="#63b8ff" d="M148.5,-302.62C148.5,-275.23 148.5,-243.22 148.5,-212.88"/>
<polygon fill="none" stroke="#63b8ff" points="148.5,-212.89 144.5,-206.89 148.5,-200.89 152.5,-206.89 148.5,-212.89"/>
</a>
</g>
<text text-anchor="middle" x="179.25" y="-219" font-family="Helvetica,sans-Serif" font-size="10.00" fill="grey"> &#45;configParser</text>
</g>
<!-- Node4 -->
<g id="Node000004" class="node">
<title>Node4</title>
<g id="a_Node000004"><a xlink:href="classObjectConstructor.html" target="_top" xlink:title=" ">
<polygon fill="white" stroke="none" points="332.5,-502.5 216.5,-502.5 216.5,-246.5 332.5,-246.5 332.5,-502.5"/>
<text text-anchor="start" x="234.75" y="-489" font-family="Helvetica,sans-Serif" font-size="10.00">ObjectConstructor</text>
<text text-anchor="start" x="222" y="-475" font-family="Helvetica,sans-Serif" font-size="10.00">&#45;</text>
<text text-anchor="start" x="230.5" y="-475" font-family="Helvetica,sans-Serif" font-size="10.00">_propertyTypeMap</text>
<text text-anchor="start" x="222" y="-461" font-family="Helvetica,sans-Serif" font-size="10.00">&#45;</text>
<text text-anchor="start" x="230.5" y="-461" font-family="Helvetica,sans-Serif" font-size="10.00">_objects</text>
<text text-anchor="start" x="222" y="-447" font-family="Helvetica,sans-Serif" font-size="10.00">&#45;</text>
<text text-anchor="start" x="230.5" y="-447" font-family="Helvetica,sans-Serif" font-size="10.00">_shapeDefinitions</text>
<text text-anchor="start" x="220.5" y="-433" font-family="Helvetica,sans-Serif" font-size="10.00">+</text>
<text text-anchor="start" x="230.5" y="-433" font-family="Helvetica,sans-Serif" font-size="10.00">ObjectConstructor()</text>
<text text-anchor="start" x="220.5" y="-419" font-family="Helvetica,sans-Serif" font-size="10.00">+</text>
<text text-anchor="start" x="230.5" y="-419" font-family="Helvetica,sans-Serif" font-size="10.00">~ObjectConstructor()</text>
<text text-anchor="start" x="220.5" y="-405" font-family="Helvetica,sans-Serif" font-size="10.00">+</text>
<text text-anchor="start" x="230.5" y="-405" font-family="Helvetica,sans-Serif" font-size="10.00">createObject()</text>
<text text-anchor="start" x="220.5" y="-391" font-family="Helvetica,sans-Serif" font-size="10.00">+</text>
<text text-anchor="start" x="230.5" y="-391" font-family="Helvetica,sans-Serif" font-size="10.00">createObjects()</text>
<text text-anchor="start" x="220.5" y="-377" font-family="Helvetica,sans-Serif" font-size="10.00">+</text>
<text text-anchor="start" x="230.5" y="-377" font-family="Helvetica,sans-Serif" font-size="10.00">verifyObjectValidity()</text>
<text text-anchor="start" x="220.5" y="-363" font-family="Helvetica,sans-Serif" font-size="10.00">+</text>
<text text-anchor="start" x="230.5" y="-363" font-family="Helvetica,sans-Serif" font-size="10.00">getObjects()</text>
<text text-anchor="start" x="220.5" y="-349" font-family="Helvetica,sans-Serif" font-size="10.00">+</text>
<text text-anchor="start" x="230.5" y="-349" font-family="Helvetica,sans-Serif" font-size="10.00">printObjectMap()</text>
<text text-anchor="start" x="220.5" y="-335" font-family="Helvetica,sans-Serif" font-size="10.00">+</text>
<text text-anchor="start" x="230.5" y="-335" font-family="Helvetica,sans-Serif" font-size="10.00">createMaterials()</text>
<text text-anchor="start" x="222" y="-321" font-family="Helvetica,sans-Serif" font-size="10.00">&#45;</text>
<text text-anchor="start" x="230.5" y="-321" font-family="Helvetica,sans-Serif" font-size="10.00">fillObject()</text>
<text text-anchor="start" x="222" y="-307" font-family="Helvetica,sans-Serif" font-size="10.00">&#45;</text>
<text text-anchor="start" x="230.5" y="-307" font-family="Helvetica,sans-Serif" font-size="10.00">handleSimpleValue()</text>
<text text-anchor="start" x="222" y="-293" font-family="Helvetica,sans-Serif" font-size="10.00">&#45;</text>
<text text-anchor="start" x="230.5" y="-293" font-family="Helvetica,sans-Serif" font-size="10.00">handleVector2DValue()</text>
<text text-anchor="start" x="222" y="-279" font-family="Helvetica,sans-Serif" font-size="10.00">&#45;</text>
<text text-anchor="start" x="230.5" y="-279" font-family="Helvetica,sans-Serif" font-size="10.00">handleVector3DValue()</text>
<text text-anchor="start" x="222" y="-265" font-family="Helvetica,sans-Serif" font-size="10.00">&#45;</text>
<text text-anchor="start" x="230.5" y="-265" font-family="Helvetica,sans-Serif" font-size="10.00">convertValue()</text>
<text text-anchor="start" x="222" y="-251" font-family="Helvetica,sans-Serif" font-size="10.00">&#45;</text>
<text text-anchor="start" x="230.5" y="-251" font-family="Helvetica,sans-Serif" font-size="10.00">initShapeDefinitions()</text>
<polygon fill="#bfbfbf" stroke="#bfbfbf" points="216.5,-486.5 216.5,-486.5 332.5,-486.5 332.5,-486.5 216.5,-486.5"/>
<polygon fill="#bfbfbf" stroke="#bfbfbf" points="216.5,-444.5 216.5,-444.5 228.5,-444.5 228.5,-444.5 216.5,-444.5"/>
<polygon fill="#bfbfbf" stroke="#bfbfbf" points="228.5,-444.5 228.5,-444.5 332.5,-444.5 332.5,-444.5 228.5,-444.5"/>
<polygon fill="none" stroke="#bfbfbf" points="216.5,-246.5 216.5,-502.5 332.5,-502.5 332.5,-246.5 216.5,-246.5"/>
</a>
</g>
</g>
<!-- Node4&#45;&gt;Node1 -->
<g id="edge3_Node000001_Node000004" class="edge">
<title>Node4&#45;&gt;Node1</title>
<g id="a_edge3_Node000001_Node000004"><a xlink:title=" ">
<path fill="none" stroke="#63b8ff" d="M227.4,-246.82C223.21,-236.99 218.88,-227.29 214.5,-218 213.44,-215.75 212.35,-213.48 211.23,-211.2"/>
<polygon fill="none" stroke="#63b8ff" points="211.27,-211.27 205.01,-207.69 205.91,-200.54 212.17,-204.12 211.27,-211.27"/>
</a>
</g>
<text text-anchor="middle" x="261.75" y="-219" font-family="Helvetica,sans-Serif" font-size="10.00" fill="grey"> &#45;_objectConstructor</text>
</g>
<!-- Node5 -->
<g id="Node000005" class="node">
<title>Node5</title>
<g id="a_Node000005"><a xlink:href="classObjectErrorHandling.html" target="_top" xlink:title=" ">
<polygon fill="white" stroke="none" points="348,-903 201,-903 201,-549 348,-549 348,-903"/>
<text text-anchor="start" x="230.62" y="-889.5" font-family="Helvetica,sans-Serif" font-size="10.00">ObjectErrorHandling</text>
<text text-anchor="start" x="206.5" y="-875.5" font-family="Helvetica,sans-Serif" font-size="10.00">&#45;</text>
<text text-anchor="start" x="215" y="-875.5" font-family="Helvetica,sans-Serif" font-size="10.00">_shapeDefinitions</text>
<text text-anchor="start" x="206.5" y="-861.5" font-family="Helvetica,sans-Serif" font-size="10.00">&#45;</text>
<text text-anchor="start" x="215" y="-861.5" font-family="Helvetica,sans-Serif" font-size="10.00">_propertyTypeMap</text>
<text text-anchor="start" x="205" y="-847.5" font-family="Helvetica,sans-Serif" font-size="10.00">+</text>
<text text-anchor="start" x="215" y="-847.5" font-family="Helvetica,sans-Serif" font-size="10.00">ObjectErrorHandling()</text>
<text text-anchor="start" x="205" y="-833.5" font-family="Helvetica,sans-Serif" font-size="10.00">+</text>
<text text-anchor="start" x="215" y="-833.5" font-family="Helvetica,sans-Serif" font-size="10.00">~ObjectErrorHandling()</text>
<text text-anchor="start" x="205" y="-819.5" font-family="Helvetica,sans-Serif" font-size="10.00">+</text>
<text text-anchor="start" x="215" y="-819.5" font-family="Helvetica,sans-Serif" font-size="10.00">checkArrayValidity()</text>
<text text-anchor="start" x="205" y="-805.5" font-family="Helvetica,sans-Serif" font-size="10.00">+</text>
<text text-anchor="start" x="215" y="-805.5" font-family="Helvetica,sans-Serif" font-size="10.00">checkGroupValidity()</text>
<text text-anchor="start" x="205" y="-791.5" font-family="Helvetica,sans-Serif" font-size="10.00">+</text>
<text text-anchor="start" x="215" y="-791.5" font-family="Helvetica,sans-Serif" font-size="10.00">checkListValidity()</text>
<text text-anchor="start" x="205" y="-777.5" font-family="Helvetica,sans-Serif" font-size="10.00">+</text>
<text text-anchor="start" x="215" y="-777.5" font-family="Helvetica,sans-Serif" font-size="10.00">checkValueValidity()</text>
<text text-anchor="start" x="205" y="-763.5" font-family="Helvetica,sans-Serif" font-size="10.00">+</text>
<text text-anchor="start" x="215" y="-763.5" font-family="Helvetica,sans-Serif" font-size="10.00">verifyObjectValidity()</text>
<text text-anchor="start" x="205" y="-749.5" font-family="Helvetica,sans-Serif" font-size="10.00">+</text>
<text text-anchor="start" x="215" y="-749.5" font-family="Helvetica,sans-Serif" font-size="10.00">setShapeDefinitions()</text>
<text text-anchor="start" x="205" y="-735.5" font-family="Helvetica,sans-Serif" font-size="10.00">+</text>
<text text-anchor="start" x="215" y="-735.5" font-family="Helvetica,sans-Serif" font-size="10.00">setPropertyTypeMap()</text>
<text text-anchor="start" x="206.5" y="-721.5" font-family="Helvetica,sans-Serif" font-size="10.00">&#45;</text>
<text text-anchor="start" x="215" y="-721.5" font-family="Helvetica,sans-Serif" font-size="10.00">getDataTypeName()</text>
<text text-anchor="start" x="206.5" y="-707.5" font-family="Helvetica,sans-Serif" font-size="10.00">&#45;</text>
<text text-anchor="start" x="215" y="-707.5" font-family="Helvetica,sans-Serif" font-size="10.00">getShapeDefinition()</text>
<text text-anchor="start" x="206.5" y="-693.5" font-family="Helvetica,sans-Serif" font-size="10.00">&#45;</text>
<text text-anchor="start" x="215" y="-693.5" font-family="Helvetica,sans-Serif" font-size="10.00">isParameterValid()</text>
<text text-anchor="start" x="206.5" y="-679.5" font-family="Helvetica,sans-Serif" font-size="10.00">&#45;</text>
<text text-anchor="start" x="215" y="-679.5" font-family="Helvetica,sans-Serif" font-size="10.00">isParameterMandatory()</text>
<text text-anchor="start" x="206.5" y="-665.5" font-family="Helvetica,sans-Serif" font-size="10.00">&#45;</text>
<text text-anchor="start" x="215" y="-665.5" font-family="Helvetica,sans-Serif" font-size="10.00">isParameterOptional()</text>
<text text-anchor="start" x="206.5" y="-651.5" font-family="Helvetica,sans-Serif" font-size="10.00">&#45;</text>
<text text-anchor="start" x="215" y="-651.5" font-family="Helvetica,sans-Serif" font-size="10.00">checkParameterType()</text>
<text text-anchor="start" x="206.5" y="-637.5" font-family="Helvetica,sans-Serif" font-size="10.00">&#45;</text>
<text text-anchor="start" x="215" y="-637.5" font-family="Helvetica,sans-Serif" font-size="10.00">isValueTypeValid()</text>
<text text-anchor="start" x="206.5" y="-623.5" font-family="Helvetica,sans-Serif" font-size="10.00">&#45;</text>
<text text-anchor="start" x="215" y="-623.5" font-family="Helvetica,sans-Serif" font-size="10.00">checkSimpleValueValidity()</text>
<text text-anchor="start" x="206.5" y="-609.5" font-family="Helvetica,sans-Serif" font-size="10.00">&#45;</text>
<text text-anchor="start" x="215" y="-609.5" font-family="Helvetica,sans-Serif" font-size="10.00">checkVector2DValueValidity()</text>
<text text-anchor="start" x="206.5" y="-595.5" font-family="Helvetica,sans-Serif" font-size="10.00">&#45;</text>
<text text-anchor="start" x="215" y="-595.5" font-family="Helvetica,sans-Serif" font-size="10.00">checkVector3DValueValidity()</text>
<text text-anchor="start" x="206.5" y="-581.5" font-family="Helvetica,sans-Serif" font-size="10.00">&#45;</text>
<text text-anchor="start" x="215" y="-581.5" font-family="Helvetica,sans-Serif" font-size="10.00">checkMandatoryParameters()</text>
<text text-anchor="start" x="206.5" y="-567.5" font-family="Helvetica,sans-Serif" font-size="10.00">&#45;</text>
<text text-anchor="start" x="215" y="-567.5" font-family="Helvetica,sans-Serif" font-size="10.00">checkOptionalParameters()</text>
<text text-anchor="start" x="206.5" y="-553.5" font-family="Helvetica,sans-Serif" font-size="10.00">&#45;</text>
<text text-anchor="start" x="215" y="-553.5" font-family="Helvetica,sans-Serif" font-size="10.00">checkUnknownParameters()</text>
<polygon fill="#bfbfbf" stroke="#bfbfbf" points="201,-887 201,-887 348,-887 348,-887 201,-887"/>
<polygon fill="#bfbfbf" stroke="#bfbfbf" points="201,-859 201,-859 213,-859 213,-859 201,-859"/>
<polygon fill="#bfbfbf" stroke="#bfbfbf" points="213,-859 213,-859 348,-859 348,-859 213,-859"/>
<polygon fill="none" stroke="#bfbfbf" points="201,-549 201,-903 348,-903 348,-549 201,-549"/>
</a>
</g>
</g>
<!-- Node5&#45;&gt;Node4 -->
<g id="edge4_Node000004_Node000005" class="edge">
<title>Node5&#45;&gt;Node4</title>
<g id="a_edge4_Node000004_Node000005"><a xlink:title=" ">
<path fill="none" stroke="#63b8ff" d="M274.5,-549.23C274.5,-537.86 274.5,-526.51 274.5,-515.35"/>
<polygon fill="none" stroke="#63b8ff" points="274.5,-515.25 270.5,-509.25 274.5,-503.25 278.5,-509.25 274.5,-515.25"/>
</a>
</g>
<text text-anchor="middle" x="306.75" y="-521.5" font-family="Helvetica,sans-Serif" font-size="10.00" fill="grey"> &#45;_errorHandler</text>
</g>
</g>
</svg>
