<?xml version="1.0" encoding="UTF-8" standalone="no"?>
<!DOCTYPE svg PUBLIC "-//W3C//DTD SVG 1.1//EN"
 "http://www.w3.org/Graphics/SVG/1.1/DTD/svg11.dtd">
<!-- Generated by graphviz version 9.0.0 (20230911.1827)
 -->
<!-- Title: CameraFactory Pages: 1 -->
<svg width="121pt" height="290pt"
 viewBox="0.00 0.00 121.00 290.00" xmlns="http://www.w3.org/2000/svg" xmlns:xlink="http://www.w3.org/1999/xlink">
<g id="graph0" class="graph" transform="scale(1 1) rotate(0) translate(4 286)">
<title>CameraFactory</title>
<!-- Node1 -->
<g id="Node000001" class="node">
<title>Node1</title>
<g id="a_Node000001"><a xlink:title=" ">
<polygon fill="#999999" stroke="none" points="113,-158 0,-158 0,0 113,0 113,-158"/>
<text text-anchor="start" x="22.75" y="-144.5" font-family="Helvetica,sans-Serif" font-size="10.00">CameraFactory</text>
<text text-anchor="start" x="5.5" y="-130.5" font-family="Helvetica,sans-Serif" font-size="10.00">&#45;</text>
<text text-anchor="start" x="14" y="-130.5" font-family="Helvetica,sans-Serif" font-size="10.00">_creators</text>
<text text-anchor="start" x="5.5" y="-116.5" font-family="Helvetica,sans-Serif" font-size="10.00">&#45;</text>
<text text-anchor="start" x="14" y="-116.5" font-family="Helvetica,sans-Serif" font-size="10.00">_dlLoaders</text>
<text text-anchor="start" x="4" y="-102.5" font-family="Helvetica,sans-Serif" font-size="10.00">+</text>
<text text-anchor="start" x="14" y="-102.5" font-family="Helvetica,sans-Serif" font-size="10.00">CameraFactory()</text>
<text text-anchor="start" x="4" y="-88.5" font-family="Helvetica,sans-Serif" font-size="10.00">+</text>
<text text-anchor="start" x="14" y="-88.5" font-family="Helvetica,sans-Serif" font-size="10.00">~CameraFactory()</text>
<text text-anchor="start" x="4" y="-74.5" font-family="Helvetica,sans-Serif" font-size="10.00">+</text>
<text text-anchor="start" x="14" y="-74.5" font-family="Helvetica,sans-Serif" font-size="10.00">create()</text>
<text text-anchor="start" x="4" y="-60.5" font-family="Helvetica,sans-Serif" font-size="10.00">+</text>
<text text-anchor="start" x="14" y="-60.5" font-family="Helvetica,sans-Serif" font-size="10.00">registerCreator()</text>
<text text-anchor="start" x="4" y="-46.5" font-family="Helvetica,sans-Serif" font-size="10.00">+</text>
<text text-anchor="start" x="14" y="-46.5" font-family="Helvetica,sans-Serif" font-size="10.00">loadPlugin()</text>
<text text-anchor="start" x="4" y="-32.5" font-family="Helvetica,sans-Serif" font-size="10.00">+</text>
<text text-anchor="start" x="14" y="-32.5" font-family="Helvetica,sans-Serif" font-size="10.00">loadAllPlugins()</text>
<text text-anchor="start" x="4" y="-18.5" font-family="Helvetica,sans-Serif" font-size="10.00">+</text>
<text text-anchor="start" x="14" y="-18.5" font-family="Helvetica,sans-Serif" font-size="10.00">getTypeFromPlugin()</text>
<text text-anchor="start" x="4" y="-4.5" font-family="Helvetica,sans-Serif" font-size="10.00">+</text>
<text text-anchor="start" x="14" y="-4.5" font-family="Helvetica,sans-Serif" font-size="10.00">getNameFromPlugin()</text>
<polygon fill="#666666" stroke="#666666" points="0,-142 0,-142 113,-142 113,-142 0,-142"/>
<polygon fill="#666666" stroke="#666666" points="0,-114 0,-114 12,-114 12,-114 0,-114"/>
<polygon fill="#666666" stroke="#666666" points="12,-114 12,-114 113,-114 113,-114 12,-114"/>
<polygon fill="none" stroke="#666666" points="0,0 0,-158 113,-158 113,0 0,0"/>
</a>
</g>
</g>
<!-- Node2 -->
<g id="Node000002" class="node">
<title>Node2</title>
<g id="a_Node000002"><a xlink:href="classIFactory.html" target="_top" xlink:title=" ">
<polygon fill="white" stroke="none" points="105.5,-282 7.5,-282 7.5,-194 105.5,-194 105.5,-282"/>
<text text-anchor="start" x="12.25" y="-268.5" font-family="Helvetica,sans-Serif" font-size="10.00">IFactory&lt; Camera &gt;</text>
<text text-anchor="start" x="55" y="-254.5" font-family="Helvetica,sans-Serif" font-size="10.00"> </text>
<text text-anchor="start" x="14" y="-240.5" font-family="Helvetica,sans-Serif" font-size="10.00">+</text>
<text text-anchor="start" x="26.5" y="-240.5" font-family="Helvetica,sans-Serif" font-size="10.00">~IFactory()</text>
<text text-anchor="start" x="14" y="-226.5" font-family="Helvetica,sans-Serif" font-size="10.00">+</text>
<text text-anchor="start" x="26.5" y="-226.5" font-family="Helvetica,sans-Serif" font-size="10.00">create()</text>
<text text-anchor="start" x="14" y="-212.5" font-family="Helvetica,sans-Serif" font-size="10.00">+</text>
<text text-anchor="start" x="26.5" y="-212.5" font-family="Helvetica,sans-Serif" font-size="10.00">registerCreator()</text>
<text text-anchor="start" x="14" y="-198.5" font-family="Helvetica,sans-Serif" font-size="10.00">+</text>
<text text-anchor="start" x="26.5" y="-198.5" font-family="Helvetica,sans-Serif" font-size="10.00">loadPlugin()</text>
<polygon fill="#bfbfbf" stroke="#bfbfbf" points="7.5,-266 7.5,-266 105.5,-266 105.5,-266 7.5,-266"/>
<polygon fill="#bfbfbf" stroke="#bfbfbf" points="7.5,-252 7.5,-252 105.5,-252 105.5,-252 7.5,-252"/>
<polygon fill="none" stroke="#bfbfbf" points="7.5,-194 7.5,-282 105.5,-282 105.5,-194 7.5,-194"/>
</a>
</g>
</g>
<!-- Node2&#45;&gt;Node1 -->
<g id="edge1_Node000001_Node000002" class="edge">
<title>Node2&#45;&gt;Node1</title>
<g id="a_edge1_Node000001_Node000002"><a xlink:title=" ">
<path fill="none" stroke="#63b8ff" d="M56.5,-182.66C56.5,-174.64 56.5,-166.25 56.5,-157.87"/>
<polygon fill="none" stroke="#63b8ff" points="53,-182.59 56.5,-192.59 60,-182.59 53,-182.59"/>
</a>
</g>
</g>
</g>
</svg>
