<?xml version="1.0" encoding="UTF-8" standalone="no"?>
<!DOCTYPE svg PUBLIC "-//W3C//DTD SVG 1.1//EN"
 "http://www.w3.org/Graphics/SVG/1.1/DTD/svg11.dtd">
<!-- Generated by graphviz version 9.0.0 (20230911.1827)
 -->
<!-- Title: APrimitives Pages: 1 -->
<svg width="387pt" height="497pt"
 viewBox="0.00 0.00 386.50 496.50" xmlns="http://www.w3.org/2000/svg" xmlns:xlink="http://www.w3.org/1999/xlink">
<g id="graph0" class="graph" transform="scale(1 1) rotate(0) translate(4 492.5)">
<title>APrimitives</title>
<!-- Node1 -->
<g id="Node000001" class="node">
<title>Node1</title>
<g id="a_Node000001"><a xlink:title=" ">
<polygon fill="#999999" stroke="none" points="218,-228 137,-228 137,0 218,0 218,-228"/>
<text text-anchor="start" x="152.75" y="-214.5" font-family="Helvetica,sans-Serif" font-size="10.00">APrimitives</text>
<text text-anchor="start" x="141.38" y="-200.5" font-family="Helvetica,sans-Serif" font-size="10.00">#</text>
<text text-anchor="start" x="151" y="-200.5" font-family="Helvetica,sans-Serif" font-size="10.00">scale</text>
<text text-anchor="start" x="141.38" y="-186.5" font-family="Helvetica,sans-Serif" font-size="10.00">#</text>
<text text-anchor="start" x="151" y="-186.5" font-family="Helvetica,sans-Serif" font-size="10.00">material</text>
<text text-anchor="start" x="141.38" y="-172.5" font-family="Helvetica,sans-Serif" font-size="10.00">#</text>
<text text-anchor="start" x="151" y="-172.5" font-family="Helvetica,sans-Serif" font-size="10.00">_scales</text>
<text text-anchor="start" x="141.38" y="-158.5" font-family="Helvetica,sans-Serif" font-size="10.00">#</text>
<text text-anchor="start" x="151" y="-158.5" font-family="Helvetica,sans-Serif" font-size="10.00">_graph</text>
<text text-anchor="start" x="141" y="-144.5" font-family="Helvetica,sans-Serif" font-size="10.00">+</text>
<text text-anchor="start" x="151" y="-144.5" font-family="Helvetica,sans-Serif" font-size="10.00">APrimitives()</text>
<text text-anchor="start" x="141" y="-130.5" font-family="Helvetica,sans-Serif" font-size="10.00">+</text>
<text text-anchor="start" x="151" y="-130.5" font-family="Helvetica,sans-Serif" font-size="10.00">APrimitives()</text>
<text text-anchor="start" x="141" y="-116.5" font-family="Helvetica,sans-Serif" font-size="10.00">+</text>
<text text-anchor="start" x="151" y="-116.5" font-family="Helvetica,sans-Serif" font-size="10.00">~APrimitives()</text>
<text text-anchor="start" x="141" y="-102.5" font-family="Helvetica,sans-Serif" font-size="10.00">+</text>
<text text-anchor="start" x="151" y="-102.5" font-family="Helvetica,sans-Serif" font-size="10.00">distance()</text>
<text text-anchor="start" x="141" y="-88.5" font-family="Helvetica,sans-Serif" font-size="10.00">+</text>
<text text-anchor="start" x="151" y="-88.5" font-family="Helvetica,sans-Serif" font-size="10.00">getType()</text>
<text text-anchor="start" x="141" y="-74.5" font-family="Helvetica,sans-Serif" font-size="10.00">+</text>
<text text-anchor="start" x="151" y="-74.5" font-family="Helvetica,sans-Serif" font-size="10.00">getPosition()</text>
<text text-anchor="start" x="141" y="-60.5" font-family="Helvetica,sans-Serif" font-size="10.00">+</text>
<text text-anchor="start" x="151" y="-60.5" font-family="Helvetica,sans-Serif" font-size="10.00">getRotation()</text>
<text text-anchor="start" x="141" y="-46.5" font-family="Helvetica,sans-Serif" font-size="10.00">+</text>
<text text-anchor="start" x="151" y="-46.5" font-family="Helvetica,sans-Serif" font-size="10.00">getScale()</text>
<text text-anchor="start" x="141" y="-32.5" font-family="Helvetica,sans-Serif" font-size="10.00">+</text>
<text text-anchor="start" x="151" y="-32.5" font-family="Helvetica,sans-Serif" font-size="10.00">getMaterial()</text>
<text text-anchor="start" x="141" y="-18.5" font-family="Helvetica,sans-Serif" font-size="10.00">+</text>
<text text-anchor="start" x="151" y="-18.5" font-family="Helvetica,sans-Serif" font-size="10.00">setPosition()</text>
<text text-anchor="start" x="151" y="-4.5" font-family="Helvetica,sans-Serif" font-size="10.00">and 12 more...</text>
<polygon fill="#666666" stroke="#666666" points="137,-212 137,-212 218,-212 218,-212 137,-212"/>
<polygon fill="#666666" stroke="#666666" points="137,-156 137,-156 149,-156 149,-156 137,-156"/>
<polygon fill="#666666" stroke="#666666" points="149,-156 149,-156 218,-156 218,-156 149,-156"/>
<polygon fill="none" stroke="#666666" points="137,0 137,-228 218,-228 218,0 137,0"/>
</a>
</g>
</g>
<!-- Node2 -->
<g id="Node000002" class="node">
<title>Node2</title>
<g id="a_Node000002"><a xlink:href="classIPrimitives.html" target="_top" xlink:title=" ">
<polygon fill="white" stroke="none" points="75,-474.5 0,-474.5 0,-288.5 75,-288.5 75,-474.5"/>
<text text-anchor="start" x="14.62" y="-461" font-family="Helvetica,sans-Serif" font-size="10.00">IPrimitives</text>
<text text-anchor="start" x="36" y="-447" font-family="Helvetica,sans-Serif" font-size="10.00"> </text>
<text text-anchor="start" x="4" y="-433" font-family="Helvetica,sans-Serif" font-size="10.00">+</text>
<text text-anchor="start" x="14" y="-433" font-family="Helvetica,sans-Serif" font-size="10.00">~IPrimitives()</text>
<text text-anchor="start" x="4" y="-419" font-family="Helvetica,sans-Serif" font-size="10.00">+</text>
<text text-anchor="start" x="14" y="-419" font-family="Helvetica,sans-Serif" font-size="10.00">distance()</text>
<text text-anchor="start" x="4" y="-405" font-family="Helvetica,sans-Serif" font-size="10.00">+</text>
<text text-anchor="start" x="14" y="-405" font-family="Helvetica,sans-Serif" font-size="10.00">getType()</text>
<text text-anchor="start" x="4" y="-391" font-family="Helvetica,sans-Serif" font-size="10.00">+</text>
<text text-anchor="start" x="14" y="-391" font-family="Helvetica,sans-Serif" font-size="10.00">getPosition()</text>
<text text-anchor="start" x="4" y="-377" font-family="Helvetica,sans-Serif" font-size="10.00">+</text>
<text text-anchor="start" x="14" y="-377" font-family="Helvetica,sans-Serif" font-size="10.00">getRotation()</text>
<text text-anchor="start" x="4" y="-363" font-family="Helvetica,sans-Serif" font-size="10.00">+</text>
<text text-anchor="start" x="14" y="-363" font-family="Helvetica,sans-Serif" font-size="10.00">getScale()</text>
<text text-anchor="start" x="4" y="-349" font-family="Helvetica,sans-Serif" font-size="10.00">+</text>
<text text-anchor="start" x="14" y="-349" font-family="Helvetica,sans-Serif" font-size="10.00">getMaterial()</text>
<text text-anchor="start" x="4" y="-335" font-family="Helvetica,sans-Serif" font-size="10.00">+</text>
<text text-anchor="start" x="14" y="-335" font-family="Helvetica,sans-Serif" font-size="10.00">setPosition()</text>
<text text-anchor="start" x="4" y="-321" font-family="Helvetica,sans-Serif" font-size="10.00">+</text>
<text text-anchor="start" x="14" y="-321" font-family="Helvetica,sans-Serif" font-size="10.00">setRotation()</text>
<text text-anchor="start" x="4" y="-307" font-family="Helvetica,sans-Serif" font-size="10.00">+</text>
<text text-anchor="start" x="14" y="-307" font-family="Helvetica,sans-Serif" font-size="10.00">setScale()</text>
<text text-anchor="start" x="4" y="-293" font-family="Helvetica,sans-Serif" font-size="10.00">+</text>
<text text-anchor="start" x="14" y="-293" font-family="Helvetica,sans-Serif" font-size="10.00">setMaterial()</text>
<polygon fill="#bfbfbf" stroke="#bfbfbf" points="0,-458.5 0,-458.5 75,-458.5 75,-458.5 0,-458.5"/>
<polygon fill="#bfbfbf" stroke="#bfbfbf" points="0,-444.5 0,-444.5 75,-444.5 75,-444.5 0,-444.5"/>
<polygon fill="none" stroke="#bfbfbf" points="0,-288.5 0,-474.5 75,-474.5 75,-288.5 0,-288.5"/>
</a>
</g>
</g>
<!-- Node2&#45;&gt;Node1 -->
<g id="edge1_Node000001_Node000002" class="edge">
<title>Node2&#45;&gt;Node1</title>
<g id="a_edge1_Node000001_Node000002"><a xlink:title=" ">
<path fill="none" stroke="#63b8ff" d="M79.88,-281.73C81.08,-279.29 82.29,-276.88 83.5,-274.5 99.76,-242.56 119.69,-208.19 137.01,-179.56"/>
<polygon fill="none" stroke="#63b8ff" points="76.82,-280.02 75.62,-290.55 83.12,-283.06 76.82,-280.02"/>
</a>
</g>
</g>
<!-- Node3 -->
<g id="Node000003" class="node">
<title>Node3</title>
<g id="a_Node000003"><a xlink:href="classMath_1_1Point3D.html" target="_top" xlink:title=" ">
<polygon fill="white" stroke="none" points="168,-488.5 93,-488.5 93,-274.5 168,-274.5 168,-488.5"/>
<text text-anchor="start" x="99" y="-475" font-family="Helvetica,sans-Serif" font-size="10.00">Math::Point3D</text>
<text text-anchor="start" x="98.5" y="-461" font-family="Helvetica,sans-Serif" font-size="10.00">&#45;</text>
<text text-anchor="start" x="107" y="-461" font-family="Helvetica,sans-Serif" font-size="10.00">x</text>
<text text-anchor="start" x="98.5" y="-447" font-family="Helvetica,sans-Serif" font-size="10.00">&#45;</text>
<text text-anchor="start" x="107" y="-447" font-family="Helvetica,sans-Serif" font-size="10.00">y</text>
<text text-anchor="start" x="98.5" y="-433" font-family="Helvetica,sans-Serif" font-size="10.00">&#45;</text>
<text text-anchor="start" x="107" y="-433" font-family="Helvetica,sans-Serif" font-size="10.00">z</text>
<text text-anchor="start" x="97" y="-419" font-family="Helvetica,sans-Serif" font-size="10.00">+</text>
<text text-anchor="start" x="107" y="-419" font-family="Helvetica,sans-Serif" font-size="10.00">Point3D()</text>
<text text-anchor="start" x="97" y="-405" font-family="Helvetica,sans-Serif" font-size="10.00">+</text>
<text text-anchor="start" x="107" y="-405" font-family="Helvetica,sans-Serif" font-size="10.00">Point3D()</text>
<text text-anchor="start" x="97" y="-391" font-family="Helvetica,sans-Serif" font-size="10.00">+</text>
<text text-anchor="start" x="107" y="-391" font-family="Helvetica,sans-Serif" font-size="10.00">~Point3D()</text>
<text text-anchor="start" x="97" y="-377" font-family="Helvetica,sans-Serif" font-size="10.00">+</text>
<text text-anchor="start" x="107" y="-377" font-family="Helvetica,sans-Serif" font-size="10.00">getX()</text>
<text text-anchor="start" x="97" y="-363" font-family="Helvetica,sans-Serif" font-size="10.00">+</text>
<text text-anchor="start" x="107" y="-363" font-family="Helvetica,sans-Serif" font-size="10.00">getY()</text>
<text text-anchor="start" x="97" y="-349" font-family="Helvetica,sans-Serif" font-size="10.00">+</text>
<text text-anchor="start" x="107" y="-349" font-family="Helvetica,sans-Serif" font-size="10.00">getZ()</text>
<text text-anchor="start" x="97" y="-335" font-family="Helvetica,sans-Serif" font-size="10.00">+</text>
<text text-anchor="start" x="107" y="-335" font-family="Helvetica,sans-Serif" font-size="10.00">setX()</text>
<text text-anchor="start" x="97" y="-321" font-family="Helvetica,sans-Serif" font-size="10.00">+</text>
<text text-anchor="start" x="107" y="-321" font-family="Helvetica,sans-Serif" font-size="10.00">setY()</text>
<text text-anchor="start" x="97" y="-307" font-family="Helvetica,sans-Serif" font-size="10.00">+</text>
<text text-anchor="start" x="107" y="-307" font-family="Helvetica,sans-Serif" font-size="10.00">setZ()</text>
<text text-anchor="start" x="97" y="-293" font-family="Helvetica,sans-Serif" font-size="10.00">+</text>
<text text-anchor="start" x="107" y="-293" font-family="Helvetica,sans-Serif" font-size="10.00">normalize()</text>
<text text-anchor="start" x="106.62" y="-279" font-family="Helvetica,sans-Serif" font-size="10.00">and 9 more...</text>
<polygon fill="#bfbfbf" stroke="#bfbfbf" points="93,-472.5 93,-472.5 168,-472.5 168,-472.5 93,-472.5"/>
<polygon fill="#bfbfbf" stroke="#bfbfbf" points="93,-430.5 93,-430.5 105,-430.5 105,-430.5 93,-430.5"/>
<polygon fill="#bfbfbf" stroke="#bfbfbf" points="105,-430.5 105,-430.5 168,-430.5 168,-430.5 105,-430.5"/>
<polygon fill="none" stroke="#bfbfbf" points="93,-274.5 93,-488.5 168,-488.5 168,-274.5 93,-274.5"/>
</a>
</g>
</g>
<!-- Node3&#45;&gt;Node1 -->
<g id="edge2_Node000001_Node000003" class="edge">
<title>Node3&#45;&gt;Node1</title>
<g id="a_edge2_Node000001_Node000003"><a xlink:title=" ">
<path fill="none" stroke="#63b8ff" d="M149.21,-274.8C151.22,-263.44 153.28,-251.8 155.33,-240.24"/>
<polygon fill="none" stroke="#63b8ff" points="155.29,-240.44 152.4,-233.84 157.39,-228.63 160.28,-235.23 155.29,-240.44"/>
</a>
</g>
<text text-anchor="middle" x="175.5" y="-247" font-family="Helvetica,sans-Serif" font-size="10.00" fill="grey"> #position</text>
</g>
<!-- Node4 -->
<g id="Node000004" class="node">
<title>Node4</title>
<g id="a_Node000004"><a xlink:href="classMath_1_1Rot3D.html" target="_top" xlink:title=" ">
<polygon fill="white" stroke="none" points="264.5,-488.5 186.5,-488.5 186.5,-274.5 264.5,-274.5 264.5,-488.5"/>
<text text-anchor="start" x="197.38" y="-475" font-family="Helvetica,sans-Serif" font-size="10.00">Math::Rot3D</text>
<text text-anchor="start" x="190.5" y="-461" font-family="Helvetica,sans-Serif" font-size="10.00">+</text>
<text text-anchor="start" x="200.5" y="-461" font-family="Helvetica,sans-Serif" font-size="10.00">x_pitch</text>
<text text-anchor="start" x="190.5" y="-447" font-family="Helvetica,sans-Serif" font-size="10.00">+</text>
<text text-anchor="start" x="200.5" y="-447" font-family="Helvetica,sans-Serif" font-size="10.00">z_yaw</text>
<text text-anchor="start" x="190.5" y="-433" font-family="Helvetica,sans-Serif" font-size="10.00">+</text>
<text text-anchor="start" x="200.5" y="-433" font-family="Helvetica,sans-Serif" font-size="10.00">y_roll</text>
<text text-anchor="start" x="190.5" y="-419" font-family="Helvetica,sans-Serif" font-size="10.00">+</text>
<text text-anchor="start" x="200.5" y="-419" font-family="Helvetica,sans-Serif" font-size="10.00">Rot3D()</text>
<text text-anchor="start" x="190.5" y="-405" font-family="Helvetica,sans-Serif" font-size="10.00">+</text>
<text text-anchor="start" x="200.5" y="-405" font-family="Helvetica,sans-Serif" font-size="10.00">Rot3D()</text>
<text text-anchor="start" x="190.5" y="-391" font-family="Helvetica,sans-Serif" font-size="10.00">+</text>
<text text-anchor="start" x="200.5" y="-391" font-family="Helvetica,sans-Serif" font-size="10.00">toVector()</text>
<text text-anchor="start" x="190.5" y="-377" font-family="Helvetica,sans-Serif" font-size="10.00">+</text>
<text text-anchor="start" x="200.5" y="-377" font-family="Helvetica,sans-Serif" font-size="10.00">operator+()</text>
<text text-anchor="start" x="190.5" y="-363" font-family="Helvetica,sans-Serif" font-size="10.00">+</text>
<text text-anchor="start" x="200.5" y="-363" font-family="Helvetica,sans-Serif" font-size="10.00">operator+=()</text>
<text text-anchor="start" x="190.5" y="-349" font-family="Helvetica,sans-Serif" font-size="10.00">+</text>
<text text-anchor="start" x="200.5" y="-349" font-family="Helvetica,sans-Serif" font-size="10.00">operator&#45;()</text>
<text text-anchor="start" x="190.5" y="-335" font-family="Helvetica,sans-Serif" font-size="10.00">+</text>
<text text-anchor="start" x="200.5" y="-335" font-family="Helvetica,sans-Serif" font-size="10.00">operator&#45;=()</text>
<text text-anchor="start" x="190.5" y="-321" font-family="Helvetica,sans-Serif" font-size="10.00">+</text>
<text text-anchor="start" x="200.5" y="-321" font-family="Helvetica,sans-Serif" font-size="10.00">operator&#45;()</text>
<text text-anchor="start" x="190.5" y="-307" font-family="Helvetica,sans-Serif" font-size="10.00">+</text>
<text text-anchor="start" x="200.5" y="-307" font-family="Helvetica,sans-Serif" font-size="10.00">toUnitVector()</text>
<text text-anchor="start" x="190.5" y="-293" font-family="Helvetica,sans-Serif" font-size="10.00">+</text>
<text text-anchor="start" x="200.5" y="-293" font-family="Helvetica,sans-Serif" font-size="10.00">rotate()</text>
<text text-anchor="start" x="200.5" y="-279" font-family="Helvetica,sans-Serif" font-size="10.00">and 6 more...</text>
<polygon fill="#bfbfbf" stroke="#bfbfbf" points="186.5,-472.5 186.5,-472.5 264.5,-472.5 264.5,-472.5 186.5,-472.5"/>
<polygon fill="#bfbfbf" stroke="#bfbfbf" points="186.5,-430.5 186.5,-430.5 198.5,-430.5 198.5,-430.5 186.5,-430.5"/>
<polygon fill="#bfbfbf" stroke="#bfbfbf" points="198.5,-430.5 198.5,-430.5 264.5,-430.5 264.5,-430.5 198.5,-430.5"/>
<polygon fill="none" stroke="#bfbfbf" points="186.5,-274.5 186.5,-488.5 264.5,-488.5 264.5,-274.5 186.5,-274.5"/>
</a>
</g>
</g>
<!-- Node4&#45;&gt;Node1 -->
<g id="edge3_Node000001_Node000004" class="edge">
<title>Node4&#45;&gt;Node1</title>
<g id="a_edge3_Node000001_Node000004"><a xlink:title=" ">
<path fill="none" stroke="#63b8ff" d="M206.39,-274.8C204.34,-263.44 202.23,-251.8 200.14,-240.24"/>
<polygon fill="none" stroke="#63b8ff" points="200.18,-240.43 195.17,-235.24 198.04,-228.63 203.05,-233.82 200.18,-240.43"/>
</a>
</g>
<text text-anchor="middle" x="225.38" y="-247" font-family="Helvetica,sans-Serif" font-size="10.00" fill="grey"> #_rotation</text>
</g>
<!-- Node5 -->
<g id="Node000005" class="node">
<title>Node5</title>
<g id="a_Node000005"><a xlink:href="classColor.html" target="_top" xlink:title=" ">
<polygon fill="white" stroke="none" points="378.5,-488.5 282.5,-488.5 282.5,-274.5 378.5,-274.5 378.5,-488.5"/>
<text text-anchor="start" x="318.88" y="-475" font-family="Helvetica,sans-Serif" font-size="10.00">Color</text>
<text text-anchor="start" x="288" y="-461" font-family="Helvetica,sans-Serif" font-size="10.00">&#45;</text>
<text text-anchor="start" x="296.5" y="-461" font-family="Helvetica,sans-Serif" font-size="10.00">_red</text>
<text text-anchor="start" x="288" y="-447" font-family="Helvetica,sans-Serif" font-size="10.00">&#45;</text>
<text text-anchor="start" x="296.5" y="-447" font-family="Helvetica,sans-Serif" font-size="10.00">_green</text>
<text text-anchor="start" x="288" y="-433" font-family="Helvetica,sans-Serif" font-size="10.00">&#45;</text>
<text text-anchor="start" x="296.5" y="-433" font-family="Helvetica,sans-Serif" font-size="10.00">_blue</text>
<text text-anchor="start" x="288" y="-419" font-family="Helvetica,sans-Serif" font-size="10.00">&#45;</text>
<text text-anchor="start" x="296.5" y="-419" font-family="Helvetica,sans-Serif" font-size="10.00">_transparency</text>
<text text-anchor="start" x="286.5" y="-405" font-family="Helvetica,sans-Serif" font-size="10.00">+</text>
<text text-anchor="start" x="296.5" y="-405" font-family="Helvetica,sans-Serif" font-size="10.00">Color()</text>
<text text-anchor="start" x="286.5" y="-391" font-family="Helvetica,sans-Serif" font-size="10.00">+</text>
<text text-anchor="start" x="296.5" y="-391" font-family="Helvetica,sans-Serif" font-size="10.00">~Color()</text>
<text text-anchor="start" x="286.5" y="-377" font-family="Helvetica,sans-Serif" font-size="10.00">+</text>
<text text-anchor="start" x="296.5" y="-377" font-family="Helvetica,sans-Serif" font-size="10.00">Color()</text>
<text text-anchor="start" x="286.5" y="-363" font-family="Helvetica,sans-Serif" font-size="10.00">+</text>
<text text-anchor="start" x="296.5" y="-363" font-family="Helvetica,sans-Serif" font-size="10.00">Color()</text>
<text text-anchor="start" x="286.5" y="-349" font-family="Helvetica,sans-Serif" font-size="10.00">+</text>
<text text-anchor="start" x="296.5" y="-349" font-family="Helvetica,sans-Serif" font-size="10.00">operator=()</text>
<text text-anchor="start" x="286.5" y="-335" font-family="Helvetica,sans-Serif" font-size="10.00">+</text>
<text text-anchor="start" x="296.5" y="-335" font-family="Helvetica,sans-Serif" font-size="10.00">setTransparency()</text>
<text text-anchor="start" x="286.5" y="-321" font-family="Helvetica,sans-Serif" font-size="10.00">+</text>
<text text-anchor="start" x="296.5" y="-321" font-family="Helvetica,sans-Serif" font-size="10.00">getRed()</text>
<text text-anchor="start" x="286.5" y="-307" font-family="Helvetica,sans-Serif" font-size="10.00">+</text>
<text text-anchor="start" x="296.5" y="-307" font-family="Helvetica,sans-Serif" font-size="10.00">getGreen()</text>
<text text-anchor="start" x="286.5" y="-293" font-family="Helvetica,sans-Serif" font-size="10.00">+</text>
<text text-anchor="start" x="296.5" y="-293" font-family="Helvetica,sans-Serif" font-size="10.00">getBlue()</text>
<text text-anchor="start" x="286.5" y="-279" font-family="Helvetica,sans-Serif" font-size="10.00">+</text>
<text text-anchor="start" x="296.5" y="-279" font-family="Helvetica,sans-Serif" font-size="10.00">getTransparency()</text>
<polygon fill="#bfbfbf" stroke="#bfbfbf" points="282.5,-472.5 282.5,-472.5 378.5,-472.5 378.5,-472.5 282.5,-472.5"/>
<polygon fill="#bfbfbf" stroke="#bfbfbf" points="282.5,-416.5 282.5,-416.5 294.5,-416.5 294.5,-416.5 282.5,-416.5"/>
<polygon fill="#bfbfbf" stroke="#bfbfbf" points="294.5,-416.5 294.5,-416.5 378.5,-416.5 378.5,-416.5 294.5,-416.5"/>
<polygon fill="none" stroke="#bfbfbf" points="282.5,-274.5 282.5,-488.5 378.5,-488.5 378.5,-274.5 282.5,-274.5"/>
</a>
</g>
</g>
<!-- Node5&#45;&gt;Node1 -->
<g id="edge4_Node000001_Node000005" class="edge">
<title>Node5&#45;&gt;Node1</title>
<g id="a_edge4_Node000001_Node000005"><a xlink:title=" ">
<path fill="none" stroke="#63b8ff" d="M282.6,-290.69C279.55,-285.2 276.5,-279.77 273.5,-274.5 257.97,-247.22 240.4,-217.68 224.58,-191.53"/>
<polygon fill="none" stroke="#63b8ff" points="224.61,-191.57 218.08,-188.51 218.39,-181.31 224.92,-184.37 224.61,-191.57"/>
</a>
</g>
<text text-anchor="middle" x="277.75" y="-247" font-family="Helvetica,sans-Serif" font-size="10.00" fill="grey"> #_color</text>
</g>
</g>
</svg>
