<?xml version="1.0" encoding="UTF-8" standalone="no"?>
<!DOCTYPE svg PUBLIC "-//W3C//DTD SVG 1.1//EN"
 "http://www.w3.org/Graphics/SVG/1.1/DTD/svg11.dtd">
<!-- Generated by graphviz version 9.0.0 (20230911.1827)
 -->
<!-- Title: Graphical Class Hierarchy Pages: 1 -->
<svg width="259pt" height="138pt"
 viewBox="0.00 0.00 259.25 137.50" xmlns="http://www.w3.org/2000/svg" xmlns:xlink="http://www.w3.org/1999/xlink">
<g id="graph0" class="graph" transform="scale(1 1) rotate(0) translate(4 133.5)">
<title>Graphical Class Hierarchy</title>
<!-- Node0 -->
<g id="Node000000" class="node">
<title>Node0</title>
<g id="a_Node000000"><a xlink:href="classIPrimitives.html" target="_top" xlink:title=" ">
<polygon fill="white" stroke="#666666" points="61.75,-73.5 0,-73.5 0,-55 61.75,-55 61.75,-73.5"/>
<text text-anchor="middle" x="30.88" y="-60" font-family="Helvetica,sans-Serif" font-size="10.00">IPrimitives</text>
</a>
</g>
</g>
<!-- Node1 -->
<g id="Node000001" class="node">
<title>Node1</title>
<g id="a_Node000001"><a xlink:href="classAPrimitives.html" target="_top" xlink:title=" ">
<polygon fill="white" stroke="#666666" points="163.25,-73.5 97.75,-73.5 97.75,-55 163.25,-55 163.25,-73.5"/>
<text text-anchor="middle" x="130.5" y="-60" font-family="Helvetica,sans-Serif" font-size="10.00">APrimitives</text>
</a>
</g>
</g>
<!-- Node0&#45;&gt;Node1 -->
<g id="edge4_Node000000_Node000001" class="edge">
<title>Node0&#45;&gt;Node1</title>
<g id="a_edge4_Node000000_Node000001"><a xlink:title=" ">
<path fill="none" stroke="#63b8ff" d="M73.64,-64.25C81.62,-64.25 89.86,-64.25 97.47,-64.25"/>
<polygon fill="#63b8ff" stroke="#63b8ff" points="73.74,-60.75 63.74,-64.25 73.74,-67.75 73.74,-60.75"/>
</a>
</g>
</g>
<!-- Node2 -->
<g id="Node000002" class="node">
<title>Node2</title>
<g id="a_Node000002"><a xlink:href="classCone.html" target="_top" xlink:title=" ">
<polygon fill="white" stroke="#666666" points="244.88,-129.5 205.62,-129.5 205.62,-111 244.88,-111 244.88,-129.5"/>
<text text-anchor="middle" x="225.25" y="-116" font-family="Helvetica,sans-Serif" font-size="10.00">Cone</text>
</a>
</g>
</g>
<!-- Node1&#45;&gt;Node2 -->
<g id="edge5_Node000001_Node000002" class="edge">
<title>Node1&#45;&gt;Node2</title>
<g id="a_edge5_Node000001_Node000002"><a xlink:title=" ">
<path fill="none" stroke="#63b8ff" d="M156.75,-79.5C173.12,-89.38 193.97,-101.96 208.13,-110.52"/>
<polygon fill="#63b8ff" stroke="#63b8ff" points="158.9,-76.7 148.53,-74.53 155.28,-82.7 158.9,-76.7"/>
</a>
</g>
</g>
<!-- Node3 -->
<g id="Node000003" class="node">
<title>Node3</title>
<g id="a_Node000003"><a xlink:href="classCylinder.html" target="_top" xlink:title=" ">
<polygon fill="white" stroke="#666666" points="251.25,-92.5 199.25,-92.5 199.25,-74 251.25,-74 251.25,-92.5"/>
<text text-anchor="middle" x="225.25" y="-79" font-family="Helvetica,sans-Serif" font-size="10.00">Cylinder</text>
</a>
</g>
</g>
<!-- Node1&#45;&gt;Node3 -->
<g id="edge6_Node000001_Node000003" class="edge">
<title>Node1&#45;&gt;Node3</title>
<g id="a_edge6_Node000001_Node000003"><a xlink:title=" ">
<path fill="none" stroke="#63b8ff" d="M174.75,-73.11C183,-74.8 191.38,-76.52 198.85,-78.05"/>
<polygon fill="#63b8ff" stroke="#63b8ff" points="175.66,-69.72 165.16,-71.15 174.26,-76.58 175.66,-69.72"/>
</a>
</g>
</g>
<!-- Node4 -->
<g id="Node000004" class="node">
<title>Node4</title>
<g id="a_Node000004"><a xlink:href="classPlane.html" target="_top" xlink:title=" ">
<polygon fill="white" stroke="#666666" points="245.62,-55.5 204.88,-55.5 204.88,-37 245.62,-37 245.62,-55.5"/>
<text text-anchor="middle" x="225.25" y="-42" font-family="Helvetica,sans-Serif" font-size="10.00">Plane</text>
</a>
</g>
</g>
<!-- Node1&#45;&gt;Node4 -->
<g id="edge7_Node000001_Node000004" class="edge">
<title>Node1&#45;&gt;Node4</title>
<g id="a_edge7_Node000001_Node000004"><a xlink:title=" ">
<path fill="none" stroke="#63b8ff" d="M174.8,-55.85C185.22,-53.82 195.84,-51.76 204.56,-50.07"/>
<polygon fill="#63b8ff" stroke="#63b8ff" points="174.31,-52.38 165.16,-57.72 175.65,-59.25 174.31,-52.38"/>
</a>
</g>
</g>
<!-- Node5 -->
<g id="Node000005" class="node">
<title>Node5</title>
<g id="a_Node000005"><a xlink:href="classSphere.html" target="_top" xlink:title=" ">
<polygon fill="white" stroke="#666666" points="248.62,-18.5 201.88,-18.5 201.88,0 248.62,0 248.62,-18.5"/>
<text text-anchor="middle" x="225.25" y="-5" font-family="Helvetica,sans-Serif" font-size="10.00">Sphere</text>
</a>
</g>
</g>
<!-- Node1&#45;&gt;Node5 -->
<g id="edge8_Node000001_Node000005" class="edge">
<title>Node1&#45;&gt;Node5</title>
<g id="a_edge8_Node000001_Node000005"><a xlink:title=" ">
<path fill="none" stroke="#63b8ff" d="M157.13,-49.05C173.38,-39.42 193.92,-27.24 207.97,-18.91"/>
<polygon fill="#63b8ff" stroke="#63b8ff" points="155.77,-45.79 148.96,-53.9 159.34,-51.81 155.77,-45.79"/>
</a>
</g>
</g>
</g>
</svg>
