<?xml version="1.0" encoding="UTF-8" standalone="no"?>
<!DOCTYPE svg PUBLIC "-//W3C//DTD SVG 1.1//EN"
 "http://www.w3.org/Graphics/SVG/1.1/DTD/svg11.dtd">
<!-- Generated by graphviz version 9.0.0 (20230911.1827)
 -->
<!-- Title: Graphical Class Hierarchy Pages: 1 -->
<svg width="443pt" height="249pt"
 viewBox="0.00 0.00 442.50 248.50" xmlns="http://www.w3.org/2000/svg" xmlns:xlink="http://www.w3.org/1999/xlink">
<g id="graph0" class="graph" transform="scale(1 1) rotate(0) translate(4 244.5)">
<title>Graphical Class Hierarchy</title>
<!-- Node0 -->
<g id="Node000000" class="node">
<title>Node0</title>
<g id="a_Node000000"><a xlink:title=" ">
<polygon fill="#e0e0e0" stroke="#999999" points="76.75,-147.5 0,-147.5 0,-129 76.75,-129 76.75,-147.5"/>
<text text-anchor="middle" x="38.38" y="-134" font-family="Helvetica,sans-Serif" font-size="10.00">std::exception</text>
</a>
</g>
</g>
<!-- Node1 -->
<g id="Node000001" class="node">
<title>Node1</title>
<g id="a_Node000001"><a xlink:href="classError.html" target="_top" xlink:title=" ">
<polygon fill="white" stroke="#666666" points="162.12,-166.5 125.12,-166.5 125.12,-148 162.12,-148 162.12,-166.5"/>
<text text-anchor="middle" x="143.62" y="-153" font-family="Helvetica,sans-Serif" font-size="10.00">Error</text>
</a>
</g>
</g>
<!-- Node0&#45;&gt;Node1 -->
<g id="edge9_Node000000_Node000001" class="edge">
<title>Node0&#45;&gt;Node1</title>
<g id="a_edge9_Node000000_Node000001"><a xlink:title=" ">
<path fill="none" stroke="#63b8ff" d="M88.49,-147.29C101.44,-149.67 114.61,-152.1 124.72,-153.96"/>
<polygon fill="#63b8ff" stroke="#63b8ff" points="89.19,-143.86 78.72,-145.49 87.93,-150.74 89.19,-143.86"/>
</a>
</g>
</g>
<!-- Node2 -->
<g id="Node000002" class="node">
<title>Node2</title>
<g id="a_Node000002"><a xlink:href="classIException.html" target="_top" xlink:title=" ">
<polygon fill="white" stroke="#666666" points="174.5,-129.5 112.75,-129.5 112.75,-111 174.5,-111 174.5,-129.5"/>
<text text-anchor="middle" x="143.62" y="-116" font-family="Helvetica,sans-Serif" font-size="10.00">IException</text>
</a>
</g>
</g>
<!-- Node0&#45;&gt;Node2 -->
<g id="edge10_Node000000_Node000002" class="edge">
<title>Node0&#45;&gt;Node2</title>
<g id="a_edge10_Node000000_Node000002"><a xlink:title=" ">
<path fill="none" stroke="#63b8ff" d="M88.35,-129.71C96.6,-128.27 104.94,-126.82 112.52,-125.5"/>
<polygon fill="#63b8ff" stroke="#63b8ff" points="87.98,-126.22 78.73,-131.39 89.18,-133.12 87.98,-126.22"/>
</a>
</g>
</g>
<!-- Node3 -->
<g id="Node000003" class="node">
<title>Node3</title>
<g id="a_Node000003"><a xlink:href="classAException.html" target="_top" xlink:title=" ">
<polygon fill="white" stroke="#666666" points="276,-129.5 210.5,-129.5 210.5,-111 276,-111 276,-129.5"/>
<text text-anchor="middle" x="243.25" y="-116" font-family="Helvetica,sans-Serif" font-size="10.00">AException</text>
</a>
</g>
</g>
<!-- Node2&#45;&gt;Node3 -->
<g id="edge11_Node000002_Node000003" class="edge">
<title>Node2&#45;&gt;Node3</title>
<g id="a_edge11_Node000002_Node000003"><a xlink:title=" ">
<path fill="none" stroke="#63b8ff" d="M186.39,-120.25C194.37,-120.25 202.61,-120.25 210.22,-120.25"/>
<polygon fill="#63b8ff" stroke="#63b8ff" points="186.49,-116.75 176.49,-120.25 186.49,-123.75 186.49,-116.75"/>
</a>
</g>
</g>
<!-- Node4 -->
<g id="Node000004" class="node">
<title>Node4</title>
<g id="a_Node000004"><a xlink:href="classColorException.html" target="_top" xlink:title=" ">
<polygon fill="white" stroke="#666666" points="414.25,-240.5 332.25,-240.5 332.25,-222 414.25,-222 414.25,-240.5"/>
<text text-anchor="middle" x="373.25" y="-227" font-family="Helvetica,sans-Serif" font-size="10.00">ColorException</text>
</a>
</g>
</g>
<!-- Node3&#45;&gt;Node4 -->
<g id="edge12_Node000003_Node000004" class="edge">
<title>Node3&#45;&gt;Node4</title>
<g id="a_edge12_Node000003_Node000004"><a xlink:title=" ">
<path fill="none" stroke="#63b8ff" d="M253.87,-139.85C265.07,-160.72 285.47,-193.28 312,-212.25 317.98,-216.52 324.95,-219.86 331.99,-222.46"/>
<polygon fill="#63b8ff" stroke="#63b8ff" points="257.12,-138.52 249.43,-131.23 250.89,-141.73 257.12,-138.52"/>
</a>
</g>
</g>
<!-- Node5 -->
<g id="Node000005" class="node">
<title>Node5</title>
<g id="a_Node000005"><a xlink:href="classCommandException.html" target="_top" xlink:title=" ">
<polygon fill="white" stroke="#666666" points="425.12,-203.5 321.38,-203.5 321.38,-185 425.12,-185 425.12,-203.5"/>
<text text-anchor="middle" x="373.25" y="-190" font-family="Helvetica,sans-Serif" font-size="10.00">CommandException</text>
</a>
</g>
</g>
<!-- Node3&#45;&gt;Node5 -->
<g id="edge13_Node000003_Node000005" class="edge">
<title>Node3&#45;&gt;Node5</title>
<g id="a_edge13_Node000003_Node000005"><a xlink:title=" ">
<path fill="none" stroke="#63b8ff" d="M261.49,-137.35C274.45,-149.39 293.14,-165.1 312,-175.25 318.86,-178.94 326.55,-182.04 334.08,-184.61"/>
<polygon fill="#63b8ff" stroke="#63b8ff" points="264.25,-135.14 254.6,-130.76 259.41,-140.2 264.25,-135.14"/>
</a>
</g>
</g>
<!-- Node6 -->
<g id="Node000006" class="node">
<title>Node6</title>
<g id="a_Node000006"><a xlink:href="classFactoryException.html" target="_top" xlink:title=" ">
<polygon fill="white" stroke="#666666" points="419.5,-166.5 327,-166.5 327,-148 419.5,-148 419.5,-166.5"/>
<text text-anchor="middle" x="373.25" y="-153" font-family="Helvetica,sans-Serif" font-size="10.00">FactoryException</text>
</a>
</g>
</g>
<!-- Node3&#45;&gt;Node6 -->
<g id="edge14_Node000003_Node000006" class="edge">
<title>Node3&#45;&gt;Node6</title>
<g id="a_edge14_Node000003_Node000006"><a xlink:title=" ">
<path fill="none" stroke="#63b8ff" d="M286.96,-132.59C303.88,-137.49 323.03,-143.02 338.9,-147.61"/>
<polygon fill="#63b8ff" stroke="#63b8ff" points="288.25,-129.33 277.67,-129.91 286.31,-136.05 288.25,-129.33"/>
</a>
</g>
</g>
<!-- Node7 -->
<g id="Node000007" class="node">
<title>Node7</title>
<g id="a_Node000007"><a xlink:href="classFileException.html" target="_top" xlink:title=" ">
<polygon fill="white" stroke="#666666" points="410.5,-129.5 336,-129.5 336,-111 410.5,-111 410.5,-129.5"/>
<text text-anchor="middle" x="373.25" y="-116" font-family="Helvetica,sans-Serif" font-size="10.00">FileException</text>
</a>
</g>
</g>
<!-- Node3&#45;&gt;Node7 -->
<g id="edge15_Node000003_Node000007" class="edge">
<title>Node3&#45;&gt;Node7</title>
<g id="a_edge15_Node000003_Node000007"><a xlink:title=" ">
<path fill="none" stroke="#63b8ff" d="M287.73,-120.25C303.33,-120.25 320.76,-120.25 335.71,-120.25"/>
<polygon fill="#63b8ff" stroke="#63b8ff" points="287.73,-116.75 277.73,-120.25 287.73,-123.75 287.73,-116.75"/>
</a>
</g>
</g>
<!-- Node8 -->
<g id="Node000008" class="node">
<title>Node8</title>
<g id="a_Node000008"><a xlink:href="classMaterialLoaderException.html" target="_top" xlink:title=" ">
<polygon fill="white" stroke="#666666" points="434.5,-92.5 312,-92.5 312,-74 434.5,-74 434.5,-92.5"/>
<text text-anchor="middle" x="373.25" y="-79" font-family="Helvetica,sans-Serif" font-size="10.00">MaterialLoaderException</text>
</a>
</g>
</g>
<!-- Node3&#45;&gt;Node8 -->
<g id="edge16_Node000003_Node000008" class="edge">
<title>Node3&#45;&gt;Node8</title>
<g id="a_edge16_Node000003_Node000008"><a xlink:title=" ">
<path fill="none" stroke="#63b8ff" d="M286.96,-107.91C303.88,-103.01 323.03,-97.48 338.9,-92.89"/>
<polygon fill="#63b8ff" stroke="#63b8ff" points="286.31,-104.45 277.67,-110.59 288.25,-111.17 286.31,-104.45"/>
</a>
</g>
</g>
<!-- Node9 -->
<g id="Node000009" class="node">
<title>Node9</title>
<g id="a_Node000009"><a xlink:href="classMathExeption.html" target="_top" xlink:title=" ">
<polygon fill="white" stroke="#666666" points="410.88,-55.5 335.62,-55.5 335.62,-37 410.88,-37 410.88,-55.5"/>
<text text-anchor="middle" x="373.25" y="-42" font-family="Helvetica,sans-Serif" font-size="10.00">MathExeption</text>
</a>
</g>
</g>
<!-- Node3&#45;&gt;Node9 -->
<g id="edge17_Node000003_Node000009" class="edge">
<title>Node3&#45;&gt;Node9</title>
<g id="a_edge17_Node000003_Node000009"><a xlink:title=" ">
<path fill="none" stroke="#63b8ff" d="M261.49,-103.15C274.45,-91.11 293.14,-75.4 312,-65.25 319.24,-61.35 327.41,-58.11 335.35,-55.47"/>
<polygon fill="#63b8ff" stroke="#63b8ff" points="259.41,-100.3 254.6,-109.74 264.25,-105.36 259.41,-100.3"/>
</a>
</g>
</g>
<!-- Node10 -->
<g id="Node000010" class="node">
<title>Node10</title>
<g id="a_Node000010"><a xlink:href="classSceneException.html" target="_top" xlink:title=" ">
<polygon fill="white" stroke="#666666" points="416.5,-18.5 330,-18.5 330,0 416.5,0 416.5,-18.5"/>
<text text-anchor="middle" x="373.25" y="-5" font-family="Helvetica,sans-Serif" font-size="10.00">SceneException</text>
</a>
</g>
</g>
<!-- Node3&#45;&gt;Node10 -->
<g id="edge18_Node000003_Node000010" class="edge">
<title>Node3&#45;&gt;Node10</title>
<g id="a_edge18_Node000003_Node000010"><a xlink:title=" ">
<path fill="none" stroke="#63b8ff" d="M253.87,-100.65C265.07,-79.78 285.47,-47.22 312,-28.25 317.35,-24.42 323.51,-21.35 329.79,-18.88"/>
<polygon fill="#63b8ff" stroke="#63b8ff" points="250.89,-98.77 249.43,-109.27 257.12,-101.98 250.89,-98.77"/>
</a>
</g>
</g>
</g>
</svg>
