<?xml version="1.0" encoding="UTF-8" standalone="no"?>
<!DOCTYPE svg PUBLIC "-//W3C//DTD SVG 1.1//EN"
 "http://www.w3.org/Graphics/SVG/1.1/DTD/svg11.dtd">
<!-- Generated by graphviz version 9.0.0 (20230911.1827)
 -->
<!-- Title: PixelInfo Pages: 1 -->
<svg width="105pt" height="357pt"
 viewBox="0.00 0.00 105.00 356.50" xmlns="http://www.w3.org/2000/svg" xmlns:xlink="http://www.w3.org/1999/xlink">
<g id="graph0" class="graph" transform="scale(1 1) rotate(0) translate(4 352.5)">
<title>PixelInfo</title>
<!-- Node1 -->
<g id="Node000001" class="node">
<title>Node1</title>
<g id="a_Node000001"><a xlink:title=" ">
<polygon fill="#999999" stroke="none" points="97,-88 0,-88 0,0 97,0 97,-88"/>
<text text-anchor="start" x="29.75" y="-74.5" font-family="Helvetica,sans-Serif" font-size="10.00">PixelInfo</text>
<text text-anchor="start" x="4" y="-60.5" font-family="Helvetica,sans-Serif" font-size="10.00">+</text>
<text text-anchor="start" x="14" y="-60.5" font-family="Helvetica,sans-Serif" font-size="10.00">_normalizedVector</text>
<text text-anchor="start" x="4" y="-46.5" font-family="Helvetica,sans-Serif" font-size="10.00">+</text>
<text text-anchor="start" x="14" y="-46.5" font-family="Helvetica,sans-Serif" font-size="10.00">_distance</text>
<text text-anchor="start" x="4" y="-32.5" font-family="Helvetica,sans-Serif" font-size="10.00">+</text>
<text text-anchor="start" x="14" y="-32.5" font-family="Helvetica,sans-Serif" font-size="10.00">_isHit</text>
<text text-anchor="start" x="4" y="-18.5" font-family="Helvetica,sans-Serif" font-size="10.00">+</text>
<text text-anchor="start" x="14" y="-18.5" font-family="Helvetica,sans-Serif" font-size="10.00">_pos</text>
<text text-anchor="start" x="47" y="-4.5" font-family="Helvetica,sans-Serif" font-size="10.00"> </text>
<polygon fill="#666666" stroke="#666666" points="0,-72 0,-72 97,-72 97,-72 0,-72"/>
<polygon fill="#666666" stroke="#666666" points="0,-16 0,-16 12,-16 12,-16 0,-16"/>
<polygon fill="#666666" stroke="#666666" points="12,-16 12,-16 97,-16 97,-16 12,-16"/>
<polygon fill="none" stroke="#666666" points="0,0 0,-88 97,-88 97,0 0,0"/>
</a>
</g>
</g>
<!-- Node2 -->
<g id="Node000002" class="node">
<title>Node2</title>
<g id="a_Node000002"><a xlink:href="classColor.html" target="_top" xlink:title=" ">
<polygon fill="white" stroke="none" points="96.5,-348.5 0.5,-348.5 0.5,-134.5 96.5,-134.5 96.5,-348.5"/>
<text text-anchor="start" x="36.88" y="-335" font-family="Helvetica,sans-Serif" font-size="10.00">Color</text>
<text text-anchor="start" x="6" y="-321" font-family="Helvetica,sans-Serif" font-size="10.00">&#45;</text>
<text text-anchor="start" x="14.5" y="-321" font-family="Helvetica,sans-Serif" font-size="10.00">_red</text>
<text text-anchor="start" x="6" y="-307" font-family="Helvetica,sans-Serif" font-size="10.00">&#45;</text>
<text text-anchor="start" x="14.5" y="-307" font-family="Helvetica,sans-Serif" font-size="10.00">_green</text>
<text text-anchor="start" x="6" y="-293" font-family="Helvetica,sans-Serif" font-size="10.00">&#45;</text>
<text text-anchor="start" x="14.5" y="-293" font-family="Helvetica,sans-Serif" font-size="10.00">_blue</text>
<text text-anchor="start" x="6" y="-279" font-family="Helvetica,sans-Serif" font-size="10.00">&#45;</text>
<text text-anchor="start" x="14.5" y="-279" font-family="Helvetica,sans-Serif" font-size="10.00">_transparency</text>
<text text-anchor="start" x="4.5" y="-265" font-family="Helvetica,sans-Serif" font-size="10.00">+</text>
<text text-anchor="start" x="14.5" y="-265" font-family="Helvetica,sans-Serif" font-size="10.00">Color()</text>
<text text-anchor="start" x="4.5" y="-251" font-family="Helvetica,sans-Serif" font-size="10.00">+</text>
<text text-anchor="start" x="14.5" y="-251" font-family="Helvetica,sans-Serif" font-size="10.00">~Color()</text>
<text text-anchor="start" x="4.5" y="-237" font-family="Helvetica,sans-Serif" font-size="10.00">+</text>
<text text-anchor="start" x="14.5" y="-237" font-family="Helvetica,sans-Serif" font-size="10.00">Color()</text>
<text text-anchor="start" x="4.5" y="-223" font-family="Helvetica,sans-Serif" font-size="10.00">+</text>
<text text-anchor="start" x="14.5" y="-223" font-family="Helvetica,sans-Serif" font-size="10.00">Color()</text>
<text text-anchor="start" x="4.5" y="-209" font-family="Helvetica,sans-Serif" font-size="10.00">+</text>
<text text-anchor="start" x="14.5" y="-209" font-family="Helvetica,sans-Serif" font-size="10.00">operator=()</text>
<text text-anchor="start" x="4.5" y="-195" font-family="Helvetica,sans-Serif" font-size="10.00">+</text>
<text text-anchor="start" x="14.5" y="-195" font-family="Helvetica,sans-Serif" font-size="10.00">setTransparency()</text>
<text text-anchor="start" x="4.5" y="-181" font-family="Helvetica,sans-Serif" font-size="10.00">+</text>
<text text-anchor="start" x="14.5" y="-181" font-family="Helvetica,sans-Serif" font-size="10.00">getRed()</text>
<text text-anchor="start" x="4.5" y="-167" font-family="Helvetica,sans-Serif" font-size="10.00">+</text>
<text text-anchor="start" x="14.5" y="-167" font-family="Helvetica,sans-Serif" font-size="10.00">getGreen()</text>
<text text-anchor="start" x="4.5" y="-153" font-family="Helvetica,sans-Serif" font-size="10.00">+</text>
<text text-anchor="start" x="14.5" y="-153" font-family="Helvetica,sans-Serif" font-size="10.00">getBlue()</text>
<text text-anchor="start" x="4.5" y="-139" font-family="Helvetica,sans-Serif" font-size="10.00">+</text>
<text text-anchor="start" x="14.5" y="-139" font-family="Helvetica,sans-Serif" font-size="10.00">getTransparency()</text>
<polygon fill="#bfbfbf" stroke="#bfbfbf" points="0.5,-332.5 0.5,-332.5 96.5,-332.5 96.5,-332.5 0.5,-332.5"/>
<polygon fill="#bfbfbf" stroke="#bfbfbf" points="0.5,-276.5 0.5,-276.5 12.5,-276.5 12.5,-276.5 0.5,-276.5"/>
<polygon fill="#bfbfbf" stroke="#bfbfbf" points="12.5,-276.5 12.5,-276.5 96.5,-276.5 96.5,-276.5 12.5,-276.5"/>
<polygon fill="none" stroke="#bfbfbf" points="0.5,-134.5 0.5,-348.5 96.5,-348.5 96.5,-134.5 0.5,-134.5"/>
</a>
</g>
</g>
<!-- Node2&#45;&gt;Node1 -->
<g id="edge1_Node000001_Node000002" class="edge">
<title>Node2&#45;&gt;Node1</title>
<g id="a_edge1_Node000001_Node000002"><a xlink:title=" ">
<path fill="none" stroke="#63b8ff" d="M48.5,-134.74C48.5,-123.1 48.5,-111.61 48.5,-100.94"/>
<polygon fill="none" stroke="#63b8ff" points="48.5,-100.82 44.5,-94.82 48.5,-88.82 52.5,-94.82 48.5,-100.82"/>
</a>
</g>
<text text-anchor="middle" x="66.12" y="-107" font-family="Helvetica,sans-Serif" font-size="10.00" fill="grey"> +_color</text>
</g>
</g>
</svg>
