<?xml version="1.0" encoding="UTF-8" standalone="no"?>
<!DOCTYPE svg PUBLIC "-//W3C//DTD SVG 1.1//EN"
 "http://www.w3.org/Graphics/SVG/1.1/DTD/svg11.dtd">
<!-- Generated by graphviz version 9.0.0 (20230911.1827)
 -->
<!-- Title: Material Pages: 1 -->
<svg width="130pt" height="493pt"
 viewBox="0.00 0.00 129.50 493.00" xmlns="http://www.w3.org/2000/svg" xmlns:xlink="http://www.w3.org/1999/xlink">
<g id="graph0" class="graph" transform="scale(1 1) rotate(0) translate(4 489)">
<title>Material</title>
<!-- Node1 -->
<g id="Node000001" class="node">
<title>Node1</title>
<g id="a_Node000001"><a xlink:title=" ">
<polygon fill="#999999" stroke="none" points="88.5,-214 7.5,-214 7.5,0 88.5,0 88.5,-214"/>
<text text-anchor="start" x="30.75" y="-200.5" font-family="Helvetica,sans-Serif" font-size="10.00">Material</text>
<text text-anchor="start" x="11.5" y="-186.5" font-family="Helvetica,sans-Serif" font-size="10.00">+</text>
<text text-anchor="start" x="21.5" y="-186.5" font-family="Helvetica,sans-Serif" font-size="10.00">ambient</text>
<text text-anchor="start" x="11.5" y="-172.5" font-family="Helvetica,sans-Serif" font-size="10.00">+</text>
<text text-anchor="start" x="21.5" y="-172.5" font-family="Helvetica,sans-Serif" font-size="10.00">diffuse</text>
<text text-anchor="start" x="11.5" y="-158.5" font-family="Helvetica,sans-Serif" font-size="10.00">+</text>
<text text-anchor="start" x="21.5" y="-158.5" font-family="Helvetica,sans-Serif" font-size="10.00">specular</text>
<text text-anchor="start" x="11.5" y="-144.5" font-family="Helvetica,sans-Serif" font-size="10.00">+</text>
<text text-anchor="start" x="21.5" y="-144.5" font-family="Helvetica,sans-Serif" font-size="10.00">shininess</text>
<text text-anchor="start" x="11.5" y="-130.5" font-family="Helvetica,sans-Serif" font-size="10.00">+</text>
<text text-anchor="start" x="21.5" y="-130.5" font-family="Helvetica,sans-Serif" font-size="10.00">scale</text>
<text text-anchor="start" x="11.5" y="-116.5" font-family="Helvetica,sans-Serif" font-size="10.00">+</text>
<text text-anchor="start" x="21.5" y="-116.5" font-family="Helvetica,sans-Serif" font-size="10.00">reflectivity</text>
<text text-anchor="start" x="11.5" y="-102.5" font-family="Helvetica,sans-Serif" font-size="10.00">+</text>
<text text-anchor="start" x="21.5" y="-102.5" font-family="Helvetica,sans-Serif" font-size="10.00">transparency</text>
<text text-anchor="start" x="11.5" y="-88.5" font-family="Helvetica,sans-Serif" font-size="10.00">+</text>
<text text-anchor="start" x="21.5" y="-88.5" font-family="Helvetica,sans-Serif" font-size="10.00">refractiveIndex</text>
<text text-anchor="start" x="11.5" y="-74.5" font-family="Helvetica,sans-Serif" font-size="10.00">+</text>
<text text-anchor="start" x="21.5" y="-74.5" font-family="Helvetica,sans-Serif" font-size="10.00">opacity</text>
<text text-anchor="start" x="11.5" y="-60.5" font-family="Helvetica,sans-Serif" font-size="10.00">+</text>
<text text-anchor="start" x="21.5" y="-60.5" font-family="Helvetica,sans-Serif" font-size="10.00">colorTexture</text>
<text text-anchor="start" x="11.5" y="-46.5" font-family="Helvetica,sans-Serif" font-size="10.00">+</text>
<text text-anchor="start" x="21.5" y="-46.5" font-family="Helvetica,sans-Serif" font-size="10.00">normalMap</text>
<text text-anchor="start" x="11.5" y="-32.5" font-family="Helvetica,sans-Serif" font-size="10.00">+</text>
<text text-anchor="start" x="21.5" y="-32.5" font-family="Helvetica,sans-Serif" font-size="10.00">materialType</text>
<text text-anchor="start" x="11.5" y="-18.5" font-family="Helvetica,sans-Serif" font-size="10.00">+</text>
<text text-anchor="start" x="21.5" y="-18.5" font-family="Helvetica,sans-Serif" font-size="10.00">Material()</text>
<text text-anchor="start" x="11.5" y="-4.5" font-family="Helvetica,sans-Serif" font-size="10.00">+</text>
<text text-anchor="start" x="21.5" y="-4.5" font-family="Helvetica,sans-Serif" font-size="10.00">Material()</text>
<polygon fill="#666666" stroke="#666666" points="7.5,-198 7.5,-198 88.5,-198 88.5,-198 7.5,-198"/>
<polygon fill="#666666" stroke="#666666" points="7.5,-30 7.5,-30 19.5,-30 19.5,-30 7.5,-30"/>
<polygon fill="#666666" stroke="#666666" points="19.5,-30 19.5,-30 88.5,-30 88.5,-30 19.5,-30"/>
<polygon fill="none" stroke="#666666" points="7.5,0 7.5,-214 88.5,-214 88.5,0 7.5,0"/>
</a>
</g>
</g>
<!-- Node2 -->
<g id="Node000002" class="node">
<title>Node2</title>
<g id="a_Node000002"><a xlink:href="classColor.html" target="_top" xlink:title=" ">
<polygon fill="white" stroke="none" points="96,-485 0,-485 0,-271 96,-271 96,-485"/>
<text text-anchor="start" x="36.38" y="-471.5" font-family="Helvetica,sans-Serif" font-size="10.00">Color</text>
<text text-anchor="start" x="5.5" y="-457.5" font-family="Helvetica,sans-Serif" font-size="10.00">&#45;</text>
<text text-anchor="start" x="14" y="-457.5" font-family="Helvetica,sans-Serif" font-size="10.00">_red</text>
<text text-anchor="start" x="5.5" y="-443.5" font-family="Helvetica,sans-Serif" font-size="10.00">&#45;</text>
<text text-anchor="start" x="14" y="-443.5" font-family="Helvetica,sans-Serif" font-size="10.00">_green</text>
<text text-anchor="start" x="5.5" y="-429.5" font-family="Helvetica,sans-Serif" font-size="10.00">&#45;</text>
<text text-anchor="start" x="14" y="-429.5" font-family="Helvetica,sans-Serif" font-size="10.00">_blue</text>
<text text-anchor="start" x="5.5" y="-415.5" font-family="Helvetica,sans-Serif" font-size="10.00">&#45;</text>
<text text-anchor="start" x="14" y="-415.5" font-family="Helvetica,sans-Serif" font-size="10.00">_transparency</text>
<text text-anchor="start" x="4" y="-401.5" font-family="Helvetica,sans-Serif" font-size="10.00">+</text>
<text text-anchor="start" x="14" y="-401.5" font-family="Helvetica,sans-Serif" font-size="10.00">Color()</text>
<text text-anchor="start" x="4" y="-387.5" font-family="Helvetica,sans-Serif" font-size="10.00">+</text>
<text text-anchor="start" x="14" y="-387.5" font-family="Helvetica,sans-Serif" font-size="10.00">~Color()</text>
<text text-anchor="start" x="4" y="-373.5" font-family="Helvetica,sans-Serif" font-size="10.00">+</text>
<text text-anchor="start" x="14" y="-373.5" font-family="Helvetica,sans-Serif" font-size="10.00">Color()</text>
<text text-anchor="start" x="4" y="-359.5" font-family="Helvetica,sans-Serif" font-size="10.00">+</text>
<text text-anchor="start" x="14" y="-359.5" font-family="Helvetica,sans-Serif" font-size="10.00">Color()</text>
<text text-anchor="start" x="4" y="-345.5" font-family="Helvetica,sans-Serif" font-size="10.00">+</text>
<text text-anchor="start" x="14" y="-345.5" font-family="Helvetica,sans-Serif" font-size="10.00">operator=()</text>
<text text-anchor="start" x="4" y="-331.5" font-family="Helvetica,sans-Serif" font-size="10.00">+</text>
<text text-anchor="start" x="14" y="-331.5" font-family="Helvetica,sans-Serif" font-size="10.00">setTransparency()</text>
<text text-anchor="start" x="4" y="-317.5" font-family="Helvetica,sans-Serif" font-size="10.00">+</text>
<text text-anchor="start" x="14" y="-317.5" font-family="Helvetica,sans-Serif" font-size="10.00">getRed()</text>
<text text-anchor="start" x="4" y="-303.5" font-family="Helvetica,sans-Serif" font-size="10.00">+</text>
<text text-anchor="start" x="14" y="-303.5" font-family="Helvetica,sans-Serif" font-size="10.00">getGreen()</text>
<text text-anchor="start" x="4" y="-289.5" font-family="Helvetica,sans-Serif" font-size="10.00">+</text>
<text text-anchor="start" x="14" y="-289.5" font-family="Helvetica,sans-Serif" font-size="10.00">getBlue()</text>
<text text-anchor="start" x="4" y="-275.5" font-family="Helvetica,sans-Serif" font-size="10.00">+</text>
<text text-anchor="start" x="14" y="-275.5" font-family="Helvetica,sans-Serif" font-size="10.00">getTransparency()</text>
<polygon fill="#bfbfbf" stroke="#bfbfbf" points="0,-469 0,-469 96,-469 96,-469 0,-469"/>
<polygon fill="#bfbfbf" stroke="#bfbfbf" points="0,-413 0,-413 12,-413 12,-413 0,-413"/>
<polygon fill="#bfbfbf" stroke="#bfbfbf" points="12,-413 12,-413 96,-413 96,-413 12,-413"/>
<polygon fill="none" stroke="#bfbfbf" points="0,-271 0,-485 96,-485 96,-271 0,-271"/>
</a>
</g>
</g>
<!-- Node2&#45;&gt;Node1 -->
<g id="edge1_Node000001_Node000002" class="edge">
<title>Node2&#45;&gt;Node1</title>
<g id="a_edge1_Node000001_Node000002"><a xlink:title=" ">
<path fill="none" stroke="#63b8ff" d="M48,-271.07C48,-256.51 48,-241.49 48,-226.73"/>
<polygon fill="none" stroke="#63b8ff" points="48,-226.73 44,-220.73 48,-214.73 52,-220.73 48,-226.73"/>
</a>
</g>
<text text-anchor="middle" x="84.75" y="-243.5" font-family="Helvetica,sans-Serif" font-size="10.00" fill="grey"> +OptionalColor1</text>
<text text-anchor="middle" x="84.75" y="-233" font-family="Helvetica,sans-Serif" font-size="10.00" fill="grey">+OptionalColor2</text>
</g>
</g>
</svg>
