<?xml version="1.0" encoding="UTF-8" standalone="no"?>
<!DOCTYPE svg PUBLIC "-//W3C//DTD SVG 1.1//EN"
 "http://www.w3.org/Graphics/SVG/1.1/DTD/svg11.dtd">
<!-- Generated by graphviz version 9.0.0 (20230911.1827)
 -->
<!-- Title: ShapeDefinition Pages: 1 -->
<svg width="87pt" height="96pt"
 viewBox="0.00 0.00 87.00 96.00" xmlns="http://www.w3.org/2000/svg" xmlns:xlink="http://www.w3.org/1999/xlink">
<g id="graph0" class="graph" transform="scale(1 1) rotate(0) translate(4 92)">
<title>ShapeDefinition</title>
<!-- Node1 -->
<g id="Node000001" class="node">
<title>Node1</title>
<g id="a_Node000001"><a xlink:title=" ">
<polygon fill="#999999" stroke="none" points="79,-88 0,-88 0,0 79,0 79,-88"/>
<text text-anchor="start" x="5" y="-74.5" font-family="Helvetica,sans-Serif" font-size="10.00">ShapeDefinition</text>
<text text-anchor="start" x="7.5" y="-60.5" font-family="Helvetica,sans-Serif" font-size="10.00">+</text>
<text text-anchor="start" x="21" y="-60.5" font-family="Helvetica,sans-Serif" font-size="10.00">name</text>
<text text-anchor="start" x="7.5" y="-46.5" font-family="Helvetica,sans-Serif" font-size="10.00">+</text>
<text text-anchor="start" x="21" y="-46.5" font-family="Helvetica,sans-Serif" font-size="10.00">mandatory</text>
<text text-anchor="start" x="7.5" y="-32.5" font-family="Helvetica,sans-Serif" font-size="10.00">+</text>
<text text-anchor="start" x="21" y="-32.5" font-family="Helvetica,sans-Serif" font-size="10.00">optional</text>
<text text-anchor="start" x="7.5" y="-18.5" font-family="Helvetica,sans-Serif" font-size="10.00">+</text>
<text text-anchor="start" x="21" y="-18.5" font-family="Helvetica,sans-Serif" font-size="10.00">objectType</text>
<text text-anchor="start" x="38" y="-4.5" font-family="Helvetica,sans-Serif" font-size="10.00"> </text>
<polygon fill="#666666" stroke="#666666" points="0,-72 0,-72 79,-72 79,-72 0,-72"/>
<polygon fill="#666666" stroke="#666666" points="0,-16 0,-16 19,-16 19,-16 0,-16"/>
<polygon fill="#666666" stroke="#666666" points="19,-16 19,-16 79,-16 79,-16 19,-16"/>
<polygon fill="none" stroke="#666666" points="0,0 0,-88 79,-88 79,0 0,0"/>
</a>
</g>
</g>
</g>
</svg>
